G04 #@! TF.GenerationSoftware,KiCad,Pcbnew,5.0.0-rc2-dev-unknown-94c7809~62~ubuntu16.04.1*
G04 #@! TF.CreationDate,2018-03-26T01:26:19-07:00*
G04 #@! TF.ProjectId,LR7833_Bridge,4C52373833335F4272696467652E6B69,rev?*
G04 #@! TF.SameCoordinates,Original*
G04 #@! TF.FileFunction,Paste,Top*
G04 #@! TF.FilePolarity,Positive*
%FSLAX46Y46*%
G04 Gerber Fmt 4.6, Leading zero omitted, Abs format (unit mm)*
G04 Created by KiCad (PCBNEW 5.0.0-rc2-dev-unknown-94c7809~62~ubuntu16.04.1) date Mon Mar 26 01:26:19 2018*
%MOMM*%
%LPD*%
G01*
G04 APERTURE LIST*
%ADD10R,1.550000X2.780000*%
%ADD11R,4.000000X2.500000*%
%ADD12R,0.800000X0.750000*%
%ADD13R,0.750000X0.800000*%
%ADD14R,2.500000X4.000000*%
%ADD15R,1.000000X1.600000*%
%ADD16R,0.800000X0.900000*%
%ADD17R,0.500000X0.900000*%
%ADD18R,6.740000X6.730000*%
%ADD19R,2.780000X1.550000*%
%ADD20R,6.730000X6.740000*%
%ADD21R,1.100000X0.400000*%
G04 APERTURE END LIST*
D10*
X59680000Y29800000D03*
X55320000Y29800000D03*
D11*
X45300000Y34000000D03*
X39200000Y34000000D03*
D12*
X46750000Y23000000D03*
X48250000Y23000000D03*
X48750000Y20500000D03*
X47250000Y20500000D03*
D13*
X43500000Y10250000D03*
X43500000Y11750000D03*
D12*
X56500000Y38500000D03*
X55000000Y38500000D03*
X64750000Y38500000D03*
X63250000Y38500000D03*
X56000000Y1500000D03*
X57500000Y1500000D03*
X62500000Y1500000D03*
X64000000Y1500000D03*
D14*
X9750000Y26200000D03*
X9750000Y32300000D03*
D11*
X21550000Y19000000D03*
X15450000Y19000000D03*
D14*
X19500000Y32300000D03*
X19500000Y26200000D03*
D12*
X41000000Y11500000D03*
X39500000Y11500000D03*
D15*
X36750000Y24500000D03*
X33750000Y24500000D03*
X54500000Y36500000D03*
X57500000Y36500000D03*
X62500000Y36500000D03*
X65500000Y36500000D03*
X58500000Y3500000D03*
X55500000Y3500000D03*
X61500000Y3500000D03*
X64500000Y3500000D03*
D16*
X44400000Y5500000D03*
X46500000Y5500000D03*
X37650000Y4250000D03*
X39750000Y4250000D03*
D17*
X41500000Y26750000D03*
X40000000Y26750000D03*
X45250000Y25000000D03*
X46750000Y25000000D03*
X45750000Y27500000D03*
X44250000Y27500000D03*
X48250000Y16750000D03*
X46750000Y16750000D03*
X46500000Y13000000D03*
X48000000Y13000000D03*
X36000000Y11500000D03*
X37500000Y11500000D03*
X40000000Y24500000D03*
X41500000Y24500000D03*
X32000000Y9500000D03*
X33500000Y9500000D03*
X33500000Y7500000D03*
X32000000Y7500000D03*
X34250000Y5000000D03*
X32750000Y5000000D03*
X8000000Y22250000D03*
X6500000Y22250000D03*
X6500000Y19500000D03*
X8000000Y19500000D03*
D10*
X30680000Y29800000D03*
D18*
X28500000Y23165000D03*
D10*
X26320000Y29800000D03*
D19*
X27300000Y11180000D03*
D20*
X20665000Y9000000D03*
D19*
X27300000Y6820000D03*
D21*
X35100000Y14275000D03*
X35100000Y14925000D03*
X35100000Y15575000D03*
X35100000Y16225000D03*
X35100000Y16875000D03*
X35100000Y17525000D03*
X35100000Y18175000D03*
X35100000Y18825000D03*
X35100000Y19475000D03*
X35100000Y20125000D03*
X35100000Y20775000D03*
X35100000Y21425000D03*
X41400000Y21425000D03*
X41400000Y20775000D03*
X41400000Y20125000D03*
X41400000Y19475000D03*
X41400000Y18825000D03*
X41400000Y18175000D03*
X41400000Y17525000D03*
X41400000Y16875000D03*
X41400000Y16225000D03*
X41400000Y15575000D03*
X41400000Y14925000D03*
X41400000Y14275000D03*
D10*
X66320000Y30200000D03*
X70680000Y30200000D03*
X59680000Y7200000D03*
X55320000Y7200000D03*
X66320000Y7200000D03*
X70680000Y7200000D03*
M02*
