G04 #@! TF.GenerationSoftware,KiCad,Pcbnew,5.0.0-rc2-dev-unknown-94c7809~62~ubuntu16.04.1*
G04 #@! TF.CreationDate,2018-03-26T01:26:19-07:00*
G04 #@! TF.ProjectId,LR7833_Bridge,4C52373833335F4272696467652E6B69,rev?*
G04 #@! TF.SameCoordinates,Original*
G04 #@! TF.FileFunction,Copper,L2,Bot,Signal*
G04 #@! TF.FilePolarity,Positive*
%FSLAX46Y46*%
G04 Gerber Fmt 4.6, Leading zero omitted, Abs format (unit mm)*
G04 Created by KiCad (PCBNEW 5.0.0-rc2-dev-unknown-94c7809~62~ubuntu16.04.1) date Mon Mar 26 01:26:19 2018*
%MOMM*%
%LPD*%
G01*
G04 APERTURE LIST*
%ADD10R,2.000000X2.000000*%
%ADD11C,5.000000*%
%ADD12R,1.778000X1.778000*%
%ADD13C,2.000000*%
%ADD14C,3.500000*%
%ADD15R,3.500000X3.500000*%
%ADD16C,1.524000*%
%ADD17R,1.524000X1.524000*%
%ADD18C,2.400000*%
%ADD19R,2.400000X2.400000*%
%ADD20R,0.890000X1.100000*%
%ADD21C,0.800000*%
%ADD22C,1.000000*%
%ADD23C,0.400000*%
%ADD24C,3.000000*%
%ADD25C,0.700000*%
%ADD26C,0.800000*%
%ADD27C,0.600000*%
%ADD28C,0.254000*%
G04 APERTURE END LIST*
D10*
X76330000Y38500000D03*
X73790000Y38500000D03*
X71250000Y38500000D03*
X68710000Y38500000D03*
X16810000Y3250000D03*
X14270000Y3250000D03*
X11730000Y3250000D03*
X9190000Y3250000D03*
D11*
X3750000Y36000000D03*
X3750000Y3500000D03*
X96500000Y3500000D03*
D12*
X56600000Y25500000D03*
X58300000Y25500000D03*
X60000000Y25500000D03*
X55000000Y25500000D03*
X55000000Y24100000D03*
X60000000Y24100000D03*
X58300000Y24100000D03*
X56600000Y24100000D03*
X60000000Y22400000D03*
X55000000Y22400000D03*
X56600000Y22400000D03*
X58300000Y22400000D03*
X55000000Y20700000D03*
X56600000Y20700000D03*
X58300000Y20700000D03*
X60000000Y20700000D03*
D13*
X3020000Y22350000D03*
X3020000Y19810000D03*
X3020000Y17270000D03*
X3020000Y14730000D03*
X3020000Y12190000D03*
X3020000Y9650000D03*
D14*
X97500000Y27120000D03*
X97500000Y22040000D03*
X97500000Y16960000D03*
D15*
X97500000Y11880000D03*
D16*
X94960000Y15690000D03*
D17*
X94960000Y13150000D03*
D16*
X94960000Y18230000D03*
X94960000Y20770000D03*
X94960000Y23310000D03*
X94960000Y25850000D03*
D17*
X94960000Y10610000D03*
D16*
X94960000Y28390000D03*
D13*
X15810000Y36770000D03*
D10*
X13270000Y36770000D03*
D13*
X10730000Y36770000D03*
D10*
X8190000Y36770000D03*
X20420000Y3250000D03*
X22960000Y3250000D03*
X25500000Y3250000D03*
X28040000Y3250000D03*
D13*
X28960000Y36750000D03*
X31500000Y36750000D03*
X34040000Y36750000D03*
X36580000Y36750000D03*
X26290000Y36750000D03*
X23750000Y36750000D03*
X21210000Y36750000D03*
X18670000Y36750000D03*
D18*
X81000000Y28500000D03*
X88500000Y28500000D03*
D19*
X88500000Y10500000D03*
D18*
X81000000Y10500000D03*
D20*
X39525000Y15331250D03*
X38675000Y15331250D03*
X36975000Y15331250D03*
X37825000Y15331250D03*
X37825000Y16387500D03*
X36975000Y16387500D03*
X38675000Y16387500D03*
X39525000Y16387500D03*
X39525000Y17443750D03*
X38675000Y17443750D03*
X36975000Y17443750D03*
X37825000Y17443750D03*
X37825000Y18500000D03*
X36975000Y18500000D03*
X38675000Y18500000D03*
X39525000Y18500000D03*
X39525000Y19556250D03*
X38675000Y19556250D03*
X36975000Y19556250D03*
X37825000Y19556250D03*
X37825000Y20612500D03*
X36975000Y20612500D03*
X38675000Y20612500D03*
X39525000Y20612500D03*
D12*
X71000000Y21100000D03*
X69300000Y21100000D03*
X67600000Y21100000D03*
X66000000Y21100000D03*
X69300000Y22800000D03*
X67600000Y22800000D03*
X66000000Y22800000D03*
X71000000Y22800000D03*
X67600000Y24500000D03*
X69300000Y24500000D03*
X71000000Y24500000D03*
X66000000Y24500000D03*
X66000000Y25900000D03*
X71000000Y25900000D03*
X69300000Y25900000D03*
X67600000Y25900000D03*
X55000000Y16300000D03*
X56700000Y16300000D03*
X58400000Y16300000D03*
X60000000Y16300000D03*
X56700000Y14600000D03*
X58400000Y14600000D03*
X60000000Y14600000D03*
X55000000Y14600000D03*
X58400000Y12900000D03*
X56700000Y12900000D03*
X55000000Y12900000D03*
X60000000Y12900000D03*
X60000000Y11500000D03*
X55000000Y11500000D03*
X56700000Y11500000D03*
X58400000Y11500000D03*
X69400000Y11500000D03*
X67700000Y11500000D03*
X66000000Y11500000D03*
X71000000Y11500000D03*
X71000000Y12900000D03*
X66000000Y12900000D03*
X67700000Y12900000D03*
X69400000Y12900000D03*
X66000000Y14600000D03*
X71000000Y14600000D03*
X69400000Y14600000D03*
X67700000Y14600000D03*
X71000000Y16300000D03*
X69400000Y16300000D03*
X67700000Y16300000D03*
X66000000Y16300000D03*
D11*
X96500000Y36000000D03*
D13*
X47000000Y2020000D03*
X72250000Y2520000D03*
D21*
X32750000Y14500000D03*
X35000000Y11250000D03*
X19000000Y14500000D03*
X45500000Y30750000D03*
X30750000Y9500000D03*
X41500000Y28500000D03*
X65500000Y32500000D03*
X44577473Y22322567D03*
X49000000Y26000000D03*
X47750000Y21750000D03*
X52500000Y27000000D03*
X53500000Y29500000D03*
X53500000Y30500000D03*
X57500000Y31500000D03*
X57500000Y33500000D03*
X57500000Y32500000D03*
X65500000Y33500000D03*
X68500000Y31500000D03*
X54500000Y31500000D03*
X53500000Y31500000D03*
X53500000Y32500000D03*
X53500000Y33500000D03*
X54500000Y33500000D03*
X55500000Y33500000D03*
X56500000Y33500000D03*
X56500000Y32500000D03*
X55500000Y32500000D03*
X68500000Y32500000D03*
X68500000Y33500000D03*
X67500000Y33500000D03*
X66500000Y33500000D03*
X66500000Y31500000D03*
X67500000Y31500000D03*
X67500000Y32500000D03*
X66500000Y32500000D03*
X57500000Y29500000D03*
X57500000Y30500000D03*
X54500000Y32500000D03*
X47250000Y15250000D03*
X50000000Y20250000D03*
X52000000Y10500000D03*
X43336208Y18224946D03*
X43000000Y13250000D03*
X12250000Y29000000D03*
X10500000Y22750000D03*
X28500000Y28750000D03*
X24250000Y34500000D03*
X13250000Y23750000D03*
X14500000Y28250000D03*
X33000000Y34500000D03*
X16750000Y32500000D03*
X12750000Y34250000D03*
X42250000Y8250000D03*
X42000000Y11500000D03*
X43000000Y21750000D03*
X31385525Y15700913D03*
X9750000Y15750000D03*
X9750000Y21000000D03*
X5500000Y21000000D03*
X31199990Y13000000D03*
X7250000Y14250000D03*
X33315068Y19379484D03*
X32646464Y18635850D03*
X32247331Y17718944D03*
X32000000Y16750000D03*
X46750000Y26250000D03*
X59684556Y34899990D03*
X46750000Y27500000D03*
X70500000Y35500000D03*
X49250000Y14250000D03*
X52000000Y7500000D03*
X47000000Y10500000D03*
X70000000Y4000000D03*
X33942311Y14560926D03*
X37500000Y12750000D03*
X32683769Y15948695D03*
X32500000Y11250000D03*
X30750000Y5000000D03*
X14750000Y8750000D03*
D22*
X50000000Y39250000D02*
X47750000Y39250000D01*
X47750000Y39250000D02*
X45500000Y37000000D01*
D23*
X32750000Y14500000D02*
X35000000Y12250000D01*
X35000000Y12250000D02*
X35000000Y11250000D01*
X34500000Y9500000D02*
X34500000Y10750000D01*
X34500000Y10750000D02*
X35000000Y11250000D01*
D24*
X19000000Y14500000D02*
X15250000Y14500000D01*
X45500000Y37000000D02*
X46250000Y37000000D01*
X45500000Y30750000D02*
X45500000Y37000000D01*
D22*
X20420000Y3250000D02*
X9190000Y3250000D01*
X28040000Y3250000D02*
X20420000Y3250000D01*
X35750000Y4250000D02*
X34750000Y3250000D01*
X34750000Y3250000D02*
X28040000Y3250000D01*
X35750000Y8250000D02*
X35750000Y4250000D01*
X34500000Y9500000D02*
X35750000Y8250000D01*
X30750000Y9500000D02*
X34500000Y9500000D01*
X38250000Y27500000D02*
X39250000Y28500000D01*
X39250000Y28500000D02*
X41500000Y28500000D01*
X38250000Y22587500D02*
X38250000Y27500000D01*
X37825000Y20612500D02*
X37825000Y22162500D01*
X37825000Y22162500D02*
X38250000Y22587500D01*
D25*
X94960000Y10610000D02*
X96230000Y10610000D01*
X96230000Y10610000D02*
X97500000Y11880000D01*
X94960000Y10610000D02*
X94960000Y13150000D01*
X94960000Y28390000D02*
X96230000Y28390000D01*
X96230000Y28390000D02*
X97500000Y27120000D01*
X94960000Y25850000D02*
X94960000Y28390000D01*
X86000000Y4500000D02*
X88500000Y7000000D01*
X88500000Y7000000D02*
X88500000Y10500000D01*
X76000000Y4500000D02*
X86000000Y4500000D01*
X74000000Y6500000D02*
X76000000Y4500000D01*
X61811000Y6500000D02*
X74000000Y6500000D01*
X58400000Y11500000D02*
X58400000Y9911000D01*
X58400000Y9911000D02*
X61811000Y6500000D01*
D23*
X45150040Y21750000D02*
X44977472Y21922568D01*
X47750000Y21750000D02*
X45150040Y21750000D01*
X44977472Y21922568D02*
X44577473Y22322567D01*
X49000000Y26000000D02*
X50000000Y27000000D01*
X50000000Y27000000D02*
X52500000Y27000000D01*
D25*
X94960000Y20770000D02*
X96230000Y20770000D01*
X96230000Y20770000D02*
X97500000Y22040000D01*
X94960000Y20770000D02*
X94960000Y23310000D01*
D24*
X74500000Y28500000D02*
X70500000Y32500000D01*
X70500000Y32500000D02*
X66500000Y32500000D01*
X81000000Y28500000D02*
X74500000Y28500000D01*
X81000000Y10500000D02*
X81000000Y28500000D01*
X88500000Y10500000D02*
X88500000Y28500000D01*
X66000000Y26000000D02*
X59500000Y32500000D01*
X59500000Y32500000D02*
X54500000Y32500000D01*
X66000000Y25900000D02*
X66000000Y26000000D01*
D23*
X47250000Y15250000D02*
X47649999Y15649999D01*
X47649999Y15649999D02*
X49899999Y15649999D01*
X49899999Y15649999D02*
X51000000Y16750000D01*
X50000000Y17750000D02*
X50000000Y20250000D01*
X50000000Y17750000D02*
X51000000Y16750000D01*
D25*
X51000000Y11500000D02*
X51000000Y16750000D01*
X52000000Y10500000D02*
X51000000Y11500000D01*
X94960000Y15690000D02*
X96230000Y15690000D01*
X96230000Y15690000D02*
X97500000Y16960000D01*
X94960000Y15690000D02*
X94960000Y18230000D01*
D23*
X43000000Y13250000D02*
X43000000Y17888738D01*
X43000000Y17888738D02*
X43336208Y18224946D01*
D22*
X10000000Y23250000D02*
X10000000Y26750000D01*
X10000000Y26750000D02*
X12250000Y29000000D01*
X10500000Y22750000D02*
X10000000Y23250000D01*
D26*
X24250000Y34500000D02*
X24250000Y33000000D01*
X24250000Y33000000D02*
X28500000Y28750000D01*
X14500000Y28250000D02*
X14500000Y25000000D01*
X14500000Y25000000D02*
X13250000Y23750000D01*
X12750000Y34250000D02*
X15000000Y34250000D01*
X15000000Y34250000D02*
X16750000Y32500000D01*
D23*
X42750000Y9000000D02*
X43000000Y9000000D01*
X43000000Y9000000D02*
X45000000Y9000000D01*
X42250000Y8250000D02*
X43000000Y9000000D01*
X42000000Y9750000D02*
X42750000Y9000000D01*
X42000000Y11500000D02*
X42000000Y9750000D01*
X45000000Y19184315D02*
X45000000Y9000000D01*
X43000000Y21750000D02*
X43000000Y21184315D01*
X43000000Y21184315D02*
X45000000Y19184315D01*
X9750000Y15750000D02*
X10400011Y16400011D01*
X30985526Y16100912D02*
X31385525Y15700913D01*
X10400011Y16400011D02*
X30686427Y16400011D01*
X30686427Y16400011D02*
X30985526Y16100912D01*
X5500000Y21000000D02*
X9750000Y21000000D01*
X7250000Y14250000D02*
X8900011Y12599989D01*
X8900011Y12599989D02*
X30799979Y12599989D01*
X30799991Y12600001D02*
X31199990Y13000000D01*
X30799979Y12599989D02*
X30799991Y12600001D01*
X3020000Y17270000D02*
X5529483Y19779483D01*
X32915069Y19779483D02*
X33315068Y19379484D01*
X5529483Y19779483D02*
X32915069Y19779483D01*
X6925850Y18635850D02*
X32080779Y18635850D01*
X32080779Y18635850D02*
X32646464Y18635850D01*
X3020000Y14730000D02*
X6925850Y18635850D01*
X31681646Y17718944D02*
X32247331Y17718944D01*
X3020000Y12190000D02*
X4750000Y13920000D01*
X4750000Y13920000D02*
X4750000Y15250000D01*
X4750000Y15250000D02*
X7218944Y17718944D01*
X7218944Y17718944D02*
X31681646Y17718944D01*
X5500000Y12130000D02*
X4019999Y10649999D01*
X31434315Y16750000D02*
X31184293Y17000022D01*
X5500000Y13750000D02*
X5500000Y12130000D01*
X4019999Y10649999D02*
X3020000Y9650000D01*
X8750022Y17000022D02*
X5500000Y13750000D01*
X31184293Y17000022D02*
X8750022Y17000022D01*
X32000000Y16750000D02*
X31434315Y16750000D01*
X46750000Y26250000D02*
X47149999Y26649999D01*
X47149999Y26649999D02*
X47899999Y26649999D01*
X47899999Y26649999D02*
X49500000Y28250000D01*
D27*
X49500000Y33500000D02*
X49500000Y28250000D01*
D25*
X50899990Y34899990D02*
X59118871Y34899990D01*
X49500000Y33500000D02*
X50899990Y34899990D01*
X59118871Y34899990D02*
X59684556Y34899990D01*
D27*
X48500000Y28750000D02*
X47250000Y27500000D01*
X47250000Y27500000D02*
X46750000Y27500000D01*
X48500000Y34500000D02*
X48500000Y28750000D01*
D25*
X49500000Y35500000D02*
X48500000Y34500000D01*
X50500000Y36500000D02*
X49500000Y35500000D01*
X60500000Y36500000D02*
X50500000Y36500000D01*
X61500000Y35500000D02*
X60500000Y36500000D01*
X70500000Y35500000D02*
X61500000Y35500000D01*
D23*
X49250000Y14250000D02*
X49250000Y11250000D01*
X49250000Y11250000D02*
X49500000Y11000000D01*
D25*
X52000000Y8500000D02*
X49500000Y11000000D01*
X52000000Y7500000D02*
X52000000Y8500000D01*
D23*
X48000000Y9500000D02*
X47000000Y10500000D01*
D25*
X51000000Y6500000D02*
X48000000Y9500000D01*
X51000000Y3000000D02*
X51000000Y6500000D01*
X52000000Y2000000D02*
X51000000Y3000000D01*
X68000000Y2000000D02*
X52000000Y2000000D01*
X70000000Y4000000D02*
X68000000Y2000000D01*
D23*
X37500000Y12750000D02*
X35753237Y12750000D01*
X35753237Y12750000D02*
X34342310Y14160927D01*
X34342310Y14160927D02*
X33942311Y14560926D01*
X32283770Y15548696D02*
X32683769Y15948695D01*
X31949999Y14115999D02*
X31949999Y15134001D01*
X32283770Y15467772D02*
X32283770Y15548696D01*
X32500000Y11250000D02*
X32500000Y13565998D01*
X32500000Y13565998D02*
X31949999Y14115999D01*
X31949999Y15134001D02*
X32283770Y15467772D01*
D22*
X29000000Y9750000D02*
X30500000Y11250000D01*
X30500000Y11250000D02*
X32500000Y11250000D01*
X29000000Y9250000D02*
X29000000Y9750000D01*
X30500000Y7750000D02*
X30500000Y5250000D01*
X30500000Y5250000D02*
X30750000Y5000000D01*
X29000000Y9250000D02*
X30500000Y7750000D01*
X15250000Y9250000D02*
X29000000Y9250000D01*
X14750000Y8750000D02*
X15250000Y9250000D01*
D28*
G36*
X92373000Y8627000D02*
X86627000Y8627000D01*
X86627000Y30373000D01*
X92373000Y30373000D01*
X92373000Y8627000D01*
X92373000Y8627000D01*
G37*
X92373000Y8627000D02*
X86627000Y8627000D01*
X86627000Y30373000D01*
X92373000Y30373000D01*
X92373000Y8627000D01*
G36*
X64373000Y32750497D02*
X64323173Y32500000D01*
X64373000Y32249503D01*
X64373000Y30500000D01*
X64382667Y30451399D01*
X64410197Y30410197D01*
X65410197Y29410197D01*
X65451399Y29382667D01*
X65500000Y29373000D01*
X69447394Y29373000D01*
X72410197Y26410197D01*
X72451399Y26382667D01*
X72500000Y26373000D01*
X74249502Y26373000D01*
X74289721Y26365000D01*
X74289724Y26365000D01*
X74499999Y26323174D01*
X74710274Y26365000D01*
X76373000Y26365000D01*
X76373000Y20627000D01*
X70824000Y20627000D01*
X70824000Y20814250D01*
X70665250Y20973000D01*
X69427000Y20973000D01*
X69427000Y20953000D01*
X69173000Y20953000D01*
X69173000Y20973000D01*
X67727000Y20973000D01*
X67727000Y20953000D01*
X67473000Y20953000D01*
X67473000Y20973000D01*
X66234750Y20973000D01*
X66076000Y20814250D01*
X66076000Y20627000D01*
X62627000Y20627000D01*
X62627000Y22514250D01*
X66076000Y22514250D01*
X66076000Y21385750D01*
X66234750Y21227000D01*
X67473000Y21227000D01*
X67473000Y22673000D01*
X67727000Y22673000D01*
X67727000Y21227000D01*
X69173000Y21227000D01*
X69173000Y22673000D01*
X69427000Y22673000D01*
X69427000Y21227000D01*
X70665250Y21227000D01*
X70824000Y21385750D01*
X70824000Y22514250D01*
X70665250Y22673000D01*
X69427000Y22673000D01*
X69173000Y22673000D01*
X67727000Y22673000D01*
X67473000Y22673000D01*
X66234750Y22673000D01*
X66076000Y22514250D01*
X62627000Y22514250D01*
X62627000Y24214250D01*
X66076000Y24214250D01*
X66076000Y23085750D01*
X66234750Y22927000D01*
X67473000Y22927000D01*
X67473000Y24373000D01*
X67727000Y24373000D01*
X67727000Y22927000D01*
X69173000Y22927000D01*
X69173000Y24373000D01*
X69427000Y24373000D01*
X69427000Y22927000D01*
X70665250Y22927000D01*
X70824000Y23085750D01*
X70824000Y24214250D01*
X70665250Y24373000D01*
X69427000Y24373000D01*
X69173000Y24373000D01*
X67727000Y24373000D01*
X67473000Y24373000D01*
X66234750Y24373000D01*
X66076000Y24214250D01*
X62627000Y24214250D01*
X62627000Y25515310D01*
X66076000Y25515310D01*
X66076000Y24785750D01*
X66234750Y24627000D01*
X67473000Y24627000D01*
X67473000Y25865250D01*
X67727000Y25865250D01*
X67727000Y24627000D01*
X69173000Y24627000D01*
X69173000Y25865250D01*
X69427000Y25865250D01*
X69427000Y24627000D01*
X70665250Y24627000D01*
X70824000Y24785750D01*
X70824000Y25515310D01*
X70727327Y25748699D01*
X70548698Y25927327D01*
X70315309Y26024000D01*
X69585750Y26024000D01*
X69427000Y25865250D01*
X69173000Y25865250D01*
X69014250Y26024000D01*
X67885750Y26024000D01*
X67727000Y25865250D01*
X67473000Y25865250D01*
X67314250Y26024000D01*
X66584691Y26024000D01*
X66351302Y25927327D01*
X66172673Y25748699D01*
X66076000Y25515310D01*
X62627000Y25515310D01*
X62627000Y26500000D01*
X62617333Y26548601D01*
X62589803Y26589803D01*
X61589803Y27589803D01*
X61548601Y27617333D01*
X61500000Y27627000D01*
X52627000Y27627000D01*
X52627000Y33914990D01*
X59357971Y33914990D01*
X59478682Y33864990D01*
X59890430Y33864990D01*
X60270836Y34022559D01*
X60561987Y34313710D01*
X60586546Y34373000D01*
X64373000Y34373000D01*
X64373000Y32750497D01*
X64373000Y32750497D01*
G37*
X64373000Y32750497D02*
X64323173Y32500000D01*
X64373000Y32249503D01*
X64373000Y30500000D01*
X64382667Y30451399D01*
X64410197Y30410197D01*
X65410197Y29410197D01*
X65451399Y29382667D01*
X65500000Y29373000D01*
X69447394Y29373000D01*
X72410197Y26410197D01*
X72451399Y26382667D01*
X72500000Y26373000D01*
X74249502Y26373000D01*
X74289721Y26365000D01*
X74289724Y26365000D01*
X74499999Y26323174D01*
X74710274Y26365000D01*
X76373000Y26365000D01*
X76373000Y20627000D01*
X70824000Y20627000D01*
X70824000Y20814250D01*
X70665250Y20973000D01*
X69427000Y20973000D01*
X69427000Y20953000D01*
X69173000Y20953000D01*
X69173000Y20973000D01*
X67727000Y20973000D01*
X67727000Y20953000D01*
X67473000Y20953000D01*
X67473000Y20973000D01*
X66234750Y20973000D01*
X66076000Y20814250D01*
X66076000Y20627000D01*
X62627000Y20627000D01*
X62627000Y22514250D01*
X66076000Y22514250D01*
X66076000Y21385750D01*
X66234750Y21227000D01*
X67473000Y21227000D01*
X67473000Y22673000D01*
X67727000Y22673000D01*
X67727000Y21227000D01*
X69173000Y21227000D01*
X69173000Y22673000D01*
X69427000Y22673000D01*
X69427000Y21227000D01*
X70665250Y21227000D01*
X70824000Y21385750D01*
X70824000Y22514250D01*
X70665250Y22673000D01*
X69427000Y22673000D01*
X69173000Y22673000D01*
X67727000Y22673000D01*
X67473000Y22673000D01*
X66234750Y22673000D01*
X66076000Y22514250D01*
X62627000Y22514250D01*
X62627000Y24214250D01*
X66076000Y24214250D01*
X66076000Y23085750D01*
X66234750Y22927000D01*
X67473000Y22927000D01*
X67473000Y24373000D01*
X67727000Y24373000D01*
X67727000Y22927000D01*
X69173000Y22927000D01*
X69173000Y24373000D01*
X69427000Y24373000D01*
X69427000Y22927000D01*
X70665250Y22927000D01*
X70824000Y23085750D01*
X70824000Y24214250D01*
X70665250Y24373000D01*
X69427000Y24373000D01*
X69173000Y24373000D01*
X67727000Y24373000D01*
X67473000Y24373000D01*
X66234750Y24373000D01*
X66076000Y24214250D01*
X62627000Y24214250D01*
X62627000Y25515310D01*
X66076000Y25515310D01*
X66076000Y24785750D01*
X66234750Y24627000D01*
X67473000Y24627000D01*
X67473000Y25865250D01*
X67727000Y25865250D01*
X67727000Y24627000D01*
X69173000Y24627000D01*
X69173000Y25865250D01*
X69427000Y25865250D01*
X69427000Y24627000D01*
X70665250Y24627000D01*
X70824000Y24785750D01*
X70824000Y25515310D01*
X70727327Y25748699D01*
X70548698Y25927327D01*
X70315309Y26024000D01*
X69585750Y26024000D01*
X69427000Y25865250D01*
X69173000Y25865250D01*
X69014250Y26024000D01*
X67885750Y26024000D01*
X67727000Y25865250D01*
X67473000Y25865250D01*
X67314250Y26024000D01*
X66584691Y26024000D01*
X66351302Y25927327D01*
X66172673Y25748699D01*
X66076000Y25515310D01*
X62627000Y25515310D01*
X62627000Y26500000D01*
X62617333Y26548601D01*
X62589803Y26589803D01*
X61589803Y27589803D01*
X61548601Y27617333D01*
X61500000Y27627000D01*
X52627000Y27627000D01*
X52627000Y33914990D01*
X59357971Y33914990D01*
X59478682Y33864990D01*
X59890430Y33864990D01*
X60270836Y34022559D01*
X60561987Y34313710D01*
X60586546Y34373000D01*
X64373000Y34373000D01*
X64373000Y32750497D01*
G36*
X85373000Y8627000D02*
X78627000Y8627000D01*
X78627000Y27500000D01*
X78617333Y27548601D01*
X78589803Y27589803D01*
X78548601Y27617333D01*
X78500000Y27627000D01*
X72552606Y27627000D01*
X69589803Y30589803D01*
X69548601Y30617333D01*
X69500000Y30627000D01*
X66552606Y30627000D01*
X65627000Y31552606D01*
X65627000Y34373000D01*
X85373000Y34373000D01*
X85373000Y8627000D01*
X85373000Y8627000D01*
G37*
X85373000Y8627000D02*
X78627000Y8627000D01*
X78627000Y27500000D01*
X78617333Y27548601D01*
X78589803Y27589803D01*
X78548601Y27617333D01*
X78500000Y27627000D01*
X72552606Y27627000D01*
X69589803Y30589803D01*
X69548601Y30617333D01*
X69500000Y30627000D01*
X66552606Y30627000D01*
X65627000Y31552606D01*
X65627000Y34373000D01*
X85373000Y34373000D01*
X85373000Y8627000D01*
G36*
X55076000Y25372998D02*
X55196972Y25372998D01*
X55172673Y25348699D01*
X55145961Y25284211D01*
X55076000Y25214250D01*
X55076000Y24385750D01*
X55145961Y24315789D01*
X55172673Y24251301D01*
X55351302Y24072673D01*
X55584691Y23976000D01*
X56314250Y23976000D01*
X56473000Y24134750D01*
X56473000Y24247000D01*
X56727000Y24247000D01*
X56727000Y24134750D01*
X56747000Y24114750D01*
X56747000Y23973000D01*
X56727000Y23973000D01*
X56727000Y22527000D01*
X58173000Y22527000D01*
X58173000Y23973000D01*
X58427000Y23973000D01*
X58427000Y22527000D01*
X59665250Y22527000D01*
X59824000Y22685750D01*
X59824000Y23814250D01*
X59665250Y23973000D01*
X58427000Y23973000D01*
X58173000Y23973000D01*
X58153000Y23973000D01*
X58153000Y24114750D01*
X58173000Y24134750D01*
X58173000Y24247000D01*
X58427000Y24247000D01*
X58427000Y24134750D01*
X58585750Y23976000D01*
X59315309Y23976000D01*
X59548698Y24072673D01*
X59727327Y24251301D01*
X59754039Y24315789D01*
X59824000Y24385750D01*
X59824000Y25214250D01*
X59754039Y25284211D01*
X59727327Y25348699D01*
X59703028Y25372998D01*
X59824000Y25372998D01*
X59824000Y25373000D01*
X61373000Y25373000D01*
X61373000Y10500000D01*
X61382667Y10451399D01*
X61410197Y10410197D01*
X61429553Y10394330D01*
X64429553Y8394330D01*
X64500000Y8373000D01*
X76447394Y8373000D01*
X78410197Y6410197D01*
X78451399Y6382667D01*
X78500000Y6373000D01*
X84500000Y6373000D01*
X84548601Y6382667D01*
X84589803Y6410197D01*
X88552606Y10373000D01*
X92373000Y10373000D01*
X92373000Y2627000D01*
X73885000Y2627000D01*
X73885000Y2845222D01*
X73636086Y3446153D01*
X73176153Y3906086D01*
X72575222Y4155000D01*
X71924778Y4155000D01*
X71323847Y3906086D01*
X70909922Y3492161D01*
X71035000Y3794126D01*
X71035000Y4205874D01*
X70877431Y4586280D01*
X70586280Y4877431D01*
X70205874Y5035000D01*
X69794126Y5035000D01*
X69413720Y4877431D01*
X69122569Y4586280D01*
X69072569Y4465569D01*
X67592000Y2985000D01*
X52627000Y2985000D01*
X52627000Y6663289D01*
X52877431Y6913720D01*
X53035000Y7294126D01*
X53035000Y7705874D01*
X52985000Y7826585D01*
X52985000Y8402992D01*
X53004296Y8500000D01*
X52985000Y8597008D01*
X52985000Y8597012D01*
X52927849Y8884328D01*
X52876785Y8960751D01*
X52765098Y9127903D01*
X52765096Y9127905D01*
X52710145Y9210145D01*
X52627905Y9265096D01*
X52627000Y9266001D01*
X52627000Y9663289D01*
X52877431Y9913720D01*
X53035000Y10294126D01*
X53035000Y10705874D01*
X52877431Y11086280D01*
X52627000Y11336711D01*
X52627000Y12614250D01*
X55176000Y12614250D01*
X55176000Y11884690D01*
X55272673Y11651301D01*
X55451302Y11472673D01*
X55684691Y11376000D01*
X56414250Y11376000D01*
X56573000Y11534750D01*
X56573000Y12773000D01*
X56827000Y12773000D01*
X56827000Y11534750D01*
X56985750Y11376000D01*
X58114250Y11376000D01*
X58273000Y11534750D01*
X58273000Y12773000D01*
X58527000Y12773000D01*
X58527000Y11534750D01*
X58685750Y11376000D01*
X59415309Y11376000D01*
X59648698Y11472673D01*
X59827327Y11651301D01*
X59924000Y11884690D01*
X59924000Y12614250D01*
X59765250Y12773000D01*
X58527000Y12773000D01*
X58273000Y12773000D01*
X56827000Y12773000D01*
X56573000Y12773000D01*
X55334750Y12773000D01*
X55176000Y12614250D01*
X52627000Y12614250D01*
X52627000Y14314250D01*
X55176000Y14314250D01*
X55176000Y13185750D01*
X55334750Y13027000D01*
X56573000Y13027000D01*
X56573000Y14473000D01*
X56827000Y14473000D01*
X56827000Y13027000D01*
X58273000Y13027000D01*
X58273000Y14473000D01*
X58527000Y14473000D01*
X58527000Y13027000D01*
X59765250Y13027000D01*
X59924000Y13185750D01*
X59924000Y14314250D01*
X59765250Y14473000D01*
X58527000Y14473000D01*
X58273000Y14473000D01*
X56827000Y14473000D01*
X56573000Y14473000D01*
X55334750Y14473000D01*
X55176000Y14314250D01*
X52627000Y14314250D01*
X52627000Y15615310D01*
X55176000Y15615310D01*
X55176000Y14885750D01*
X55334750Y14727000D01*
X56573000Y14727000D01*
X56573000Y15965250D01*
X56827000Y15965250D01*
X56827000Y14727000D01*
X58273000Y14727000D01*
X58273000Y15965250D01*
X58527000Y15965250D01*
X58527000Y14727000D01*
X59765250Y14727000D01*
X59924000Y14885750D01*
X59924000Y15615310D01*
X59827327Y15848699D01*
X59648698Y16027327D01*
X59415309Y16124000D01*
X58685750Y16124000D01*
X58527000Y15965250D01*
X58273000Y15965250D01*
X58114250Y16124000D01*
X56985750Y16124000D01*
X56827000Y15965250D01*
X56573000Y15965250D01*
X56414250Y16124000D01*
X55684691Y16124000D01*
X55451302Y16027327D01*
X55272673Y15848699D01*
X55176000Y15615310D01*
X52627000Y15615310D01*
X52627000Y22114250D01*
X55076000Y22114250D01*
X55076000Y21384690D01*
X55172673Y21151301D01*
X55351302Y20972673D01*
X55584691Y20876000D01*
X56314250Y20876000D01*
X56473000Y21034750D01*
X56473000Y22273000D01*
X56727000Y22273000D01*
X56727000Y21034750D01*
X56885750Y20876000D01*
X58014250Y20876000D01*
X58173000Y21034750D01*
X58173000Y22273000D01*
X58427000Y22273000D01*
X58427000Y21034750D01*
X58585750Y20876000D01*
X59315309Y20876000D01*
X59548698Y20972673D01*
X59727327Y21151301D01*
X59824000Y21384690D01*
X59824000Y22114250D01*
X59665250Y22273000D01*
X58427000Y22273000D01*
X58173000Y22273000D01*
X56727000Y22273000D01*
X56473000Y22273000D01*
X55234750Y22273000D01*
X55076000Y22114250D01*
X52627000Y22114250D01*
X52627000Y23814250D01*
X55076000Y23814250D01*
X55076000Y22685750D01*
X55234750Y22527000D01*
X56473000Y22527000D01*
X56473000Y23973000D01*
X55234750Y23973000D01*
X55076000Y23814250D01*
X52627000Y23814250D01*
X52627000Y25373000D01*
X55076000Y25373000D01*
X55076000Y25372998D01*
X55076000Y25372998D01*
G37*
X55076000Y25372998D02*
X55196972Y25372998D01*
X55172673Y25348699D01*
X55145961Y25284211D01*
X55076000Y25214250D01*
X55076000Y24385750D01*
X55145961Y24315789D01*
X55172673Y24251301D01*
X55351302Y24072673D01*
X55584691Y23976000D01*
X56314250Y23976000D01*
X56473000Y24134750D01*
X56473000Y24247000D01*
X56727000Y24247000D01*
X56727000Y24134750D01*
X56747000Y24114750D01*
X56747000Y23973000D01*
X56727000Y23973000D01*
X56727000Y22527000D01*
X58173000Y22527000D01*
X58173000Y23973000D01*
X58427000Y23973000D01*
X58427000Y22527000D01*
X59665250Y22527000D01*
X59824000Y22685750D01*
X59824000Y23814250D01*
X59665250Y23973000D01*
X58427000Y23973000D01*
X58173000Y23973000D01*
X58153000Y23973000D01*
X58153000Y24114750D01*
X58173000Y24134750D01*
X58173000Y24247000D01*
X58427000Y24247000D01*
X58427000Y24134750D01*
X58585750Y23976000D01*
X59315309Y23976000D01*
X59548698Y24072673D01*
X59727327Y24251301D01*
X59754039Y24315789D01*
X59824000Y24385750D01*
X59824000Y25214250D01*
X59754039Y25284211D01*
X59727327Y25348699D01*
X59703028Y25372998D01*
X59824000Y25372998D01*
X59824000Y25373000D01*
X61373000Y25373000D01*
X61373000Y10500000D01*
X61382667Y10451399D01*
X61410197Y10410197D01*
X61429553Y10394330D01*
X64429553Y8394330D01*
X64500000Y8373000D01*
X76447394Y8373000D01*
X78410197Y6410197D01*
X78451399Y6382667D01*
X78500000Y6373000D01*
X84500000Y6373000D01*
X84548601Y6382667D01*
X84589803Y6410197D01*
X88552606Y10373000D01*
X92373000Y10373000D01*
X92373000Y2627000D01*
X73885000Y2627000D01*
X73885000Y2845222D01*
X73636086Y3446153D01*
X73176153Y3906086D01*
X72575222Y4155000D01*
X71924778Y4155000D01*
X71323847Y3906086D01*
X70909922Y3492161D01*
X71035000Y3794126D01*
X71035000Y4205874D01*
X70877431Y4586280D01*
X70586280Y4877431D01*
X70205874Y5035000D01*
X69794126Y5035000D01*
X69413720Y4877431D01*
X69122569Y4586280D01*
X69072569Y4465569D01*
X67592000Y2985000D01*
X52627000Y2985000D01*
X52627000Y6663289D01*
X52877431Y6913720D01*
X53035000Y7294126D01*
X53035000Y7705874D01*
X52985000Y7826585D01*
X52985000Y8402992D01*
X53004296Y8500000D01*
X52985000Y8597008D01*
X52985000Y8597012D01*
X52927849Y8884328D01*
X52876785Y8960751D01*
X52765098Y9127903D01*
X52765096Y9127905D01*
X52710145Y9210145D01*
X52627905Y9265096D01*
X52627000Y9266001D01*
X52627000Y9663289D01*
X52877431Y9913720D01*
X53035000Y10294126D01*
X53035000Y10705874D01*
X52877431Y11086280D01*
X52627000Y11336711D01*
X52627000Y12614250D01*
X55176000Y12614250D01*
X55176000Y11884690D01*
X55272673Y11651301D01*
X55451302Y11472673D01*
X55684691Y11376000D01*
X56414250Y11376000D01*
X56573000Y11534750D01*
X56573000Y12773000D01*
X56827000Y12773000D01*
X56827000Y11534750D01*
X56985750Y11376000D01*
X58114250Y11376000D01*
X58273000Y11534750D01*
X58273000Y12773000D01*
X58527000Y12773000D01*
X58527000Y11534750D01*
X58685750Y11376000D01*
X59415309Y11376000D01*
X59648698Y11472673D01*
X59827327Y11651301D01*
X59924000Y11884690D01*
X59924000Y12614250D01*
X59765250Y12773000D01*
X58527000Y12773000D01*
X58273000Y12773000D01*
X56827000Y12773000D01*
X56573000Y12773000D01*
X55334750Y12773000D01*
X55176000Y12614250D01*
X52627000Y12614250D01*
X52627000Y14314250D01*
X55176000Y14314250D01*
X55176000Y13185750D01*
X55334750Y13027000D01*
X56573000Y13027000D01*
X56573000Y14473000D01*
X56827000Y14473000D01*
X56827000Y13027000D01*
X58273000Y13027000D01*
X58273000Y14473000D01*
X58527000Y14473000D01*
X58527000Y13027000D01*
X59765250Y13027000D01*
X59924000Y13185750D01*
X59924000Y14314250D01*
X59765250Y14473000D01*
X58527000Y14473000D01*
X58273000Y14473000D01*
X56827000Y14473000D01*
X56573000Y14473000D01*
X55334750Y14473000D01*
X55176000Y14314250D01*
X52627000Y14314250D01*
X52627000Y15615310D01*
X55176000Y15615310D01*
X55176000Y14885750D01*
X55334750Y14727000D01*
X56573000Y14727000D01*
X56573000Y15965250D01*
X56827000Y15965250D01*
X56827000Y14727000D01*
X58273000Y14727000D01*
X58273000Y15965250D01*
X58527000Y15965250D01*
X58527000Y14727000D01*
X59765250Y14727000D01*
X59924000Y14885750D01*
X59924000Y15615310D01*
X59827327Y15848699D01*
X59648698Y16027327D01*
X59415309Y16124000D01*
X58685750Y16124000D01*
X58527000Y15965250D01*
X58273000Y15965250D01*
X58114250Y16124000D01*
X56985750Y16124000D01*
X56827000Y15965250D01*
X56573000Y15965250D01*
X56414250Y16124000D01*
X55684691Y16124000D01*
X55451302Y16027327D01*
X55272673Y15848699D01*
X55176000Y15615310D01*
X52627000Y15615310D01*
X52627000Y22114250D01*
X55076000Y22114250D01*
X55076000Y21384690D01*
X55172673Y21151301D01*
X55351302Y20972673D01*
X55584691Y20876000D01*
X56314250Y20876000D01*
X56473000Y21034750D01*
X56473000Y22273000D01*
X56727000Y22273000D01*
X56727000Y21034750D01*
X56885750Y20876000D01*
X58014250Y20876000D01*
X58173000Y21034750D01*
X58173000Y22273000D01*
X58427000Y22273000D01*
X58427000Y21034750D01*
X58585750Y20876000D01*
X59315309Y20876000D01*
X59548698Y20972673D01*
X59727327Y21151301D01*
X59824000Y21384690D01*
X59824000Y22114250D01*
X59665250Y22273000D01*
X58427000Y22273000D01*
X58173000Y22273000D01*
X56727000Y22273000D01*
X56473000Y22273000D01*
X55234750Y22273000D01*
X55076000Y22114250D01*
X52627000Y22114250D01*
X52627000Y23814250D01*
X55076000Y23814250D01*
X55076000Y22685750D01*
X55234750Y22527000D01*
X56473000Y22527000D01*
X56473000Y23973000D01*
X55234750Y23973000D01*
X55076000Y23814250D01*
X52627000Y23814250D01*
X52627000Y25373000D01*
X55076000Y25373000D01*
X55076000Y25372998D01*
G36*
X93425178Y33945470D02*
X94445470Y32925178D01*
X95778545Y32373000D01*
X97221455Y32373000D01*
X98554530Y32925178D01*
X99265000Y33635648D01*
X99265000Y25627000D01*
X86627000Y25627000D01*
X86627000Y34373000D01*
X93248089Y34373000D01*
X93425178Y33945470D01*
X93425178Y33945470D01*
G37*
X93425178Y33945470D02*
X94445470Y32925178D01*
X95778545Y32373000D01*
X97221455Y32373000D01*
X98554530Y32925178D01*
X99265000Y33635648D01*
X99265000Y25627000D01*
X86627000Y25627000D01*
X86627000Y34373000D01*
X93248089Y34373000D01*
X93425178Y33945470D01*
G36*
X76873000Y9627000D02*
X64542333Y9627000D01*
X62627000Y11063500D01*
X62627000Y12614250D01*
X66176000Y12614250D01*
X66176000Y11884690D01*
X66272673Y11651301D01*
X66451302Y11472673D01*
X66684691Y11376000D01*
X67414250Y11376000D01*
X67573000Y11534750D01*
X67573000Y12773000D01*
X67827000Y12773000D01*
X67827000Y11534750D01*
X67985750Y11376000D01*
X69114250Y11376000D01*
X69273000Y11534750D01*
X69273000Y12773000D01*
X69527000Y12773000D01*
X69527000Y11534750D01*
X69685750Y11376000D01*
X70415309Y11376000D01*
X70648698Y11472673D01*
X70827327Y11651301D01*
X70924000Y11884690D01*
X70924000Y12614250D01*
X70765250Y12773000D01*
X69527000Y12773000D01*
X69273000Y12773000D01*
X67827000Y12773000D01*
X67573000Y12773000D01*
X66334750Y12773000D01*
X66176000Y12614250D01*
X62627000Y12614250D01*
X62627000Y14314250D01*
X66176000Y14314250D01*
X66176000Y13185750D01*
X66334750Y13027000D01*
X67573000Y13027000D01*
X67573000Y14473000D01*
X67827000Y14473000D01*
X67827000Y13027000D01*
X69273000Y13027000D01*
X69273000Y14473000D01*
X69527000Y14473000D01*
X69527000Y13027000D01*
X70765250Y13027000D01*
X70924000Y13185750D01*
X70924000Y14314250D01*
X70765250Y14473000D01*
X69527000Y14473000D01*
X69273000Y14473000D01*
X67827000Y14473000D01*
X67573000Y14473000D01*
X66334750Y14473000D01*
X66176000Y14314250D01*
X62627000Y14314250D01*
X62627000Y15615310D01*
X66176000Y15615310D01*
X66176000Y14885750D01*
X66334750Y14727000D01*
X67573000Y14727000D01*
X67573000Y15965250D01*
X67827000Y15965250D01*
X67827000Y14727000D01*
X69273000Y14727000D01*
X69273000Y15965250D01*
X69527000Y15965250D01*
X69527000Y14727000D01*
X70765250Y14727000D01*
X70924000Y14885750D01*
X70924000Y15615310D01*
X70827327Y15848699D01*
X70648698Y16027327D01*
X70415309Y16124000D01*
X69685750Y16124000D01*
X69527000Y15965250D01*
X69273000Y15965250D01*
X69114250Y16124000D01*
X67985750Y16124000D01*
X67827000Y15965250D01*
X67573000Y15965250D01*
X67414250Y16124000D01*
X66684691Y16124000D01*
X66451302Y16027327D01*
X66272673Y15848699D01*
X66176000Y15615310D01*
X62627000Y15615310D01*
X62627000Y18873000D01*
X76873000Y18873000D01*
X76873000Y9627000D01*
X76873000Y9627000D01*
G37*
X76873000Y9627000D02*
X64542333Y9627000D01*
X62627000Y11063500D01*
X62627000Y12614250D01*
X66176000Y12614250D01*
X66176000Y11884690D01*
X66272673Y11651301D01*
X66451302Y11472673D01*
X66684691Y11376000D01*
X67414250Y11376000D01*
X67573000Y11534750D01*
X67573000Y12773000D01*
X67827000Y12773000D01*
X67827000Y11534750D01*
X67985750Y11376000D01*
X69114250Y11376000D01*
X69273000Y11534750D01*
X69273000Y12773000D01*
X69527000Y12773000D01*
X69527000Y11534750D01*
X69685750Y11376000D01*
X70415309Y11376000D01*
X70648698Y11472673D01*
X70827327Y11651301D01*
X70924000Y11884690D01*
X70924000Y12614250D01*
X70765250Y12773000D01*
X69527000Y12773000D01*
X69273000Y12773000D01*
X67827000Y12773000D01*
X67573000Y12773000D01*
X66334750Y12773000D01*
X66176000Y12614250D01*
X62627000Y12614250D01*
X62627000Y14314250D01*
X66176000Y14314250D01*
X66176000Y13185750D01*
X66334750Y13027000D01*
X67573000Y13027000D01*
X67573000Y14473000D01*
X67827000Y14473000D01*
X67827000Y13027000D01*
X69273000Y13027000D01*
X69273000Y14473000D01*
X69527000Y14473000D01*
X69527000Y13027000D01*
X70765250Y13027000D01*
X70924000Y13185750D01*
X70924000Y14314250D01*
X70765250Y14473000D01*
X69527000Y14473000D01*
X69273000Y14473000D01*
X67827000Y14473000D01*
X67573000Y14473000D01*
X66334750Y14473000D01*
X66176000Y14314250D01*
X62627000Y14314250D01*
X62627000Y15615310D01*
X66176000Y15615310D01*
X66176000Y14885750D01*
X66334750Y14727000D01*
X67573000Y14727000D01*
X67573000Y15965250D01*
X67827000Y15965250D01*
X67827000Y14727000D01*
X69273000Y14727000D01*
X69273000Y15965250D01*
X69527000Y15965250D01*
X69527000Y14727000D01*
X70765250Y14727000D01*
X70924000Y14885750D01*
X70924000Y15615310D01*
X70827327Y15848699D01*
X70648698Y16027327D01*
X70415309Y16124000D01*
X69685750Y16124000D01*
X69527000Y15965250D01*
X69273000Y15965250D01*
X69114250Y16124000D01*
X67985750Y16124000D01*
X67827000Y15965250D01*
X67573000Y15965250D01*
X67414250Y16124000D01*
X66684691Y16124000D01*
X66451302Y16027327D01*
X66272673Y15848699D01*
X66176000Y15615310D01*
X62627000Y15615310D01*
X62627000Y18873000D01*
X76873000Y18873000D01*
X76873000Y9627000D01*
G36*
X51623000Y37485000D02*
X50597008Y37485000D01*
X50500000Y37504296D01*
X50402992Y37485000D01*
X50402988Y37485000D01*
X50115672Y37427849D01*
X49872097Y37265098D01*
X49872095Y37265096D01*
X49789855Y37210145D01*
X49734904Y37127905D01*
X48872100Y36265100D01*
X48872097Y36265098D01*
X47734902Y35127902D01*
X47572151Y34884327D01*
X47495704Y34500000D01*
X47565000Y34151623D01*
X47565001Y29137291D01*
X46960708Y28532998D01*
X46955874Y28535000D01*
X46544126Y28535000D01*
X46163720Y28377431D01*
X45872569Y28086280D01*
X45715000Y27705874D01*
X45715000Y27294126D01*
X45872569Y26913720D01*
X45911289Y26875000D01*
X45872569Y26836280D01*
X45715000Y26455874D01*
X45715000Y26044126D01*
X45872569Y25663720D01*
X46163720Y25372569D01*
X46544126Y25215000D01*
X46955874Y25215000D01*
X47336280Y25372569D01*
X47627431Y25663720D01*
X47690093Y25814999D01*
X47817766Y25814999D01*
X47899999Y25798642D01*
X47965000Y25811571D01*
X47965000Y25794126D01*
X48122569Y25413720D01*
X48413720Y25122569D01*
X48794126Y24965000D01*
X49205874Y24965000D01*
X49586280Y25122569D01*
X49877431Y25413720D01*
X50035000Y25794126D01*
X50035000Y25854133D01*
X50345868Y26165000D01*
X51623000Y26165000D01*
X51623000Y17518373D01*
X51384328Y17677849D01*
X51220414Y17710454D01*
X50835000Y18095867D01*
X50835000Y19621289D01*
X50877431Y19663720D01*
X51035000Y20044126D01*
X51035000Y20455874D01*
X50877431Y20836280D01*
X50586280Y21127431D01*
X50205874Y21285000D01*
X49794126Y21285000D01*
X49413720Y21127431D01*
X49122569Y20836280D01*
X48965000Y20455874D01*
X48965000Y20044126D01*
X49122569Y19663720D01*
X49165001Y19621288D01*
X49165000Y17832233D01*
X49148643Y17750000D01*
X49165000Y17667767D01*
X49165000Y17667764D01*
X49213448Y17424200D01*
X49397999Y17147999D01*
X49467720Y17101413D01*
X49819132Y16750000D01*
X49554132Y16484999D01*
X47732231Y16484999D01*
X47649998Y16501356D01*
X47567765Y16484999D01*
X47567762Y16484999D01*
X47324198Y16436551D01*
X47097386Y16285000D01*
X47044126Y16285000D01*
X46663720Y16127431D01*
X46372569Y15836280D01*
X46215000Y15455874D01*
X46215000Y15044126D01*
X46372569Y14663720D01*
X46663720Y14372569D01*
X47044126Y14215000D01*
X47455874Y14215000D01*
X47836280Y14372569D01*
X48127431Y14663720D01*
X48190093Y14814999D01*
X48363754Y14814999D01*
X48215000Y14455874D01*
X48215000Y14044126D01*
X48372569Y13663720D01*
X48415000Y13621289D01*
X48415001Y11332238D01*
X48398643Y11250000D01*
X48463448Y10924200D01*
X48463449Y10924199D01*
X48530845Y10823334D01*
X48572151Y10615673D01*
X48734902Y10372098D01*
X51015001Y8091999D01*
X51015000Y7878000D01*
X48627902Y10265098D01*
X48384327Y10427849D01*
X48220415Y10460453D01*
X48035000Y10645867D01*
X48035000Y10705874D01*
X47877431Y11086280D01*
X47586280Y11377431D01*
X47205874Y11535000D01*
X46794126Y11535000D01*
X46413720Y11377431D01*
X46122569Y11086280D01*
X45965000Y10705874D01*
X45965000Y10294126D01*
X46122569Y9913720D01*
X46413720Y9622569D01*
X46794126Y9465000D01*
X46854133Y9465000D01*
X47039547Y9279585D01*
X47072151Y9115673D01*
X47234902Y8872098D01*
X50015001Y6091998D01*
X50015000Y3097008D01*
X49995704Y3000000D01*
X50015000Y2902992D01*
X50015000Y2902989D01*
X50072151Y2615673D01*
X50289855Y2289855D01*
X50372098Y2234902D01*
X51234904Y1372095D01*
X51289855Y1289855D01*
X51372095Y1234904D01*
X51372097Y1234902D01*
X51505544Y1145736D01*
X51615672Y1072151D01*
X51623000Y1070693D01*
X51623000Y735000D01*
X47923950Y735000D01*
X47972927Y867468D01*
X47000000Y1840395D01*
X46027073Y867468D01*
X46076050Y735000D01*
X6114352Y735000D01*
X6824822Y1445470D01*
X7377000Y2778545D01*
X7377000Y2964250D01*
X7555000Y2964250D01*
X7555000Y2123690D01*
X7651673Y1890301D01*
X7830302Y1711673D01*
X8063691Y1615000D01*
X8904250Y1615000D01*
X9063000Y1773750D01*
X9063000Y3123000D01*
X9317000Y3123000D01*
X9317000Y1773750D01*
X9475750Y1615000D01*
X10316309Y1615000D01*
X10460000Y1674519D01*
X10603691Y1615000D01*
X11444250Y1615000D01*
X11603000Y1773750D01*
X11603000Y3123000D01*
X11857000Y3123000D01*
X11857000Y1773750D01*
X12015750Y1615000D01*
X12856309Y1615000D01*
X13000000Y1674519D01*
X13143691Y1615000D01*
X13984250Y1615000D01*
X14143000Y1773750D01*
X14143000Y3123000D01*
X14397000Y3123000D01*
X14397000Y1773750D01*
X14555750Y1615000D01*
X15396309Y1615000D01*
X15540000Y1674519D01*
X15683691Y1615000D01*
X16524250Y1615000D01*
X16683000Y1773750D01*
X16683000Y3123000D01*
X16937000Y3123000D01*
X16937000Y1773750D01*
X17095750Y1615000D01*
X17936309Y1615000D01*
X18169698Y1711673D01*
X18348327Y1890301D01*
X18445000Y2123690D01*
X18445000Y2964250D01*
X18785000Y2964250D01*
X18785000Y2123690D01*
X18881673Y1890301D01*
X19060302Y1711673D01*
X19293691Y1615000D01*
X20134250Y1615000D01*
X20293000Y1773750D01*
X20293000Y3123000D01*
X20547000Y3123000D01*
X20547000Y1773750D01*
X20705750Y1615000D01*
X21546309Y1615000D01*
X21690000Y1674519D01*
X21833691Y1615000D01*
X22674250Y1615000D01*
X22833000Y1773750D01*
X22833000Y3123000D01*
X23087000Y3123000D01*
X23087000Y1773750D01*
X23245750Y1615000D01*
X24086309Y1615000D01*
X24230000Y1674519D01*
X24373691Y1615000D01*
X25214250Y1615000D01*
X25373000Y1773750D01*
X25373000Y3123000D01*
X25627000Y3123000D01*
X25627000Y1773750D01*
X25785750Y1615000D01*
X26626309Y1615000D01*
X26770000Y1674519D01*
X26913691Y1615000D01*
X27754250Y1615000D01*
X27913000Y1773750D01*
X27913000Y3123000D01*
X28167000Y3123000D01*
X28167000Y1773750D01*
X28325750Y1615000D01*
X29166309Y1615000D01*
X29399698Y1711673D01*
X29578327Y1890301D01*
X29675000Y2123690D01*
X29675000Y2284539D01*
X45354092Y2284539D01*
X45378144Y1634540D01*
X45580613Y1145736D01*
X45847468Y1047073D01*
X46820395Y2020000D01*
X47179605Y2020000D01*
X48152532Y1047073D01*
X48419387Y1145736D01*
X48645908Y1755461D01*
X48621856Y2405460D01*
X48419387Y2894264D01*
X48152532Y2992927D01*
X47179605Y2020000D01*
X46820395Y2020000D01*
X45847468Y2992927D01*
X45580613Y2894264D01*
X45354092Y2284539D01*
X29675000Y2284539D01*
X29675000Y2964250D01*
X29516250Y3123000D01*
X28167000Y3123000D01*
X27913000Y3123000D01*
X25627000Y3123000D01*
X25373000Y3123000D01*
X23087000Y3123000D01*
X22833000Y3123000D01*
X20547000Y3123000D01*
X20293000Y3123000D01*
X18943750Y3123000D01*
X18785000Y2964250D01*
X18445000Y2964250D01*
X18286250Y3123000D01*
X16937000Y3123000D01*
X16683000Y3123000D01*
X14397000Y3123000D01*
X14143000Y3123000D01*
X11857000Y3123000D01*
X11603000Y3123000D01*
X9317000Y3123000D01*
X9063000Y3123000D01*
X7713750Y3123000D01*
X7555000Y2964250D01*
X7377000Y2964250D01*
X7377000Y3172532D01*
X46027073Y3172532D01*
X47000000Y2199605D01*
X47972927Y3172532D01*
X47874264Y3439387D01*
X47264539Y3665908D01*
X46614540Y3641856D01*
X46125736Y3439387D01*
X46027073Y3172532D01*
X7377000Y3172532D01*
X7377000Y4221455D01*
X7312857Y4376310D01*
X7555000Y4376310D01*
X7555000Y3535750D01*
X7713750Y3377000D01*
X9063000Y3377000D01*
X9063000Y4726250D01*
X9317000Y4726250D01*
X9317000Y3377000D01*
X11603000Y3377000D01*
X11603000Y4726250D01*
X11857000Y4726250D01*
X11857000Y3377000D01*
X14143000Y3377000D01*
X14143000Y4726250D01*
X14397000Y4726250D01*
X14397000Y3377000D01*
X16683000Y3377000D01*
X16683000Y4726250D01*
X16937000Y4726250D01*
X16937000Y3377000D01*
X18286250Y3377000D01*
X18445000Y3535750D01*
X18445000Y4376310D01*
X18785000Y4376310D01*
X18785000Y3535750D01*
X18943750Y3377000D01*
X20293000Y3377000D01*
X20293000Y4726250D01*
X20547000Y4726250D01*
X20547000Y3377000D01*
X22833000Y3377000D01*
X22833000Y4726250D01*
X23087000Y4726250D01*
X23087000Y3377000D01*
X25373000Y3377000D01*
X25373000Y4726250D01*
X25627000Y4726250D01*
X25627000Y3377000D01*
X27913000Y3377000D01*
X27913000Y4726250D01*
X27754250Y4885000D01*
X26913691Y4885000D01*
X26770000Y4825481D01*
X26626309Y4885000D01*
X25785750Y4885000D01*
X25627000Y4726250D01*
X25373000Y4726250D01*
X25214250Y4885000D01*
X24373691Y4885000D01*
X24230000Y4825481D01*
X24086309Y4885000D01*
X23245750Y4885000D01*
X23087000Y4726250D01*
X22833000Y4726250D01*
X22674250Y4885000D01*
X21833691Y4885000D01*
X21690000Y4825481D01*
X21546309Y4885000D01*
X20705750Y4885000D01*
X20547000Y4726250D01*
X20293000Y4726250D01*
X20134250Y4885000D01*
X19293691Y4885000D01*
X19060302Y4788327D01*
X18881673Y4609699D01*
X18785000Y4376310D01*
X18445000Y4376310D01*
X18348327Y4609699D01*
X18169698Y4788327D01*
X17936309Y4885000D01*
X17095750Y4885000D01*
X16937000Y4726250D01*
X16683000Y4726250D01*
X16524250Y4885000D01*
X15683691Y4885000D01*
X15540000Y4825481D01*
X15396309Y4885000D01*
X14555750Y4885000D01*
X14397000Y4726250D01*
X14143000Y4726250D01*
X13984250Y4885000D01*
X13143691Y4885000D01*
X13000000Y4825481D01*
X12856309Y4885000D01*
X12015750Y4885000D01*
X11857000Y4726250D01*
X11603000Y4726250D01*
X11444250Y4885000D01*
X10603691Y4885000D01*
X10460000Y4825481D01*
X10316309Y4885000D01*
X9475750Y4885000D01*
X9317000Y4726250D01*
X9063000Y4726250D01*
X8904250Y4885000D01*
X8063691Y4885000D01*
X7830302Y4788327D01*
X7651673Y4609699D01*
X7555000Y4376310D01*
X7312857Y4376310D01*
X6824822Y5554530D01*
X5804530Y6574822D01*
X4471455Y7127000D01*
X3028545Y7127000D01*
X1695470Y6574822D01*
X985000Y5864352D01*
X985000Y22675222D01*
X1385000Y22675222D01*
X1385000Y22024778D01*
X1633914Y21423847D01*
X1977761Y21080000D01*
X1633914Y20736153D01*
X1385000Y20135222D01*
X1385000Y19484778D01*
X1633914Y18883847D01*
X1977761Y18540000D01*
X1633914Y18196153D01*
X1385000Y17595222D01*
X1385000Y16944778D01*
X1633914Y16343847D01*
X1977761Y16000000D01*
X1633914Y15656153D01*
X1385000Y15055222D01*
X1385000Y14404778D01*
X1633914Y13803847D01*
X1977761Y13460000D01*
X1633914Y13116153D01*
X1385000Y12515222D01*
X1385000Y11864778D01*
X1633914Y11263847D01*
X1977761Y10920000D01*
X1633914Y10576153D01*
X1385000Y9975222D01*
X1385000Y9324778D01*
X1633914Y8723847D01*
X2093847Y8263914D01*
X2694778Y8015000D01*
X3345222Y8015000D01*
X3946153Y8263914D01*
X4406086Y8723847D01*
X4655000Y9324778D01*
X4655000Y9975222D01*
X4617243Y10066375D01*
X4668583Y10117715D01*
X4668585Y10117718D01*
X6032285Y11481416D01*
X6102001Y11527999D01*
X6286552Y11804199D01*
X6335000Y12047763D01*
X6335000Y12047766D01*
X6351357Y12129999D01*
X6335000Y12212232D01*
X6335000Y13404133D01*
X6483578Y13552711D01*
X6663720Y13372569D01*
X7044126Y13215000D01*
X7104133Y13215000D01*
X8251426Y12067706D01*
X8298010Y11997988D01*
X8574192Y11813449D01*
X8574210Y11813437D01*
X8900011Y11748631D01*
X8982248Y11764989D01*
X29409857Y11764989D01*
X28276480Y10631611D01*
X28181712Y10568289D01*
X28059242Y10385000D01*
X15361783Y10385000D01*
X15250000Y10407235D01*
X15138217Y10385000D01*
X14807145Y10319146D01*
X14431711Y10068289D01*
X14368387Y9973518D01*
X13868392Y9473523D01*
X13680854Y9192854D01*
X13592765Y8750000D01*
X13680854Y8307146D01*
X13931712Y7931712D01*
X14307146Y7680854D01*
X14750000Y7592765D01*
X15192854Y7680854D01*
X15473523Y7868392D01*
X15720131Y8115000D01*
X28529869Y8115000D01*
X29365000Y7279868D01*
X29365001Y5361788D01*
X29342765Y5250000D01*
X29430854Y4807146D01*
X29430855Y4807145D01*
X29531487Y4656539D01*
X29399698Y4788327D01*
X29166309Y4885000D01*
X28325750Y4885000D01*
X28167000Y4726250D01*
X28167000Y3377000D01*
X29516250Y3377000D01*
X29675000Y3535750D01*
X29675000Y4376310D01*
X29603677Y4548498D01*
X29681712Y4431711D01*
X29776480Y4368389D01*
X30026477Y4118392D01*
X30307146Y3930855D01*
X30749999Y3842765D01*
X31192854Y3930855D01*
X31568288Y4181712D01*
X31819145Y4557146D01*
X31907235Y5000001D01*
X31819145Y5442854D01*
X31635000Y5718447D01*
X31635000Y7638219D01*
X31657235Y7750001D01*
X31633685Y7868392D01*
X31569146Y8192855D01*
X31318289Y8568289D01*
X31223521Y8631611D01*
X30355131Y9500000D01*
X30970132Y10115000D01*
X32611783Y10115000D01*
X32942855Y10180854D01*
X33318289Y10431711D01*
X33569146Y10807145D01*
X33657235Y11250000D01*
X33569146Y11692855D01*
X33560447Y11705874D01*
X40965000Y11705874D01*
X40965000Y11294126D01*
X41122569Y10913720D01*
X41165000Y10871289D01*
X41165001Y9832238D01*
X41148643Y9750000D01*
X41213448Y9424200D01*
X41279196Y9325801D01*
X41398000Y9147999D01*
X41467718Y9101415D01*
X41552711Y9016422D01*
X41372569Y8836280D01*
X41215000Y8455874D01*
X41215000Y8044126D01*
X41372569Y7663720D01*
X41663720Y7372569D01*
X42044126Y7215000D01*
X42455874Y7215000D01*
X42836280Y7372569D01*
X43127431Y7663720D01*
X43285000Y8044126D01*
X43285000Y8104132D01*
X43345868Y8165000D01*
X44917763Y8165000D01*
X45000000Y8148642D01*
X45082237Y8165000D01*
X45325801Y8213448D01*
X45602001Y8397999D01*
X45786552Y8674199D01*
X45851358Y9000000D01*
X45835000Y9082237D01*
X45835000Y19102083D01*
X45851357Y19184316D01*
X45835000Y19266551D01*
X45835000Y19266552D01*
X45786552Y19510116D01*
X45602001Y19786316D01*
X45532283Y19832900D01*
X43972337Y21392845D01*
X43993586Y21444145D01*
X44371599Y21287567D01*
X44431606Y21287567D01*
X44501453Y21217720D01*
X44548039Y21147999D01*
X44824239Y20963448D01*
X45067803Y20915000D01*
X45067806Y20915000D01*
X45150039Y20898643D01*
X45232272Y20915000D01*
X47121289Y20915000D01*
X47163720Y20872569D01*
X47544126Y20715000D01*
X47955874Y20715000D01*
X48336280Y20872569D01*
X48627431Y21163720D01*
X48785000Y21544126D01*
X48785000Y21955874D01*
X48627431Y22336280D01*
X48336280Y22627431D01*
X47955874Y22785000D01*
X47544126Y22785000D01*
X47163720Y22627431D01*
X47121289Y22585000D01*
X45589046Y22585000D01*
X45454904Y22908847D01*
X45163753Y23199998D01*
X44783347Y23357567D01*
X44371599Y23357567D01*
X43991193Y23199998D01*
X43700042Y22908847D01*
X43583887Y22628422D01*
X43205874Y22785000D01*
X42794126Y22785000D01*
X42413720Y22627431D01*
X42122569Y22336280D01*
X41965000Y21955874D01*
X41965000Y21544126D01*
X42122569Y21163720D01*
X42160231Y21126058D01*
X42165000Y21102082D01*
X42165000Y21102078D01*
X42213448Y20858514D01*
X42398000Y20582314D01*
X42467718Y20535730D01*
X43885926Y19117522D01*
X43542082Y19259946D01*
X43130334Y19259946D01*
X42749928Y19102377D01*
X42458777Y18811226D01*
X42301208Y18430820D01*
X42301208Y18345880D01*
X42213448Y18214538D01*
X42148643Y17888738D01*
X42165001Y17806500D01*
X42165000Y13878711D01*
X42122569Y13836280D01*
X41965000Y13455874D01*
X41965000Y13044126D01*
X42122569Y12663720D01*
X42283402Y12502887D01*
X42205874Y12535000D01*
X41794126Y12535000D01*
X41413720Y12377431D01*
X41122569Y12086280D01*
X40965000Y11705874D01*
X33560447Y11705874D01*
X33335000Y12043279D01*
X33335000Y13483761D01*
X33351358Y13565998D01*
X33321023Y13718503D01*
X33356031Y13683495D01*
X33736437Y13525926D01*
X33796444Y13525926D01*
X35104652Y12217718D01*
X35151236Y12147999D01*
X35427436Y11963448D01*
X35671000Y11915000D01*
X35671003Y11915000D01*
X35753236Y11898643D01*
X35835469Y11915000D01*
X36871289Y11915000D01*
X36913720Y11872569D01*
X37294126Y11715000D01*
X37705874Y11715000D01*
X38086280Y11872569D01*
X38377431Y12163720D01*
X38535000Y12544126D01*
X38535000Y12955874D01*
X38377431Y13336280D01*
X38086280Y13627431D01*
X37705874Y13785000D01*
X37294126Y13785000D01*
X36913720Y13627431D01*
X36871289Y13585000D01*
X36099105Y13585000D01*
X34977311Y14706793D01*
X34977311Y14766800D01*
X34819742Y15147206D01*
X34528591Y15438357D01*
X34148185Y15595926D01*
X33736437Y15595926D01*
X33641663Y15556669D01*
X33718769Y15742821D01*
X33718769Y16154569D01*
X33561200Y16534975D01*
X33270049Y16826126D01*
X33035000Y16923486D01*
X33035000Y16955874D01*
X33009510Y17017412D01*
X33124762Y17132664D01*
X33282331Y17513070D01*
X33282331Y17808006D01*
X33523895Y18049570D01*
X33671963Y18407039D01*
X33901348Y18502053D01*
X34192499Y18793204D01*
X34350068Y19173610D01*
X34350068Y19585358D01*
X34192499Y19965764D01*
X33901348Y20256915D01*
X33520942Y20414484D01*
X33467682Y20414484D01*
X33240870Y20566035D01*
X32997306Y20614483D01*
X32997302Y20614483D01*
X32915069Y20630840D01*
X32832836Y20614483D01*
X10710590Y20614483D01*
X10785000Y20794126D01*
X10785000Y21205874D01*
X10750647Y21288810D01*
X35895000Y21288810D01*
X35895000Y20898250D01*
X36053750Y20739500D01*
X36399466Y20739500D01*
X36170302Y20644577D01*
X35991673Y20465949D01*
X35961603Y20393353D01*
X35895000Y20326750D01*
X35895000Y19842000D01*
X35961603Y19775397D01*
X35991673Y19702801D01*
X36138225Y19556250D01*
X35991673Y19409699D01*
X35961603Y19337103D01*
X35895000Y19270500D01*
X35895000Y18785750D01*
X35961603Y18719147D01*
X35991673Y18646551D01*
X36138225Y18500000D01*
X35991673Y18353449D01*
X35961603Y18280853D01*
X35895000Y18214250D01*
X35895000Y17729500D01*
X35961603Y17662897D01*
X35991673Y17590301D01*
X36138225Y17443750D01*
X35991673Y17297199D01*
X35961603Y17224603D01*
X35895000Y17158000D01*
X35895000Y16673250D01*
X35961603Y16606647D01*
X35991673Y16534051D01*
X36138225Y16387500D01*
X35991673Y16240949D01*
X35961603Y16168353D01*
X35895000Y16101750D01*
X35895000Y15617000D01*
X35961603Y15550397D01*
X35991673Y15477801D01*
X36170302Y15299173D01*
X36399466Y15204250D01*
X36053750Y15204250D01*
X35895000Y15045500D01*
X35895000Y14654940D01*
X35991673Y14421551D01*
X36170302Y14242923D01*
X36403691Y14146250D01*
X36689250Y14146250D01*
X36848000Y14305000D01*
X36848000Y14415224D01*
X37020302Y14242923D01*
X37253691Y14146250D01*
X37546309Y14146250D01*
X37779698Y14242923D01*
X37825000Y14288225D01*
X37870302Y14242923D01*
X38103691Y14146250D01*
X38396309Y14146250D01*
X38629698Y14242923D01*
X38675000Y14288225D01*
X38720302Y14242923D01*
X38953691Y14146250D01*
X39246309Y14146250D01*
X39479698Y14242923D01*
X39652000Y14415224D01*
X39652000Y14305000D01*
X39810750Y14146250D01*
X40096309Y14146250D01*
X40329698Y14242923D01*
X40508327Y14421551D01*
X40605000Y14654940D01*
X40605000Y15045500D01*
X40446250Y15204250D01*
X40100534Y15204250D01*
X40329698Y15299173D01*
X40508327Y15477801D01*
X40538397Y15550397D01*
X40605000Y15617000D01*
X40605000Y16101750D01*
X40538397Y16168353D01*
X40508327Y16240949D01*
X40361775Y16387500D01*
X40508327Y16534051D01*
X40538397Y16606647D01*
X40605000Y16673250D01*
X40605000Y17158000D01*
X40538397Y17224603D01*
X40508327Y17297199D01*
X40361775Y17443750D01*
X40508327Y17590301D01*
X40538397Y17662897D01*
X40605000Y17729500D01*
X40605000Y18214250D01*
X40538397Y18280853D01*
X40508327Y18353449D01*
X40361775Y18500000D01*
X40508327Y18646551D01*
X40538397Y18719147D01*
X40605000Y18785750D01*
X40605000Y19270500D01*
X40538397Y19337103D01*
X40508327Y19409699D01*
X40361775Y19556250D01*
X40508327Y19702801D01*
X40538397Y19775397D01*
X40605000Y19842000D01*
X40605000Y20326750D01*
X40538397Y20393353D01*
X40508327Y20465949D01*
X40329698Y20644577D01*
X40100534Y20739500D01*
X40446250Y20739500D01*
X40605000Y20898250D01*
X40605000Y21288810D01*
X40508327Y21522199D01*
X40329698Y21700827D01*
X40096309Y21797500D01*
X39810750Y21797500D01*
X39652000Y21638750D01*
X39652000Y21528526D01*
X39479698Y21700827D01*
X39246309Y21797500D01*
X38953691Y21797500D01*
X38720302Y21700827D01*
X38675000Y21655525D01*
X38629698Y21700827D01*
X38396309Y21797500D01*
X38103691Y21797500D01*
X37870302Y21700827D01*
X37825000Y21655525D01*
X37779698Y21700827D01*
X37546309Y21797500D01*
X37253691Y21797500D01*
X37020302Y21700827D01*
X36848000Y21528526D01*
X36848000Y21638750D01*
X36689250Y21797500D01*
X36403691Y21797500D01*
X36170302Y21700827D01*
X35991673Y21522199D01*
X35895000Y21288810D01*
X10750647Y21288810D01*
X10627431Y21586280D01*
X10600880Y21612831D01*
X10942854Y21680854D01*
X11318288Y21931712D01*
X11569146Y22307146D01*
X11657235Y22750000D01*
X11569146Y23192855D01*
X11381608Y23473523D01*
X11135000Y23720131D01*
X11135000Y23750000D01*
X12194724Y23750000D01*
X12215000Y23648066D01*
X12215000Y23544126D01*
X12254776Y23448098D01*
X12275052Y23346164D01*
X12332792Y23259750D01*
X12372569Y23163720D01*
X12446069Y23090220D01*
X12503808Y23003808D01*
X12590220Y22946069D01*
X12663720Y22872569D01*
X12759750Y22832792D01*
X12846164Y22775052D01*
X12948098Y22754776D01*
X13044126Y22715000D01*
X13148066Y22715000D01*
X13250000Y22694724D01*
X13351934Y22715000D01*
X13455874Y22715000D01*
X13551902Y22754776D01*
X13653836Y22775052D01*
X13740250Y22832792D01*
X13836280Y22872569D01*
X15159776Y24196065D01*
X15246193Y24253807D01*
X15474948Y24596163D01*
X15535000Y24898065D01*
X15555276Y25000000D01*
X15535000Y25101934D01*
X15535000Y28455874D01*
X15495224Y28551901D01*
X15474948Y28653837D01*
X15417207Y28740253D01*
X15377431Y28836280D01*
X15303935Y28909776D01*
X15246193Y28996193D01*
X15159777Y29053934D01*
X15086280Y29127431D01*
X14990251Y29167207D01*
X14903836Y29224948D01*
X14801902Y29245224D01*
X14705874Y29285000D01*
X14601934Y29285000D01*
X14500000Y29305276D01*
X14398065Y29285000D01*
X14294126Y29285000D01*
X14198098Y29245224D01*
X14096163Y29224948D01*
X14009747Y29167207D01*
X13913720Y29127431D01*
X13840224Y29053935D01*
X13753807Y28996193D01*
X13696066Y28909777D01*
X13622569Y28836280D01*
X13582793Y28740251D01*
X13525052Y28653836D01*
X13504776Y28551902D01*
X13465000Y28455874D01*
X13465000Y28351934D01*
X13465001Y25428712D01*
X12372569Y24336280D01*
X12332792Y24240250D01*
X12275052Y24153836D01*
X12254776Y24051902D01*
X12215000Y23955874D01*
X12215000Y23851934D01*
X12194724Y23750000D01*
X11135000Y23750000D01*
X11135000Y26279869D01*
X13131609Y28276476D01*
X13319146Y28557145D01*
X13407235Y29000000D01*
X13319146Y29442854D01*
X13068289Y29818289D01*
X12692854Y30069146D01*
X12250000Y30157235D01*
X11807145Y30069146D01*
X11526476Y29881609D01*
X9276479Y27631611D01*
X9181712Y27568289D01*
X9019687Y27325801D01*
X8930854Y27192854D01*
X8842765Y26750000D01*
X8865001Y26638212D01*
X8865000Y23361783D01*
X8842765Y23250000D01*
X8917841Y22872569D01*
X8930854Y22807146D01*
X9181711Y22431711D01*
X9276482Y22368387D01*
X9609869Y22035000D01*
X9544126Y22035000D01*
X9163720Y21877431D01*
X9121289Y21835000D01*
X6128711Y21835000D01*
X6086280Y21877431D01*
X5705874Y22035000D01*
X5294126Y22035000D01*
X4913720Y21877431D01*
X4622569Y21586280D01*
X4465000Y21205874D01*
X4465000Y20794126D01*
X4622569Y20413720D01*
X4802711Y20233578D01*
X4655000Y20085868D01*
X4655000Y20135222D01*
X4406086Y20736153D01*
X4062239Y21080000D01*
X4406086Y21423847D01*
X4655000Y22024778D01*
X4655000Y22675222D01*
X4406086Y23276153D01*
X3946153Y23736086D01*
X3345222Y23985000D01*
X2694778Y23985000D01*
X2093847Y23736086D01*
X1633914Y23276153D01*
X1385000Y22675222D01*
X985000Y22675222D01*
X985000Y33635648D01*
X1695470Y32925178D01*
X3028545Y32373000D01*
X4471455Y32373000D01*
X5804530Y32925178D01*
X6824822Y33945470D01*
X7317542Y35135000D01*
X7904250Y35135000D01*
X8063000Y35293750D01*
X8063000Y36643000D01*
X8043000Y36643000D01*
X8043000Y36897000D01*
X8063000Y36897000D01*
X8063000Y38246250D01*
X8317000Y38246250D01*
X8317000Y36897000D01*
X8337000Y36897000D01*
X8337000Y36643000D01*
X8317000Y36643000D01*
X8317000Y35293750D01*
X8475750Y35135000D01*
X9316309Y35135000D01*
X9549698Y35231673D01*
X9728327Y35410301D01*
X9742718Y35445043D01*
X9803847Y35383914D01*
X10404778Y35135000D01*
X11055222Y35135000D01*
X11656153Y35383914D01*
X11717282Y35445043D01*
X11731673Y35410301D01*
X11910302Y35231673D01*
X12143691Y35135000D01*
X12181993Y35135000D01*
X12163720Y35127431D01*
X12090224Y35053935D01*
X12003807Y34996193D01*
X11946065Y34909776D01*
X11872569Y34836280D01*
X11832793Y34740253D01*
X11775052Y34653837D01*
X11754776Y34551902D01*
X11715000Y34455874D01*
X11715000Y34351935D01*
X11694724Y34250000D01*
X11715000Y34148065D01*
X11715000Y34044126D01*
X11754776Y33948098D01*
X11775052Y33846163D01*
X11832793Y33759747D01*
X11872569Y33663720D01*
X11946065Y33590224D01*
X12003807Y33503807D01*
X12090224Y33446065D01*
X12163720Y33372569D01*
X12259747Y33332793D01*
X12346163Y33275052D01*
X12448099Y33254776D01*
X12544126Y33215000D01*
X14571290Y33215000D01*
X15872569Y31913720D01*
X16163720Y31622569D01*
X16259747Y31582793D01*
X16346163Y31525052D01*
X16448098Y31504776D01*
X16544126Y31465000D01*
X16648065Y31465000D01*
X16750000Y31444724D01*
X16851934Y31465000D01*
X16955874Y31465000D01*
X17051902Y31504776D01*
X17153836Y31525052D01*
X17240251Y31582793D01*
X17336280Y31622569D01*
X17409777Y31696066D01*
X17496193Y31753807D01*
X17553934Y31840223D01*
X17627431Y31913720D01*
X17667207Y32009749D01*
X17724948Y32096164D01*
X17745224Y32198098D01*
X17785000Y32294126D01*
X17785000Y32398066D01*
X17805276Y32500000D01*
X17785000Y32601935D01*
X17785000Y32705874D01*
X17745224Y32801902D01*
X17724948Y32903837D01*
X17667207Y32990253D01*
X17627431Y33086280D01*
X17336280Y33377431D01*
X15803937Y34909773D01*
X15746193Y34996193D01*
X15538454Y35135000D01*
X16135222Y35135000D01*
X16736153Y35383914D01*
X17196086Y35843847D01*
X17235858Y35939865D01*
X17283914Y35823847D01*
X17743847Y35363914D01*
X18344778Y35115000D01*
X18995222Y35115000D01*
X19596153Y35363914D01*
X19940000Y35707761D01*
X20283847Y35363914D01*
X20884778Y35115000D01*
X21535222Y35115000D01*
X22136153Y35363914D01*
X22480000Y35707761D01*
X22823847Y35363914D01*
X23408169Y35121880D01*
X23372569Y35086280D01*
X23332793Y34990251D01*
X23275052Y34903836D01*
X23254776Y34801902D01*
X23215000Y34705874D01*
X23215000Y34601934D01*
X23215001Y33101939D01*
X23194724Y33000000D01*
X23275052Y32596164D01*
X23424166Y32373000D01*
X23503808Y32253807D01*
X23590225Y32196065D01*
X27622569Y28163720D01*
X27913720Y27872569D01*
X28009747Y27832793D01*
X28096163Y27775052D01*
X28198098Y27754776D01*
X28294126Y27715000D01*
X28398065Y27715000D01*
X28500000Y27694724D01*
X28601934Y27715000D01*
X28705874Y27715000D01*
X28801902Y27754776D01*
X28903836Y27775052D01*
X28990251Y27832793D01*
X29086280Y27872569D01*
X29159777Y27946066D01*
X29246193Y28003807D01*
X29303934Y28090223D01*
X29377431Y28163720D01*
X29417207Y28259749D01*
X29474948Y28346164D01*
X29495224Y28448098D01*
X29535000Y28544126D01*
X29535000Y28648066D01*
X29555276Y28750000D01*
X29535000Y28851935D01*
X29535000Y28955874D01*
X29495224Y29051902D01*
X29474948Y29153837D01*
X29417207Y29240253D01*
X29377431Y29336280D01*
X29086280Y29627431D01*
X25285000Y33428710D01*
X25285000Y34705874D01*
X25245224Y34801901D01*
X25224948Y34903837D01*
X25167207Y34990253D01*
X25127431Y35086280D01*
X25053935Y35159776D01*
X24996193Y35246193D01*
X24909777Y35303934D01*
X24836280Y35377431D01*
X24740251Y35417207D01*
X24733774Y35421535D01*
X25020000Y35707761D01*
X25363847Y35363914D01*
X25964778Y35115000D01*
X26615222Y35115000D01*
X27216153Y35363914D01*
X27625000Y35772761D01*
X28033847Y35363914D01*
X28634778Y35115000D01*
X29285222Y35115000D01*
X29886153Y35363914D01*
X30230000Y35707761D01*
X30573847Y35363914D01*
X31174778Y35115000D01*
X31825222Y35115000D01*
X32381854Y35345565D01*
X32122569Y35086280D01*
X31965000Y34705874D01*
X31965000Y34294126D01*
X32122569Y33913720D01*
X32413720Y33622569D01*
X32794126Y33465000D01*
X33205874Y33465000D01*
X33586280Y33622569D01*
X33877431Y33913720D01*
X34035000Y34294126D01*
X34035000Y34705874D01*
X33877431Y35086280D01*
X33848711Y35115000D01*
X34365222Y35115000D01*
X34966153Y35363914D01*
X35310000Y35707761D01*
X35653847Y35363914D01*
X36254778Y35115000D01*
X36905222Y35115000D01*
X37506153Y35363914D01*
X37966086Y35823847D01*
X38215000Y36424778D01*
X38215000Y37075222D01*
X37966086Y37676153D01*
X37506153Y38136086D01*
X36905222Y38385000D01*
X36254778Y38385000D01*
X35653847Y38136086D01*
X35310000Y37792239D01*
X34966153Y38136086D01*
X34365222Y38385000D01*
X33714778Y38385000D01*
X33113847Y38136086D01*
X32770000Y37792239D01*
X32426153Y38136086D01*
X31825222Y38385000D01*
X31174778Y38385000D01*
X30573847Y38136086D01*
X30230000Y37792239D01*
X29886153Y38136086D01*
X29285222Y38385000D01*
X28634778Y38385000D01*
X28033847Y38136086D01*
X27625000Y37727239D01*
X27216153Y38136086D01*
X26615222Y38385000D01*
X25964778Y38385000D01*
X25363847Y38136086D01*
X25020000Y37792239D01*
X24676153Y38136086D01*
X24075222Y38385000D01*
X23424778Y38385000D01*
X22823847Y38136086D01*
X22480000Y37792239D01*
X22136153Y38136086D01*
X21535222Y38385000D01*
X20884778Y38385000D01*
X20283847Y38136086D01*
X19940000Y37792239D01*
X19596153Y38136086D01*
X18995222Y38385000D01*
X18344778Y38385000D01*
X17743847Y38136086D01*
X17283914Y37676153D01*
X17244142Y37580135D01*
X17196086Y37696153D01*
X16736153Y38156086D01*
X16135222Y38405000D01*
X15484778Y38405000D01*
X14883847Y38156086D01*
X14822718Y38094957D01*
X14808327Y38129699D01*
X14629698Y38308327D01*
X14396309Y38405000D01*
X13555750Y38405000D01*
X13397000Y38246250D01*
X13397000Y36897000D01*
X13417000Y36897000D01*
X13417000Y36643000D01*
X13397000Y36643000D01*
X13397000Y36623000D01*
X13143000Y36623000D01*
X13143000Y36643000D01*
X13123000Y36643000D01*
X13123000Y36897000D01*
X13143000Y36897000D01*
X13143000Y38246250D01*
X12984250Y38405000D01*
X12143691Y38405000D01*
X11910302Y38308327D01*
X11731673Y38129699D01*
X11717282Y38094957D01*
X11656153Y38156086D01*
X11055222Y38405000D01*
X10404778Y38405000D01*
X9803847Y38156086D01*
X9742718Y38094957D01*
X9728327Y38129699D01*
X9549698Y38308327D01*
X9316309Y38405000D01*
X8475750Y38405000D01*
X8317000Y38246250D01*
X8063000Y38246250D01*
X7904250Y38405000D01*
X7063691Y38405000D01*
X6830302Y38308327D01*
X6700663Y38178689D01*
X5804530Y39074822D01*
X4471455Y39627000D01*
X3028545Y39627000D01*
X1695470Y39074822D01*
X985000Y38364352D01*
X985000Y40015000D01*
X51623000Y40015000D01*
X51623000Y37485000D01*
X51623000Y37485000D01*
G37*
X51623000Y37485000D02*
X50597008Y37485000D01*
X50500000Y37504296D01*
X50402992Y37485000D01*
X50402988Y37485000D01*
X50115672Y37427849D01*
X49872097Y37265098D01*
X49872095Y37265096D01*
X49789855Y37210145D01*
X49734904Y37127905D01*
X48872100Y36265100D01*
X48872097Y36265098D01*
X47734902Y35127902D01*
X47572151Y34884327D01*
X47495704Y34500000D01*
X47565000Y34151623D01*
X47565001Y29137291D01*
X46960708Y28532998D01*
X46955874Y28535000D01*
X46544126Y28535000D01*
X46163720Y28377431D01*
X45872569Y28086280D01*
X45715000Y27705874D01*
X45715000Y27294126D01*
X45872569Y26913720D01*
X45911289Y26875000D01*
X45872569Y26836280D01*
X45715000Y26455874D01*
X45715000Y26044126D01*
X45872569Y25663720D01*
X46163720Y25372569D01*
X46544126Y25215000D01*
X46955874Y25215000D01*
X47336280Y25372569D01*
X47627431Y25663720D01*
X47690093Y25814999D01*
X47817766Y25814999D01*
X47899999Y25798642D01*
X47965000Y25811571D01*
X47965000Y25794126D01*
X48122569Y25413720D01*
X48413720Y25122569D01*
X48794126Y24965000D01*
X49205874Y24965000D01*
X49586280Y25122569D01*
X49877431Y25413720D01*
X50035000Y25794126D01*
X50035000Y25854133D01*
X50345868Y26165000D01*
X51623000Y26165000D01*
X51623000Y17518373D01*
X51384328Y17677849D01*
X51220414Y17710454D01*
X50835000Y18095867D01*
X50835000Y19621289D01*
X50877431Y19663720D01*
X51035000Y20044126D01*
X51035000Y20455874D01*
X50877431Y20836280D01*
X50586280Y21127431D01*
X50205874Y21285000D01*
X49794126Y21285000D01*
X49413720Y21127431D01*
X49122569Y20836280D01*
X48965000Y20455874D01*
X48965000Y20044126D01*
X49122569Y19663720D01*
X49165001Y19621288D01*
X49165000Y17832233D01*
X49148643Y17750000D01*
X49165000Y17667767D01*
X49165000Y17667764D01*
X49213448Y17424200D01*
X49397999Y17147999D01*
X49467720Y17101413D01*
X49819132Y16750000D01*
X49554132Y16484999D01*
X47732231Y16484999D01*
X47649998Y16501356D01*
X47567765Y16484999D01*
X47567762Y16484999D01*
X47324198Y16436551D01*
X47097386Y16285000D01*
X47044126Y16285000D01*
X46663720Y16127431D01*
X46372569Y15836280D01*
X46215000Y15455874D01*
X46215000Y15044126D01*
X46372569Y14663720D01*
X46663720Y14372569D01*
X47044126Y14215000D01*
X47455874Y14215000D01*
X47836280Y14372569D01*
X48127431Y14663720D01*
X48190093Y14814999D01*
X48363754Y14814999D01*
X48215000Y14455874D01*
X48215000Y14044126D01*
X48372569Y13663720D01*
X48415000Y13621289D01*
X48415001Y11332238D01*
X48398643Y11250000D01*
X48463448Y10924200D01*
X48463449Y10924199D01*
X48530845Y10823334D01*
X48572151Y10615673D01*
X48734902Y10372098D01*
X51015001Y8091999D01*
X51015000Y7878000D01*
X48627902Y10265098D01*
X48384327Y10427849D01*
X48220415Y10460453D01*
X48035000Y10645867D01*
X48035000Y10705874D01*
X47877431Y11086280D01*
X47586280Y11377431D01*
X47205874Y11535000D01*
X46794126Y11535000D01*
X46413720Y11377431D01*
X46122569Y11086280D01*
X45965000Y10705874D01*
X45965000Y10294126D01*
X46122569Y9913720D01*
X46413720Y9622569D01*
X46794126Y9465000D01*
X46854133Y9465000D01*
X47039547Y9279585D01*
X47072151Y9115673D01*
X47234902Y8872098D01*
X50015001Y6091998D01*
X50015000Y3097008D01*
X49995704Y3000000D01*
X50015000Y2902992D01*
X50015000Y2902989D01*
X50072151Y2615673D01*
X50289855Y2289855D01*
X50372098Y2234902D01*
X51234904Y1372095D01*
X51289855Y1289855D01*
X51372095Y1234904D01*
X51372097Y1234902D01*
X51505544Y1145736D01*
X51615672Y1072151D01*
X51623000Y1070693D01*
X51623000Y735000D01*
X47923950Y735000D01*
X47972927Y867468D01*
X47000000Y1840395D01*
X46027073Y867468D01*
X46076050Y735000D01*
X6114352Y735000D01*
X6824822Y1445470D01*
X7377000Y2778545D01*
X7377000Y2964250D01*
X7555000Y2964250D01*
X7555000Y2123690D01*
X7651673Y1890301D01*
X7830302Y1711673D01*
X8063691Y1615000D01*
X8904250Y1615000D01*
X9063000Y1773750D01*
X9063000Y3123000D01*
X9317000Y3123000D01*
X9317000Y1773750D01*
X9475750Y1615000D01*
X10316309Y1615000D01*
X10460000Y1674519D01*
X10603691Y1615000D01*
X11444250Y1615000D01*
X11603000Y1773750D01*
X11603000Y3123000D01*
X11857000Y3123000D01*
X11857000Y1773750D01*
X12015750Y1615000D01*
X12856309Y1615000D01*
X13000000Y1674519D01*
X13143691Y1615000D01*
X13984250Y1615000D01*
X14143000Y1773750D01*
X14143000Y3123000D01*
X14397000Y3123000D01*
X14397000Y1773750D01*
X14555750Y1615000D01*
X15396309Y1615000D01*
X15540000Y1674519D01*
X15683691Y1615000D01*
X16524250Y1615000D01*
X16683000Y1773750D01*
X16683000Y3123000D01*
X16937000Y3123000D01*
X16937000Y1773750D01*
X17095750Y1615000D01*
X17936309Y1615000D01*
X18169698Y1711673D01*
X18348327Y1890301D01*
X18445000Y2123690D01*
X18445000Y2964250D01*
X18785000Y2964250D01*
X18785000Y2123690D01*
X18881673Y1890301D01*
X19060302Y1711673D01*
X19293691Y1615000D01*
X20134250Y1615000D01*
X20293000Y1773750D01*
X20293000Y3123000D01*
X20547000Y3123000D01*
X20547000Y1773750D01*
X20705750Y1615000D01*
X21546309Y1615000D01*
X21690000Y1674519D01*
X21833691Y1615000D01*
X22674250Y1615000D01*
X22833000Y1773750D01*
X22833000Y3123000D01*
X23087000Y3123000D01*
X23087000Y1773750D01*
X23245750Y1615000D01*
X24086309Y1615000D01*
X24230000Y1674519D01*
X24373691Y1615000D01*
X25214250Y1615000D01*
X25373000Y1773750D01*
X25373000Y3123000D01*
X25627000Y3123000D01*
X25627000Y1773750D01*
X25785750Y1615000D01*
X26626309Y1615000D01*
X26770000Y1674519D01*
X26913691Y1615000D01*
X27754250Y1615000D01*
X27913000Y1773750D01*
X27913000Y3123000D01*
X28167000Y3123000D01*
X28167000Y1773750D01*
X28325750Y1615000D01*
X29166309Y1615000D01*
X29399698Y1711673D01*
X29578327Y1890301D01*
X29675000Y2123690D01*
X29675000Y2284539D01*
X45354092Y2284539D01*
X45378144Y1634540D01*
X45580613Y1145736D01*
X45847468Y1047073D01*
X46820395Y2020000D01*
X47179605Y2020000D01*
X48152532Y1047073D01*
X48419387Y1145736D01*
X48645908Y1755461D01*
X48621856Y2405460D01*
X48419387Y2894264D01*
X48152532Y2992927D01*
X47179605Y2020000D01*
X46820395Y2020000D01*
X45847468Y2992927D01*
X45580613Y2894264D01*
X45354092Y2284539D01*
X29675000Y2284539D01*
X29675000Y2964250D01*
X29516250Y3123000D01*
X28167000Y3123000D01*
X27913000Y3123000D01*
X25627000Y3123000D01*
X25373000Y3123000D01*
X23087000Y3123000D01*
X22833000Y3123000D01*
X20547000Y3123000D01*
X20293000Y3123000D01*
X18943750Y3123000D01*
X18785000Y2964250D01*
X18445000Y2964250D01*
X18286250Y3123000D01*
X16937000Y3123000D01*
X16683000Y3123000D01*
X14397000Y3123000D01*
X14143000Y3123000D01*
X11857000Y3123000D01*
X11603000Y3123000D01*
X9317000Y3123000D01*
X9063000Y3123000D01*
X7713750Y3123000D01*
X7555000Y2964250D01*
X7377000Y2964250D01*
X7377000Y3172532D01*
X46027073Y3172532D01*
X47000000Y2199605D01*
X47972927Y3172532D01*
X47874264Y3439387D01*
X47264539Y3665908D01*
X46614540Y3641856D01*
X46125736Y3439387D01*
X46027073Y3172532D01*
X7377000Y3172532D01*
X7377000Y4221455D01*
X7312857Y4376310D01*
X7555000Y4376310D01*
X7555000Y3535750D01*
X7713750Y3377000D01*
X9063000Y3377000D01*
X9063000Y4726250D01*
X9317000Y4726250D01*
X9317000Y3377000D01*
X11603000Y3377000D01*
X11603000Y4726250D01*
X11857000Y4726250D01*
X11857000Y3377000D01*
X14143000Y3377000D01*
X14143000Y4726250D01*
X14397000Y4726250D01*
X14397000Y3377000D01*
X16683000Y3377000D01*
X16683000Y4726250D01*
X16937000Y4726250D01*
X16937000Y3377000D01*
X18286250Y3377000D01*
X18445000Y3535750D01*
X18445000Y4376310D01*
X18785000Y4376310D01*
X18785000Y3535750D01*
X18943750Y3377000D01*
X20293000Y3377000D01*
X20293000Y4726250D01*
X20547000Y4726250D01*
X20547000Y3377000D01*
X22833000Y3377000D01*
X22833000Y4726250D01*
X23087000Y4726250D01*
X23087000Y3377000D01*
X25373000Y3377000D01*
X25373000Y4726250D01*
X25627000Y4726250D01*
X25627000Y3377000D01*
X27913000Y3377000D01*
X27913000Y4726250D01*
X27754250Y4885000D01*
X26913691Y4885000D01*
X26770000Y4825481D01*
X26626309Y4885000D01*
X25785750Y4885000D01*
X25627000Y4726250D01*
X25373000Y4726250D01*
X25214250Y4885000D01*
X24373691Y4885000D01*
X24230000Y4825481D01*
X24086309Y4885000D01*
X23245750Y4885000D01*
X23087000Y4726250D01*
X22833000Y4726250D01*
X22674250Y4885000D01*
X21833691Y4885000D01*
X21690000Y4825481D01*
X21546309Y4885000D01*
X20705750Y4885000D01*
X20547000Y4726250D01*
X20293000Y4726250D01*
X20134250Y4885000D01*
X19293691Y4885000D01*
X19060302Y4788327D01*
X18881673Y4609699D01*
X18785000Y4376310D01*
X18445000Y4376310D01*
X18348327Y4609699D01*
X18169698Y4788327D01*
X17936309Y4885000D01*
X17095750Y4885000D01*
X16937000Y4726250D01*
X16683000Y4726250D01*
X16524250Y4885000D01*
X15683691Y4885000D01*
X15540000Y4825481D01*
X15396309Y4885000D01*
X14555750Y4885000D01*
X14397000Y4726250D01*
X14143000Y4726250D01*
X13984250Y4885000D01*
X13143691Y4885000D01*
X13000000Y4825481D01*
X12856309Y4885000D01*
X12015750Y4885000D01*
X11857000Y4726250D01*
X11603000Y4726250D01*
X11444250Y4885000D01*
X10603691Y4885000D01*
X10460000Y4825481D01*
X10316309Y4885000D01*
X9475750Y4885000D01*
X9317000Y4726250D01*
X9063000Y4726250D01*
X8904250Y4885000D01*
X8063691Y4885000D01*
X7830302Y4788327D01*
X7651673Y4609699D01*
X7555000Y4376310D01*
X7312857Y4376310D01*
X6824822Y5554530D01*
X5804530Y6574822D01*
X4471455Y7127000D01*
X3028545Y7127000D01*
X1695470Y6574822D01*
X985000Y5864352D01*
X985000Y22675222D01*
X1385000Y22675222D01*
X1385000Y22024778D01*
X1633914Y21423847D01*
X1977761Y21080000D01*
X1633914Y20736153D01*
X1385000Y20135222D01*
X1385000Y19484778D01*
X1633914Y18883847D01*
X1977761Y18540000D01*
X1633914Y18196153D01*
X1385000Y17595222D01*
X1385000Y16944778D01*
X1633914Y16343847D01*
X1977761Y16000000D01*
X1633914Y15656153D01*
X1385000Y15055222D01*
X1385000Y14404778D01*
X1633914Y13803847D01*
X1977761Y13460000D01*
X1633914Y13116153D01*
X1385000Y12515222D01*
X1385000Y11864778D01*
X1633914Y11263847D01*
X1977761Y10920000D01*
X1633914Y10576153D01*
X1385000Y9975222D01*
X1385000Y9324778D01*
X1633914Y8723847D01*
X2093847Y8263914D01*
X2694778Y8015000D01*
X3345222Y8015000D01*
X3946153Y8263914D01*
X4406086Y8723847D01*
X4655000Y9324778D01*
X4655000Y9975222D01*
X4617243Y10066375D01*
X4668583Y10117715D01*
X4668585Y10117718D01*
X6032285Y11481416D01*
X6102001Y11527999D01*
X6286552Y11804199D01*
X6335000Y12047763D01*
X6335000Y12047766D01*
X6351357Y12129999D01*
X6335000Y12212232D01*
X6335000Y13404133D01*
X6483578Y13552711D01*
X6663720Y13372569D01*
X7044126Y13215000D01*
X7104133Y13215000D01*
X8251426Y12067706D01*
X8298010Y11997988D01*
X8574192Y11813449D01*
X8574210Y11813437D01*
X8900011Y11748631D01*
X8982248Y11764989D01*
X29409857Y11764989D01*
X28276480Y10631611D01*
X28181712Y10568289D01*
X28059242Y10385000D01*
X15361783Y10385000D01*
X15250000Y10407235D01*
X15138217Y10385000D01*
X14807145Y10319146D01*
X14431711Y10068289D01*
X14368387Y9973518D01*
X13868392Y9473523D01*
X13680854Y9192854D01*
X13592765Y8750000D01*
X13680854Y8307146D01*
X13931712Y7931712D01*
X14307146Y7680854D01*
X14750000Y7592765D01*
X15192854Y7680854D01*
X15473523Y7868392D01*
X15720131Y8115000D01*
X28529869Y8115000D01*
X29365000Y7279868D01*
X29365001Y5361788D01*
X29342765Y5250000D01*
X29430854Y4807146D01*
X29430855Y4807145D01*
X29531487Y4656539D01*
X29399698Y4788327D01*
X29166309Y4885000D01*
X28325750Y4885000D01*
X28167000Y4726250D01*
X28167000Y3377000D01*
X29516250Y3377000D01*
X29675000Y3535750D01*
X29675000Y4376310D01*
X29603677Y4548498D01*
X29681712Y4431711D01*
X29776480Y4368389D01*
X30026477Y4118392D01*
X30307146Y3930855D01*
X30749999Y3842765D01*
X31192854Y3930855D01*
X31568288Y4181712D01*
X31819145Y4557146D01*
X31907235Y5000001D01*
X31819145Y5442854D01*
X31635000Y5718447D01*
X31635000Y7638219D01*
X31657235Y7750001D01*
X31633685Y7868392D01*
X31569146Y8192855D01*
X31318289Y8568289D01*
X31223521Y8631611D01*
X30355131Y9500000D01*
X30970132Y10115000D01*
X32611783Y10115000D01*
X32942855Y10180854D01*
X33318289Y10431711D01*
X33569146Y10807145D01*
X33657235Y11250000D01*
X33569146Y11692855D01*
X33560447Y11705874D01*
X40965000Y11705874D01*
X40965000Y11294126D01*
X41122569Y10913720D01*
X41165000Y10871289D01*
X41165001Y9832238D01*
X41148643Y9750000D01*
X41213448Y9424200D01*
X41279196Y9325801D01*
X41398000Y9147999D01*
X41467718Y9101415D01*
X41552711Y9016422D01*
X41372569Y8836280D01*
X41215000Y8455874D01*
X41215000Y8044126D01*
X41372569Y7663720D01*
X41663720Y7372569D01*
X42044126Y7215000D01*
X42455874Y7215000D01*
X42836280Y7372569D01*
X43127431Y7663720D01*
X43285000Y8044126D01*
X43285000Y8104132D01*
X43345868Y8165000D01*
X44917763Y8165000D01*
X45000000Y8148642D01*
X45082237Y8165000D01*
X45325801Y8213448D01*
X45602001Y8397999D01*
X45786552Y8674199D01*
X45851358Y9000000D01*
X45835000Y9082237D01*
X45835000Y19102083D01*
X45851357Y19184316D01*
X45835000Y19266551D01*
X45835000Y19266552D01*
X45786552Y19510116D01*
X45602001Y19786316D01*
X45532283Y19832900D01*
X43972337Y21392845D01*
X43993586Y21444145D01*
X44371599Y21287567D01*
X44431606Y21287567D01*
X44501453Y21217720D01*
X44548039Y21147999D01*
X44824239Y20963448D01*
X45067803Y20915000D01*
X45067806Y20915000D01*
X45150039Y20898643D01*
X45232272Y20915000D01*
X47121289Y20915000D01*
X47163720Y20872569D01*
X47544126Y20715000D01*
X47955874Y20715000D01*
X48336280Y20872569D01*
X48627431Y21163720D01*
X48785000Y21544126D01*
X48785000Y21955874D01*
X48627431Y22336280D01*
X48336280Y22627431D01*
X47955874Y22785000D01*
X47544126Y22785000D01*
X47163720Y22627431D01*
X47121289Y22585000D01*
X45589046Y22585000D01*
X45454904Y22908847D01*
X45163753Y23199998D01*
X44783347Y23357567D01*
X44371599Y23357567D01*
X43991193Y23199998D01*
X43700042Y22908847D01*
X43583887Y22628422D01*
X43205874Y22785000D01*
X42794126Y22785000D01*
X42413720Y22627431D01*
X42122569Y22336280D01*
X41965000Y21955874D01*
X41965000Y21544126D01*
X42122569Y21163720D01*
X42160231Y21126058D01*
X42165000Y21102082D01*
X42165000Y21102078D01*
X42213448Y20858514D01*
X42398000Y20582314D01*
X42467718Y20535730D01*
X43885926Y19117522D01*
X43542082Y19259946D01*
X43130334Y19259946D01*
X42749928Y19102377D01*
X42458777Y18811226D01*
X42301208Y18430820D01*
X42301208Y18345880D01*
X42213448Y18214538D01*
X42148643Y17888738D01*
X42165001Y17806500D01*
X42165000Y13878711D01*
X42122569Y13836280D01*
X41965000Y13455874D01*
X41965000Y13044126D01*
X42122569Y12663720D01*
X42283402Y12502887D01*
X42205874Y12535000D01*
X41794126Y12535000D01*
X41413720Y12377431D01*
X41122569Y12086280D01*
X40965000Y11705874D01*
X33560447Y11705874D01*
X33335000Y12043279D01*
X33335000Y13483761D01*
X33351358Y13565998D01*
X33321023Y13718503D01*
X33356031Y13683495D01*
X33736437Y13525926D01*
X33796444Y13525926D01*
X35104652Y12217718D01*
X35151236Y12147999D01*
X35427436Y11963448D01*
X35671000Y11915000D01*
X35671003Y11915000D01*
X35753236Y11898643D01*
X35835469Y11915000D01*
X36871289Y11915000D01*
X36913720Y11872569D01*
X37294126Y11715000D01*
X37705874Y11715000D01*
X38086280Y11872569D01*
X38377431Y12163720D01*
X38535000Y12544126D01*
X38535000Y12955874D01*
X38377431Y13336280D01*
X38086280Y13627431D01*
X37705874Y13785000D01*
X37294126Y13785000D01*
X36913720Y13627431D01*
X36871289Y13585000D01*
X36099105Y13585000D01*
X34977311Y14706793D01*
X34977311Y14766800D01*
X34819742Y15147206D01*
X34528591Y15438357D01*
X34148185Y15595926D01*
X33736437Y15595926D01*
X33641663Y15556669D01*
X33718769Y15742821D01*
X33718769Y16154569D01*
X33561200Y16534975D01*
X33270049Y16826126D01*
X33035000Y16923486D01*
X33035000Y16955874D01*
X33009510Y17017412D01*
X33124762Y17132664D01*
X33282331Y17513070D01*
X33282331Y17808006D01*
X33523895Y18049570D01*
X33671963Y18407039D01*
X33901348Y18502053D01*
X34192499Y18793204D01*
X34350068Y19173610D01*
X34350068Y19585358D01*
X34192499Y19965764D01*
X33901348Y20256915D01*
X33520942Y20414484D01*
X33467682Y20414484D01*
X33240870Y20566035D01*
X32997306Y20614483D01*
X32997302Y20614483D01*
X32915069Y20630840D01*
X32832836Y20614483D01*
X10710590Y20614483D01*
X10785000Y20794126D01*
X10785000Y21205874D01*
X10750647Y21288810D01*
X35895000Y21288810D01*
X35895000Y20898250D01*
X36053750Y20739500D01*
X36399466Y20739500D01*
X36170302Y20644577D01*
X35991673Y20465949D01*
X35961603Y20393353D01*
X35895000Y20326750D01*
X35895000Y19842000D01*
X35961603Y19775397D01*
X35991673Y19702801D01*
X36138225Y19556250D01*
X35991673Y19409699D01*
X35961603Y19337103D01*
X35895000Y19270500D01*
X35895000Y18785750D01*
X35961603Y18719147D01*
X35991673Y18646551D01*
X36138225Y18500000D01*
X35991673Y18353449D01*
X35961603Y18280853D01*
X35895000Y18214250D01*
X35895000Y17729500D01*
X35961603Y17662897D01*
X35991673Y17590301D01*
X36138225Y17443750D01*
X35991673Y17297199D01*
X35961603Y17224603D01*
X35895000Y17158000D01*
X35895000Y16673250D01*
X35961603Y16606647D01*
X35991673Y16534051D01*
X36138225Y16387500D01*
X35991673Y16240949D01*
X35961603Y16168353D01*
X35895000Y16101750D01*
X35895000Y15617000D01*
X35961603Y15550397D01*
X35991673Y15477801D01*
X36170302Y15299173D01*
X36399466Y15204250D01*
X36053750Y15204250D01*
X35895000Y15045500D01*
X35895000Y14654940D01*
X35991673Y14421551D01*
X36170302Y14242923D01*
X36403691Y14146250D01*
X36689250Y14146250D01*
X36848000Y14305000D01*
X36848000Y14415224D01*
X37020302Y14242923D01*
X37253691Y14146250D01*
X37546309Y14146250D01*
X37779698Y14242923D01*
X37825000Y14288225D01*
X37870302Y14242923D01*
X38103691Y14146250D01*
X38396309Y14146250D01*
X38629698Y14242923D01*
X38675000Y14288225D01*
X38720302Y14242923D01*
X38953691Y14146250D01*
X39246309Y14146250D01*
X39479698Y14242923D01*
X39652000Y14415224D01*
X39652000Y14305000D01*
X39810750Y14146250D01*
X40096309Y14146250D01*
X40329698Y14242923D01*
X40508327Y14421551D01*
X40605000Y14654940D01*
X40605000Y15045500D01*
X40446250Y15204250D01*
X40100534Y15204250D01*
X40329698Y15299173D01*
X40508327Y15477801D01*
X40538397Y15550397D01*
X40605000Y15617000D01*
X40605000Y16101750D01*
X40538397Y16168353D01*
X40508327Y16240949D01*
X40361775Y16387500D01*
X40508327Y16534051D01*
X40538397Y16606647D01*
X40605000Y16673250D01*
X40605000Y17158000D01*
X40538397Y17224603D01*
X40508327Y17297199D01*
X40361775Y17443750D01*
X40508327Y17590301D01*
X40538397Y17662897D01*
X40605000Y17729500D01*
X40605000Y18214250D01*
X40538397Y18280853D01*
X40508327Y18353449D01*
X40361775Y18500000D01*
X40508327Y18646551D01*
X40538397Y18719147D01*
X40605000Y18785750D01*
X40605000Y19270500D01*
X40538397Y19337103D01*
X40508327Y19409699D01*
X40361775Y19556250D01*
X40508327Y19702801D01*
X40538397Y19775397D01*
X40605000Y19842000D01*
X40605000Y20326750D01*
X40538397Y20393353D01*
X40508327Y20465949D01*
X40329698Y20644577D01*
X40100534Y20739500D01*
X40446250Y20739500D01*
X40605000Y20898250D01*
X40605000Y21288810D01*
X40508327Y21522199D01*
X40329698Y21700827D01*
X40096309Y21797500D01*
X39810750Y21797500D01*
X39652000Y21638750D01*
X39652000Y21528526D01*
X39479698Y21700827D01*
X39246309Y21797500D01*
X38953691Y21797500D01*
X38720302Y21700827D01*
X38675000Y21655525D01*
X38629698Y21700827D01*
X38396309Y21797500D01*
X38103691Y21797500D01*
X37870302Y21700827D01*
X37825000Y21655525D01*
X37779698Y21700827D01*
X37546309Y21797500D01*
X37253691Y21797500D01*
X37020302Y21700827D01*
X36848000Y21528526D01*
X36848000Y21638750D01*
X36689250Y21797500D01*
X36403691Y21797500D01*
X36170302Y21700827D01*
X35991673Y21522199D01*
X35895000Y21288810D01*
X10750647Y21288810D01*
X10627431Y21586280D01*
X10600880Y21612831D01*
X10942854Y21680854D01*
X11318288Y21931712D01*
X11569146Y22307146D01*
X11657235Y22750000D01*
X11569146Y23192855D01*
X11381608Y23473523D01*
X11135000Y23720131D01*
X11135000Y23750000D01*
X12194724Y23750000D01*
X12215000Y23648066D01*
X12215000Y23544126D01*
X12254776Y23448098D01*
X12275052Y23346164D01*
X12332792Y23259750D01*
X12372569Y23163720D01*
X12446069Y23090220D01*
X12503808Y23003808D01*
X12590220Y22946069D01*
X12663720Y22872569D01*
X12759750Y22832792D01*
X12846164Y22775052D01*
X12948098Y22754776D01*
X13044126Y22715000D01*
X13148066Y22715000D01*
X13250000Y22694724D01*
X13351934Y22715000D01*
X13455874Y22715000D01*
X13551902Y22754776D01*
X13653836Y22775052D01*
X13740250Y22832792D01*
X13836280Y22872569D01*
X15159776Y24196065D01*
X15246193Y24253807D01*
X15474948Y24596163D01*
X15535000Y24898065D01*
X15555276Y25000000D01*
X15535000Y25101934D01*
X15535000Y28455874D01*
X15495224Y28551901D01*
X15474948Y28653837D01*
X15417207Y28740253D01*
X15377431Y28836280D01*
X15303935Y28909776D01*
X15246193Y28996193D01*
X15159777Y29053934D01*
X15086280Y29127431D01*
X14990251Y29167207D01*
X14903836Y29224948D01*
X14801902Y29245224D01*
X14705874Y29285000D01*
X14601934Y29285000D01*
X14500000Y29305276D01*
X14398065Y29285000D01*
X14294126Y29285000D01*
X14198098Y29245224D01*
X14096163Y29224948D01*
X14009747Y29167207D01*
X13913720Y29127431D01*
X13840224Y29053935D01*
X13753807Y28996193D01*
X13696066Y28909777D01*
X13622569Y28836280D01*
X13582793Y28740251D01*
X13525052Y28653836D01*
X13504776Y28551902D01*
X13465000Y28455874D01*
X13465000Y28351934D01*
X13465001Y25428712D01*
X12372569Y24336280D01*
X12332792Y24240250D01*
X12275052Y24153836D01*
X12254776Y24051902D01*
X12215000Y23955874D01*
X12215000Y23851934D01*
X12194724Y23750000D01*
X11135000Y23750000D01*
X11135000Y26279869D01*
X13131609Y28276476D01*
X13319146Y28557145D01*
X13407235Y29000000D01*
X13319146Y29442854D01*
X13068289Y29818289D01*
X12692854Y30069146D01*
X12250000Y30157235D01*
X11807145Y30069146D01*
X11526476Y29881609D01*
X9276479Y27631611D01*
X9181712Y27568289D01*
X9019687Y27325801D01*
X8930854Y27192854D01*
X8842765Y26750000D01*
X8865001Y26638212D01*
X8865000Y23361783D01*
X8842765Y23250000D01*
X8917841Y22872569D01*
X8930854Y22807146D01*
X9181711Y22431711D01*
X9276482Y22368387D01*
X9609869Y22035000D01*
X9544126Y22035000D01*
X9163720Y21877431D01*
X9121289Y21835000D01*
X6128711Y21835000D01*
X6086280Y21877431D01*
X5705874Y22035000D01*
X5294126Y22035000D01*
X4913720Y21877431D01*
X4622569Y21586280D01*
X4465000Y21205874D01*
X4465000Y20794126D01*
X4622569Y20413720D01*
X4802711Y20233578D01*
X4655000Y20085868D01*
X4655000Y20135222D01*
X4406086Y20736153D01*
X4062239Y21080000D01*
X4406086Y21423847D01*
X4655000Y22024778D01*
X4655000Y22675222D01*
X4406086Y23276153D01*
X3946153Y23736086D01*
X3345222Y23985000D01*
X2694778Y23985000D01*
X2093847Y23736086D01*
X1633914Y23276153D01*
X1385000Y22675222D01*
X985000Y22675222D01*
X985000Y33635648D01*
X1695470Y32925178D01*
X3028545Y32373000D01*
X4471455Y32373000D01*
X5804530Y32925178D01*
X6824822Y33945470D01*
X7317542Y35135000D01*
X7904250Y35135000D01*
X8063000Y35293750D01*
X8063000Y36643000D01*
X8043000Y36643000D01*
X8043000Y36897000D01*
X8063000Y36897000D01*
X8063000Y38246250D01*
X8317000Y38246250D01*
X8317000Y36897000D01*
X8337000Y36897000D01*
X8337000Y36643000D01*
X8317000Y36643000D01*
X8317000Y35293750D01*
X8475750Y35135000D01*
X9316309Y35135000D01*
X9549698Y35231673D01*
X9728327Y35410301D01*
X9742718Y35445043D01*
X9803847Y35383914D01*
X10404778Y35135000D01*
X11055222Y35135000D01*
X11656153Y35383914D01*
X11717282Y35445043D01*
X11731673Y35410301D01*
X11910302Y35231673D01*
X12143691Y35135000D01*
X12181993Y35135000D01*
X12163720Y35127431D01*
X12090224Y35053935D01*
X12003807Y34996193D01*
X11946065Y34909776D01*
X11872569Y34836280D01*
X11832793Y34740253D01*
X11775052Y34653837D01*
X11754776Y34551902D01*
X11715000Y34455874D01*
X11715000Y34351935D01*
X11694724Y34250000D01*
X11715000Y34148065D01*
X11715000Y34044126D01*
X11754776Y33948098D01*
X11775052Y33846163D01*
X11832793Y33759747D01*
X11872569Y33663720D01*
X11946065Y33590224D01*
X12003807Y33503807D01*
X12090224Y33446065D01*
X12163720Y33372569D01*
X12259747Y33332793D01*
X12346163Y33275052D01*
X12448099Y33254776D01*
X12544126Y33215000D01*
X14571290Y33215000D01*
X15872569Y31913720D01*
X16163720Y31622569D01*
X16259747Y31582793D01*
X16346163Y31525052D01*
X16448098Y31504776D01*
X16544126Y31465000D01*
X16648065Y31465000D01*
X16750000Y31444724D01*
X16851934Y31465000D01*
X16955874Y31465000D01*
X17051902Y31504776D01*
X17153836Y31525052D01*
X17240251Y31582793D01*
X17336280Y31622569D01*
X17409777Y31696066D01*
X17496193Y31753807D01*
X17553934Y31840223D01*
X17627431Y31913720D01*
X17667207Y32009749D01*
X17724948Y32096164D01*
X17745224Y32198098D01*
X17785000Y32294126D01*
X17785000Y32398066D01*
X17805276Y32500000D01*
X17785000Y32601935D01*
X17785000Y32705874D01*
X17745224Y32801902D01*
X17724948Y32903837D01*
X17667207Y32990253D01*
X17627431Y33086280D01*
X17336280Y33377431D01*
X15803937Y34909773D01*
X15746193Y34996193D01*
X15538454Y35135000D01*
X16135222Y35135000D01*
X16736153Y35383914D01*
X17196086Y35843847D01*
X17235858Y35939865D01*
X17283914Y35823847D01*
X17743847Y35363914D01*
X18344778Y35115000D01*
X18995222Y35115000D01*
X19596153Y35363914D01*
X19940000Y35707761D01*
X20283847Y35363914D01*
X20884778Y35115000D01*
X21535222Y35115000D01*
X22136153Y35363914D01*
X22480000Y35707761D01*
X22823847Y35363914D01*
X23408169Y35121880D01*
X23372569Y35086280D01*
X23332793Y34990251D01*
X23275052Y34903836D01*
X23254776Y34801902D01*
X23215000Y34705874D01*
X23215000Y34601934D01*
X23215001Y33101939D01*
X23194724Y33000000D01*
X23275052Y32596164D01*
X23424166Y32373000D01*
X23503808Y32253807D01*
X23590225Y32196065D01*
X27622569Y28163720D01*
X27913720Y27872569D01*
X28009747Y27832793D01*
X28096163Y27775052D01*
X28198098Y27754776D01*
X28294126Y27715000D01*
X28398065Y27715000D01*
X28500000Y27694724D01*
X28601934Y27715000D01*
X28705874Y27715000D01*
X28801902Y27754776D01*
X28903836Y27775052D01*
X28990251Y27832793D01*
X29086280Y27872569D01*
X29159777Y27946066D01*
X29246193Y28003807D01*
X29303934Y28090223D01*
X29377431Y28163720D01*
X29417207Y28259749D01*
X29474948Y28346164D01*
X29495224Y28448098D01*
X29535000Y28544126D01*
X29535000Y28648066D01*
X29555276Y28750000D01*
X29535000Y28851935D01*
X29535000Y28955874D01*
X29495224Y29051902D01*
X29474948Y29153837D01*
X29417207Y29240253D01*
X29377431Y29336280D01*
X29086280Y29627431D01*
X25285000Y33428710D01*
X25285000Y34705874D01*
X25245224Y34801901D01*
X25224948Y34903837D01*
X25167207Y34990253D01*
X25127431Y35086280D01*
X25053935Y35159776D01*
X24996193Y35246193D01*
X24909777Y35303934D01*
X24836280Y35377431D01*
X24740251Y35417207D01*
X24733774Y35421535D01*
X25020000Y35707761D01*
X25363847Y35363914D01*
X25964778Y35115000D01*
X26615222Y35115000D01*
X27216153Y35363914D01*
X27625000Y35772761D01*
X28033847Y35363914D01*
X28634778Y35115000D01*
X29285222Y35115000D01*
X29886153Y35363914D01*
X30230000Y35707761D01*
X30573847Y35363914D01*
X31174778Y35115000D01*
X31825222Y35115000D01*
X32381854Y35345565D01*
X32122569Y35086280D01*
X31965000Y34705874D01*
X31965000Y34294126D01*
X32122569Y33913720D01*
X32413720Y33622569D01*
X32794126Y33465000D01*
X33205874Y33465000D01*
X33586280Y33622569D01*
X33877431Y33913720D01*
X34035000Y34294126D01*
X34035000Y34705874D01*
X33877431Y35086280D01*
X33848711Y35115000D01*
X34365222Y35115000D01*
X34966153Y35363914D01*
X35310000Y35707761D01*
X35653847Y35363914D01*
X36254778Y35115000D01*
X36905222Y35115000D01*
X37506153Y35363914D01*
X37966086Y35823847D01*
X38215000Y36424778D01*
X38215000Y37075222D01*
X37966086Y37676153D01*
X37506153Y38136086D01*
X36905222Y38385000D01*
X36254778Y38385000D01*
X35653847Y38136086D01*
X35310000Y37792239D01*
X34966153Y38136086D01*
X34365222Y38385000D01*
X33714778Y38385000D01*
X33113847Y38136086D01*
X32770000Y37792239D01*
X32426153Y38136086D01*
X31825222Y38385000D01*
X31174778Y38385000D01*
X30573847Y38136086D01*
X30230000Y37792239D01*
X29886153Y38136086D01*
X29285222Y38385000D01*
X28634778Y38385000D01*
X28033847Y38136086D01*
X27625000Y37727239D01*
X27216153Y38136086D01*
X26615222Y38385000D01*
X25964778Y38385000D01*
X25363847Y38136086D01*
X25020000Y37792239D01*
X24676153Y38136086D01*
X24075222Y38385000D01*
X23424778Y38385000D01*
X22823847Y38136086D01*
X22480000Y37792239D01*
X22136153Y38136086D01*
X21535222Y38385000D01*
X20884778Y38385000D01*
X20283847Y38136086D01*
X19940000Y37792239D01*
X19596153Y38136086D01*
X18995222Y38385000D01*
X18344778Y38385000D01*
X17743847Y38136086D01*
X17283914Y37676153D01*
X17244142Y37580135D01*
X17196086Y37696153D01*
X16736153Y38156086D01*
X16135222Y38405000D01*
X15484778Y38405000D01*
X14883847Y38156086D01*
X14822718Y38094957D01*
X14808327Y38129699D01*
X14629698Y38308327D01*
X14396309Y38405000D01*
X13555750Y38405000D01*
X13397000Y38246250D01*
X13397000Y36897000D01*
X13417000Y36897000D01*
X13417000Y36643000D01*
X13397000Y36643000D01*
X13397000Y36623000D01*
X13143000Y36623000D01*
X13143000Y36643000D01*
X13123000Y36643000D01*
X13123000Y36897000D01*
X13143000Y36897000D01*
X13143000Y38246250D01*
X12984250Y38405000D01*
X12143691Y38405000D01*
X11910302Y38308327D01*
X11731673Y38129699D01*
X11717282Y38094957D01*
X11656153Y38156086D01*
X11055222Y38405000D01*
X10404778Y38405000D01*
X9803847Y38156086D01*
X9742718Y38094957D01*
X9728327Y38129699D01*
X9549698Y38308327D01*
X9316309Y38405000D01*
X8475750Y38405000D01*
X8317000Y38246250D01*
X8063000Y38246250D01*
X7904250Y38405000D01*
X7063691Y38405000D01*
X6830302Y38308327D01*
X6700663Y38178689D01*
X5804530Y39074822D01*
X4471455Y39627000D01*
X3028545Y39627000D01*
X1695470Y39074822D01*
X985000Y38364352D01*
X985000Y40015000D01*
X51623000Y40015000D01*
X51623000Y37485000D01*
G36*
X8715000Y15544126D02*
X8872569Y15163720D01*
X9163720Y14872569D01*
X9544126Y14715000D01*
X9955874Y14715000D01*
X10336280Y14872569D01*
X10627431Y15163720D01*
X10785000Y15544126D01*
X10785000Y15565011D01*
X30340560Y15565011D01*
X30350525Y15555046D01*
X30350525Y15495039D01*
X30508094Y15114633D01*
X30799245Y14823482D01*
X31115000Y14692692D01*
X31114999Y14198233D01*
X31098642Y14115999D01*
X31114754Y14035000D01*
X30994116Y14035000D01*
X30613710Y13877431D01*
X30322559Y13586280D01*
X30259892Y13434989D01*
X9245879Y13434989D01*
X8285000Y14395867D01*
X8285000Y14455874D01*
X8127431Y14836280D01*
X7947289Y15016422D01*
X8715000Y15784132D01*
X8715000Y15544126D01*
X8715000Y15544126D01*
G37*
X8715000Y15544126D02*
X8872569Y15163720D01*
X9163720Y14872569D01*
X9544126Y14715000D01*
X9955874Y14715000D01*
X10336280Y14872569D01*
X10627431Y15163720D01*
X10785000Y15544126D01*
X10785000Y15565011D01*
X30340560Y15565011D01*
X30350525Y15555046D01*
X30350525Y15495039D01*
X30508094Y15114633D01*
X30799245Y14823482D01*
X31115000Y14692692D01*
X31114999Y14198233D01*
X31098642Y14115999D01*
X31114754Y14035000D01*
X30994116Y14035000D01*
X30613710Y13877431D01*
X30322559Y13586280D01*
X30259892Y13434989D01*
X9245879Y13434989D01*
X8285000Y14395867D01*
X8285000Y14455874D01*
X8127431Y14836280D01*
X7947289Y15016422D01*
X8715000Y15784132D01*
X8715000Y15544126D01*
M02*
