G04 #@! TF.GenerationSoftware,KiCad,Pcbnew,5.0.0-rc2-dev-unknown-94c7809~62~ubuntu16.04.1*
G04 #@! TF.CreationDate,2018-03-26T01:26:19-07:00*
G04 #@! TF.ProjectId,LR7833_Bridge,4C52373833335F4272696467652E6B69,rev?*
G04 #@! TF.SameCoordinates,Original*
G04 #@! TF.FileFunction,Legend,Top*
G04 #@! TF.FilePolarity,Positive*
%FSLAX46Y46*%
G04 Gerber Fmt 4.6, Leading zero omitted, Abs format (unit mm)*
G04 Created by KiCad (PCBNEW 5.0.0-rc2-dev-unknown-94c7809~62~ubuntu16.04.1) date Mon Mar 26 01:26:19 2018*
%MOMM*%
%LPD*%
G01*
G04 APERTURE LIST*
%ADD10C,0.200000*%
%ADD11C,0.250000*%
%ADD12C,0.300000*%
%ADD13C,0.050000*%
%ADD14C,0.120000*%
%ADD15C,0.150000*%
%ADD16C,0.304800*%
G04 APERTURE END LIST*
D10*
X51750000Y35000000D02*
X51750000Y500000D01*
X52000000Y35000000D02*
X51750000Y35000000D01*
X52000000Y500000D02*
X52000000Y35000000D01*
D11*
X21214285Y922619D02*
X21214285Y1446428D01*
X21166666Y1541666D01*
X21071428Y1589285D01*
X20880952Y1589285D01*
X20785714Y1541666D01*
X21214285Y970238D02*
X21119047Y922619D01*
X20880952Y922619D01*
X20785714Y970238D01*
X20738095Y1065476D01*
X20738095Y1160714D01*
X20785714Y1255952D01*
X20880952Y1303571D01*
X21119047Y1303571D01*
X21214285Y1351190D01*
X22119047Y1589285D02*
X22119047Y922619D01*
X21690476Y1589285D02*
X21690476Y1065476D01*
X21738095Y970238D01*
X21833333Y922619D01*
X21976190Y922619D01*
X22071428Y970238D01*
X22119047Y1017857D01*
X22500000Y922619D02*
X23023809Y1589285D01*
X22500000Y1589285D02*
X23023809Y922619D01*
X24595238Y1589285D02*
X24595238Y779761D01*
X24547619Y684523D01*
X24500000Y636904D01*
X24404761Y589285D01*
X24261904Y589285D01*
X24166666Y636904D01*
X24595238Y970238D02*
X24500000Y922619D01*
X24309523Y922619D01*
X24214285Y970238D01*
X24166666Y1017857D01*
X24119047Y1113095D01*
X24119047Y1398809D01*
X24166666Y1494047D01*
X24214285Y1541666D01*
X24309523Y1589285D01*
X24500000Y1589285D01*
X24595238Y1541666D01*
X25071428Y1589285D02*
X25071428Y922619D01*
X25071428Y1494047D02*
X25119047Y1541666D01*
X25214285Y1589285D01*
X25357142Y1589285D01*
X25452380Y1541666D01*
X25500000Y1446428D01*
X25500000Y922619D01*
X26404761Y922619D02*
X26404761Y1922619D01*
X26404761Y970238D02*
X26309523Y922619D01*
X26119047Y922619D01*
X26023809Y970238D01*
X25976190Y1017857D01*
X25928571Y1113095D01*
X25928571Y1398809D01*
X25976190Y1494047D01*
X26023809Y1541666D01*
X26119047Y1589285D01*
X26309523Y1589285D01*
X26404761Y1541666D01*
X26833333Y970238D02*
X26928571Y922619D01*
X27119047Y922619D01*
X27214285Y970238D01*
X27261904Y1065476D01*
X27261904Y1113095D01*
X27214285Y1208333D01*
X27119047Y1255952D01*
X26976190Y1255952D01*
X26880952Y1303571D01*
X26833333Y1398809D01*
X26833333Y1446428D01*
X26880952Y1541666D01*
X26976190Y1589285D01*
X27119047Y1589285D01*
X27214285Y1541666D01*
X9964285Y922619D02*
X9964285Y1446428D01*
X9916666Y1541666D01*
X9821428Y1589285D01*
X9630952Y1589285D01*
X9535714Y1541666D01*
X9964285Y970238D02*
X9869047Y922619D01*
X9630952Y922619D01*
X9535714Y970238D01*
X9488095Y1065476D01*
X9488095Y1160714D01*
X9535714Y1255952D01*
X9630952Y1303571D01*
X9869047Y1303571D01*
X9964285Y1351190D01*
X10869047Y1589285D02*
X10869047Y922619D01*
X10440476Y1589285D02*
X10440476Y1065476D01*
X10488095Y970238D01*
X10583333Y922619D01*
X10726190Y922619D01*
X10821428Y970238D01*
X10869047Y1017857D01*
X11250000Y922619D02*
X11773809Y1589285D01*
X11250000Y1589285D02*
X11773809Y922619D01*
X13345238Y1589285D02*
X13345238Y779761D01*
X13297619Y684523D01*
X13250000Y636904D01*
X13154761Y589285D01*
X13011904Y589285D01*
X12916666Y636904D01*
X13345238Y970238D02*
X13250000Y922619D01*
X13059523Y922619D01*
X12964285Y970238D01*
X12916666Y1017857D01*
X12869047Y1113095D01*
X12869047Y1398809D01*
X12916666Y1494047D01*
X12964285Y1541666D01*
X13059523Y1589285D01*
X13250000Y1589285D01*
X13345238Y1541666D01*
X13821428Y1589285D02*
X13821428Y922619D01*
X13821428Y1494047D02*
X13869047Y1541666D01*
X13964285Y1589285D01*
X14107142Y1589285D01*
X14202380Y1541666D01*
X14250000Y1446428D01*
X14250000Y922619D01*
X15154761Y922619D02*
X15154761Y1922619D01*
X15154761Y970238D02*
X15059523Y922619D01*
X14869047Y922619D01*
X14773809Y970238D01*
X14726190Y1017857D01*
X14678571Y1113095D01*
X14678571Y1398809D01*
X14726190Y1494047D01*
X14773809Y1541666D01*
X14869047Y1589285D01*
X15059523Y1589285D01*
X15154761Y1541666D01*
X15583333Y970238D02*
X15678571Y922619D01*
X15869047Y922619D01*
X15964285Y970238D01*
X16011904Y1065476D01*
X16011904Y1113095D01*
X15964285Y1208333D01*
X15869047Y1255952D01*
X15726190Y1255952D01*
X15630952Y1303571D01*
X15583333Y1398809D01*
X15583333Y1446428D01*
X15630952Y1541666D01*
X15726190Y1589285D01*
X15869047Y1589285D01*
X15964285Y1541666D01*
D10*
X63500000Y2750000D02*
X63500000Y2500000D01*
X63500000Y4500000D02*
X63500000Y2750000D01*
X62500000Y3500000D02*
X63500000Y4500000D01*
X63500000Y2500000D02*
X62500000Y3500000D01*
X57250000Y2500000D02*
X56500000Y3500000D01*
X57250000Y4250000D02*
X57250000Y2500000D01*
X56500000Y3500000D02*
X57250000Y4250000D01*
X55750000Y36500000D02*
X56500000Y35750000D01*
X56500000Y37250000D02*
X55750000Y36500000D01*
X56500000Y35750000D02*
X56500000Y37250000D01*
X64250000Y35750000D02*
X64250000Y36000000D01*
X63500000Y36500000D02*
X64250000Y35750000D01*
X64250000Y37250000D02*
X63500000Y36500000D01*
X64250000Y36000000D02*
X64250000Y37250000D01*
X45250000Y5500000D02*
X45750000Y5000000D01*
X45750000Y6000000D02*
X45250000Y5500000D01*
X45750000Y5000000D02*
X45750000Y6000000D01*
X39000000Y4250000D02*
X38500000Y4750000D01*
X38500000Y3750000D02*
X39000000Y4250000D01*
X38500000Y4750000D02*
X38500000Y3750000D01*
X17250000Y34250000D02*
X6250000Y34250000D01*
X27500000Y34250000D02*
X17250000Y34250000D01*
X38000000Y38500000D02*
X38000000Y40750000D01*
X27500000Y38500000D02*
X38000000Y38500000D01*
X27500000Y38500000D02*
X27500000Y40750000D01*
X17250000Y38500000D02*
X17250000Y40750000D01*
D11*
X4773809Y9297619D02*
X4773809Y9821428D01*
X4726190Y9916666D01*
X4630952Y9964285D01*
X4440476Y9964285D01*
X4345238Y9916666D01*
X4773809Y9345238D02*
X4678571Y9297619D01*
X4440476Y9297619D01*
X4345238Y9345238D01*
X4297619Y9440476D01*
X4297619Y9535714D01*
X4345238Y9630952D01*
X4440476Y9678571D01*
X4678571Y9678571D01*
X4773809Y9726190D01*
X5250000Y9297619D02*
X5250000Y10297619D01*
X5678571Y9297619D02*
X5678571Y9821428D01*
X5630952Y9916666D01*
X5535714Y9964285D01*
X5392857Y9964285D01*
X5297619Y9916666D01*
X5250000Y9869047D01*
X6154761Y9297619D02*
X6154761Y9964285D01*
X6154761Y10297619D02*
X6107142Y10250000D01*
X6154761Y10202380D01*
X6202380Y10250000D01*
X6154761Y10297619D01*
X6154761Y10202380D01*
X4750000Y11797619D02*
X4750000Y12321428D01*
X4702380Y12416666D01*
X4607142Y12464285D01*
X4416666Y12464285D01*
X4321428Y12416666D01*
X4750000Y11845238D02*
X4654761Y11797619D01*
X4416666Y11797619D01*
X4321428Y11845238D01*
X4273809Y11940476D01*
X4273809Y12035714D01*
X4321428Y12130952D01*
X4416666Y12178571D01*
X4654761Y12178571D01*
X4750000Y12226190D01*
X5369047Y11797619D02*
X5273809Y11845238D01*
X5226190Y11940476D01*
X5226190Y12797619D01*
X5892857Y11797619D02*
X5797619Y11845238D01*
X5750000Y11892857D01*
X5702380Y11988095D01*
X5702380Y12273809D01*
X5750000Y12369047D01*
X5797619Y12416666D01*
X5892857Y12464285D01*
X6035714Y12464285D01*
X6130952Y12416666D01*
X6178571Y12369047D01*
X6226190Y12273809D01*
X6226190Y11988095D01*
X6178571Y11892857D01*
X6130952Y11845238D01*
X6035714Y11797619D01*
X5892857Y11797619D01*
X4345238Y14547619D02*
X4345238Y15547619D01*
X4345238Y15166666D02*
X4440476Y15214285D01*
X4630952Y15214285D01*
X4726190Y15166666D01*
X4773809Y15119047D01*
X4821428Y15023809D01*
X4821428Y14738095D01*
X4773809Y14642857D01*
X4726190Y14595238D01*
X4630952Y14547619D01*
X4440476Y14547619D01*
X4345238Y14595238D01*
X5250000Y14547619D02*
X5250000Y15547619D01*
X5678571Y14547619D02*
X5678571Y15071428D01*
X5630952Y15166666D01*
X5535714Y15214285D01*
X5392857Y15214285D01*
X5297619Y15166666D01*
X5250000Y15119047D01*
X6154761Y14547619D02*
X6154761Y15214285D01*
X6154761Y15547619D02*
X6107142Y15500000D01*
X6154761Y15452380D01*
X6202380Y15500000D01*
X6154761Y15547619D01*
X6154761Y15452380D01*
X4321428Y17047619D02*
X4321428Y18047619D01*
X4321428Y17666666D02*
X4416666Y17714285D01*
X4607142Y17714285D01*
X4702380Y17666666D01*
X4750000Y17619047D01*
X4797619Y17523809D01*
X4797619Y17238095D01*
X4750000Y17142857D01*
X4702380Y17095238D01*
X4607142Y17047619D01*
X4416666Y17047619D01*
X4321428Y17095238D01*
X5369047Y17047619D02*
X5273809Y17095238D01*
X5226190Y17190476D01*
X5226190Y18047619D01*
X5892857Y17047619D02*
X5797619Y17095238D01*
X5750000Y17142857D01*
X5702380Y17238095D01*
X5702380Y17523809D01*
X5750000Y17619047D01*
X5797619Y17666666D01*
X5892857Y17714285D01*
X6035714Y17714285D01*
X6130952Y17666666D01*
X6178571Y17619047D01*
X6226190Y17523809D01*
X6226190Y17238095D01*
X6178571Y17142857D01*
X6130952Y17095238D01*
X6035714Y17047619D01*
X5892857Y17047619D01*
D12*
X95357142Y8750000D02*
X95214285Y8821428D01*
X95000000Y8821428D01*
X94785714Y8750000D01*
X94642857Y8607142D01*
X94571428Y8464285D01*
X94500000Y8178571D01*
X94500000Y7964285D01*
X94571428Y7678571D01*
X94642857Y7535714D01*
X94785714Y7392857D01*
X95000000Y7321428D01*
X95142857Y7321428D01*
X95357142Y7392857D01*
X95428571Y7464285D01*
X95428571Y7964285D01*
X95142857Y7964285D01*
X96071428Y7321428D02*
X96071428Y8821428D01*
X96928571Y7321428D01*
X96928571Y8821428D01*
X97642857Y7321428D02*
X97642857Y8821428D01*
X98000000Y8821428D01*
X98214285Y8750000D01*
X98357142Y8607142D01*
X98428571Y8464285D01*
X98500000Y8178571D01*
X98500000Y7964285D01*
X98428571Y7678571D01*
X98357142Y7535714D01*
X98214285Y7392857D01*
X98000000Y7321428D01*
X97642857Y7321428D01*
X88500000Y17571428D02*
X88785714Y17571428D01*
X88928571Y17500000D01*
X89071428Y17357142D01*
X89142857Y17071428D01*
X89142857Y16571428D01*
X89071428Y16285714D01*
X88928571Y16142857D01*
X88785714Y16071428D01*
X88500000Y16071428D01*
X88357142Y16142857D01*
X88214285Y16285714D01*
X88142857Y16571428D01*
X88142857Y17071428D01*
X88214285Y17357142D01*
X88357142Y17500000D01*
X88500000Y17571428D01*
X89785714Y17571428D02*
X89785714Y16357142D01*
X89857142Y16214285D01*
X89928571Y16142857D01*
X90071428Y16071428D01*
X90357142Y16071428D01*
X90500000Y16142857D01*
X90571428Y16214285D01*
X90642857Y16357142D01*
X90642857Y17571428D01*
X91142857Y17571428D02*
X92000000Y17571428D01*
X91571428Y16071428D02*
X91571428Y17571428D01*
X93000000Y16857142D02*
X93214285Y16785714D01*
X93285714Y16714285D01*
X93357142Y16571428D01*
X93357142Y16357142D01*
X93285714Y16214285D01*
X93214285Y16142857D01*
X93071428Y16071428D01*
X92500000Y16071428D01*
X92500000Y17571428D01*
X93000000Y17571428D01*
X93142857Y17500000D01*
X93214285Y17428571D01*
X93285714Y17285714D01*
X93285714Y17142857D01*
X93214285Y17000000D01*
X93142857Y16928571D01*
X93000000Y16857142D01*
X92500000Y16857142D01*
X88607142Y23321428D02*
X88892857Y23321428D01*
X89035714Y23250000D01*
X89178571Y23107142D01*
X89250000Y22821428D01*
X89250000Y22321428D01*
X89178571Y22035714D01*
X89035714Y21892857D01*
X88892857Y21821428D01*
X88607142Y21821428D01*
X88464285Y21892857D01*
X88321428Y22035714D01*
X88250000Y22321428D01*
X88250000Y22821428D01*
X88321428Y23107142D01*
X88464285Y23250000D01*
X88607142Y23321428D01*
X89892857Y23321428D02*
X89892857Y22107142D01*
X89964285Y21964285D01*
X90035714Y21892857D01*
X90178571Y21821428D01*
X90464285Y21821428D01*
X90607142Y21892857D01*
X90678571Y21964285D01*
X90750000Y22107142D01*
X90750000Y23321428D01*
X91250000Y23321428D02*
X92107142Y23321428D01*
X91678571Y21821428D02*
X91678571Y23321428D01*
X92535714Y22250000D02*
X93250000Y22250000D01*
X92392857Y21821428D02*
X92892857Y23321428D01*
X93392857Y21821428D01*
X95607142Y31071428D02*
X96107142Y29571428D01*
X96607142Y31071428D01*
X97107142Y29571428D02*
X97107142Y31071428D01*
X97821428Y29571428D02*
X97821428Y31071428D01*
X98678571Y29571428D01*
X98678571Y31071428D01*
D11*
X32083333Y39839285D02*
X32321428Y39172619D01*
X32559523Y39839285D01*
X32940476Y39172619D02*
X32940476Y40172619D01*
X32940476Y39791666D02*
X33035714Y39839285D01*
X33226190Y39839285D01*
X33321428Y39791666D01*
X33369047Y39744047D01*
X33416666Y39648809D01*
X33416666Y39363095D01*
X33369047Y39267857D01*
X33321428Y39220238D01*
X33226190Y39172619D01*
X33035714Y39172619D01*
X32940476Y39220238D01*
X33797619Y40077380D02*
X33845238Y40125000D01*
X33940476Y40172619D01*
X34178571Y40172619D01*
X34273809Y40125000D01*
X34321428Y40077380D01*
X34369047Y39982142D01*
X34369047Y39886904D01*
X34321428Y39744047D01*
X33750000Y39172619D01*
X34369047Y39172619D01*
X20583333Y39839285D02*
X20821428Y39172619D01*
X21059523Y39839285D01*
X21440476Y39172619D02*
X21440476Y40172619D01*
X21440476Y39791666D02*
X21535714Y39839285D01*
X21726190Y39839285D01*
X21821428Y39791666D01*
X21869047Y39744047D01*
X21916666Y39648809D01*
X21916666Y39363095D01*
X21869047Y39267857D01*
X21821428Y39220238D01*
X21726190Y39172619D01*
X21535714Y39172619D01*
X21440476Y39220238D01*
X22869047Y39172619D02*
X22297619Y39172619D01*
X22583333Y39172619D02*
X22583333Y40172619D01*
X22488095Y40029761D01*
X22392857Y39934523D01*
X22297619Y39886904D01*
X4488095Y19547619D02*
X4488095Y20214285D01*
X4488095Y20023809D02*
X4535714Y20119047D01*
X4583333Y20166666D01*
X4678571Y20214285D01*
X4773809Y20214285D01*
X5059523Y19595238D02*
X5154761Y19547619D01*
X5345238Y19547619D01*
X5440476Y19595238D01*
X5488095Y19690476D01*
X5488095Y19738095D01*
X5440476Y19833333D01*
X5345238Y19880952D01*
X5202380Y19880952D01*
X5107142Y19928571D01*
X5059523Y20023809D01*
X5059523Y20071428D01*
X5107142Y20166666D01*
X5202380Y20214285D01*
X5345238Y20214285D01*
X5440476Y20166666D01*
X5773809Y20214285D02*
X6154761Y20214285D01*
X5916666Y20547619D02*
X5916666Y19690476D01*
X5964285Y19595238D01*
X6059523Y19547619D01*
X6154761Y19547619D01*
X4261904Y22964285D02*
X4642857Y22964285D01*
X4404761Y22297619D02*
X4404761Y23154761D01*
X4452380Y23250000D01*
X4547619Y23297619D01*
X4642857Y23297619D01*
X5119047Y22297619D02*
X5023809Y22345238D01*
X4976190Y22440476D01*
X4976190Y23297619D01*
X5357142Y22964285D02*
X5738095Y22964285D01*
X5500000Y23297619D02*
X5500000Y22440476D01*
X5547619Y22345238D01*
X5642857Y22297619D01*
X5738095Y22297619D01*
X15410714Y38083333D02*
X16077380Y38321428D01*
X15410714Y38559523D01*
X16077380Y38940476D02*
X15077380Y38940476D01*
X15458333Y38940476D02*
X15410714Y39035714D01*
X15410714Y39226190D01*
X15458333Y39321428D01*
X15505952Y39369047D01*
X15601190Y39416666D01*
X15886904Y39416666D01*
X15982142Y39369047D01*
X16029761Y39321428D01*
X16077380Y39226190D01*
X16077380Y39035714D01*
X16029761Y38940476D01*
X16077380Y40369047D02*
X16077380Y39797619D01*
X16077380Y40083333D02*
X15077380Y40083333D01*
X15220238Y39988095D01*
X15315476Y39892857D01*
X15363095Y39797619D01*
X10535714Y38083333D02*
X11202380Y38321428D01*
X10535714Y38559523D01*
X11202380Y38940476D02*
X10202380Y38940476D01*
X10583333Y38940476D02*
X10535714Y39035714D01*
X10535714Y39226190D01*
X10583333Y39321428D01*
X10630952Y39369047D01*
X10726190Y39416666D01*
X11011904Y39416666D01*
X11107142Y39369047D01*
X11154761Y39321428D01*
X11202380Y39226190D01*
X11202380Y39035714D01*
X11154761Y38940476D01*
X10297619Y39797619D02*
X10250000Y39845238D01*
X10202380Y39940476D01*
X10202380Y40178571D01*
X10250000Y40273809D01*
X10297619Y40321428D01*
X10392857Y40369047D01*
X10488095Y40369047D01*
X10630952Y40321428D01*
X11202380Y39750000D01*
X11202380Y40369047D01*
X12785714Y38559523D02*
X13595238Y38559523D01*
X13690476Y38511904D01*
X13738095Y38464285D01*
X13785714Y38369047D01*
X13785714Y38226190D01*
X13738095Y38130952D01*
X13404761Y38559523D02*
X13452380Y38464285D01*
X13452380Y38273809D01*
X13404761Y38178571D01*
X13357142Y38130952D01*
X13261904Y38083333D01*
X12976190Y38083333D01*
X12880952Y38130952D01*
X12833333Y38178571D01*
X12785714Y38273809D01*
X12785714Y38464285D01*
X12833333Y38559523D01*
X12785714Y39035714D02*
X13452380Y39035714D01*
X12880952Y39035714D02*
X12833333Y39083333D01*
X12785714Y39178571D01*
X12785714Y39321428D01*
X12833333Y39416666D01*
X12928571Y39464285D01*
X13452380Y39464285D01*
X13452380Y40369047D02*
X12452380Y40369047D01*
X13404761Y40369047D02*
X13452380Y40273809D01*
X13452380Y40083333D01*
X13404761Y39988095D01*
X13357142Y39940476D01*
X13261904Y39892857D01*
X12976190Y39892857D01*
X12880952Y39940476D01*
X12833333Y39988095D01*
X12785714Y40083333D01*
X12785714Y40273809D01*
X12833333Y40369047D01*
X7785714Y38559523D02*
X8595238Y38559523D01*
X8690476Y38511904D01*
X8738095Y38464285D01*
X8785714Y38369047D01*
X8785714Y38226190D01*
X8738095Y38130952D01*
X8404761Y38559523D02*
X8452380Y38464285D01*
X8452380Y38273809D01*
X8404761Y38178571D01*
X8357142Y38130952D01*
X8261904Y38083333D01*
X7976190Y38083333D01*
X7880952Y38130952D01*
X7833333Y38178571D01*
X7785714Y38273809D01*
X7785714Y38464285D01*
X7833333Y38559523D01*
X7785714Y39035714D02*
X8452380Y39035714D01*
X7880952Y39035714D02*
X7833333Y39083333D01*
X7785714Y39178571D01*
X7785714Y39321428D01*
X7833333Y39416666D01*
X7928571Y39464285D01*
X8452380Y39464285D01*
X8452380Y40369047D02*
X7452380Y40369047D01*
X8404761Y40369047D02*
X8452380Y40273809D01*
X8452380Y40083333D01*
X8404761Y39988095D01*
X8357142Y39940476D01*
X8261904Y39892857D01*
X7976190Y39892857D01*
X7880952Y39940476D01*
X7833333Y39988095D01*
X7785714Y40083333D01*
X7785714Y40273809D01*
X7833333Y40369047D01*
D10*
X38000000Y38500000D02*
X40000000Y38500000D01*
X38000000Y34250000D02*
X38000000Y38500000D01*
X27500000Y34250000D02*
X38000000Y34250000D01*
X27500000Y38500000D02*
X27500000Y34250000D01*
X17250000Y38500000D02*
X27500000Y38500000D01*
X17250000Y34250000D02*
X17250000Y38500000D01*
D13*
X61100000Y26700000D02*
X61100000Y19600000D01*
X53900000Y26700000D02*
X61100000Y26700000D01*
X53900000Y19600000D02*
X53900000Y26700000D01*
X61100000Y19600000D02*
X53900000Y19600000D01*
D14*
X38820000Y38190000D02*
X46440000Y38190000D01*
X38060000Y37430000D02*
X38820000Y38190000D01*
X38820000Y29810000D02*
X38060000Y30570000D01*
X46440000Y29810000D02*
X38820000Y29810000D01*
X46440000Y38190000D02*
X46440000Y35560000D01*
X46440000Y29810000D02*
X46440000Y32440000D01*
X38060000Y30570000D02*
X38060000Y32440000D01*
X38060000Y37430000D02*
X38060000Y35560000D01*
X47150000Y23600000D02*
X47850000Y23600000D01*
X47850000Y22400000D02*
X47150000Y22400000D01*
X48350000Y19900000D02*
X47650000Y19900000D01*
X47650000Y21100000D02*
X48350000Y21100000D01*
X42900000Y10650000D02*
X42900000Y11350000D01*
X44100000Y11350000D02*
X44100000Y10650000D01*
X56100000Y37900000D02*
X55400000Y37900000D01*
X55400000Y39100000D02*
X56100000Y39100000D01*
X64350000Y37900000D02*
X63650000Y37900000D01*
X63650000Y39100000D02*
X64350000Y39100000D01*
X56400000Y2100000D02*
X57100000Y2100000D01*
X57100000Y900000D02*
X56400000Y900000D01*
X62900000Y2100000D02*
X63600000Y2100000D01*
X63600000Y900000D02*
X62900000Y900000D01*
X13940000Y32680000D02*
X13940000Y25060000D01*
X13180000Y33440000D02*
X13940000Y32680000D01*
X5560000Y32680000D02*
X6320000Y33440000D01*
X5560000Y25060000D02*
X5560000Y32680000D01*
X13940000Y25060000D02*
X11310000Y25060000D01*
X5560000Y25060000D02*
X8190000Y25060000D01*
X6320000Y33440000D02*
X8190000Y33440000D01*
X13180000Y33440000D02*
X11310000Y33440000D01*
X22690000Y15570000D02*
X22690000Y17440000D01*
X22690000Y22430000D02*
X22690000Y20560000D01*
X14310000Y23190000D02*
X14310000Y20560000D01*
X14310000Y14810000D02*
X14310000Y17440000D01*
X14310000Y23190000D02*
X21930000Y23190000D01*
X21930000Y23190000D02*
X22690000Y22430000D01*
X22690000Y15570000D02*
X21930000Y14810000D01*
X21930000Y14810000D02*
X14310000Y14810000D01*
X22930000Y33440000D02*
X21060000Y33440000D01*
X16070000Y33440000D02*
X17940000Y33440000D01*
X15310000Y25060000D02*
X17940000Y25060000D01*
X23690000Y25060000D02*
X21060000Y25060000D01*
X15310000Y25060000D02*
X15310000Y32680000D01*
X15310000Y32680000D02*
X16070000Y33440000D01*
X22930000Y33440000D02*
X23690000Y32680000D01*
X23690000Y32680000D02*
X23690000Y25060000D01*
X40599999Y10900000D02*
X39900001Y10900000D01*
X39900001Y12100000D02*
X40599999Y12100000D01*
X34250000Y23480000D02*
X36250000Y23480000D01*
X36250000Y25520000D02*
X34250000Y25520000D01*
X58200000Y37560000D02*
X55000000Y37560000D01*
X55000000Y35440000D02*
X58200000Y35440000D01*
X58200000Y35440000D02*
X58200000Y37560000D01*
X66200000Y37560000D02*
X63000000Y37560000D01*
X63000000Y35440000D02*
X66200000Y35440000D01*
X66200000Y35440000D02*
X66200000Y37560000D01*
X59200000Y2440000D02*
X59200000Y4560000D01*
X56000000Y2440000D02*
X59200000Y2440000D01*
X59200000Y4560000D02*
X56000000Y4560000D01*
X65200000Y4560000D02*
X62000000Y4560000D01*
X62000000Y2440000D02*
X65200000Y2440000D01*
X65200000Y2440000D02*
X65200000Y4560000D01*
X47050000Y4700000D02*
X44450000Y4700000D01*
X47050000Y6300000D02*
X44450000Y6300000D01*
X47050000Y4700000D02*
X47050000Y6300000D01*
X37100000Y5050000D02*
X37100000Y3450000D01*
X37100000Y3450000D02*
X39700000Y3450000D01*
X37100000Y5050000D02*
X39700000Y5050000D01*
X90800000Y27599999D02*
X90800000Y29400001D01*
X91700000Y28500000D02*
X89899999Y28500000D01*
X76669000Y28137000D02*
X76669000Y28863000D01*
X76709000Y27641000D02*
X76709000Y29359000D01*
X76749000Y27336000D02*
X76749000Y29664000D01*
X76789000Y27094999D02*
X76789000Y29905001D01*
X76829000Y26890000D02*
X76829000Y30110000D01*
X76869000Y26708000D02*
X76869000Y30292000D01*
X76909000Y26544000D02*
X76909000Y30456000D01*
X76949001Y26393000D02*
X76949001Y30607000D01*
X76989000Y26252000D02*
X76989000Y30748000D01*
X77029000Y26121000D02*
X77029000Y30879000D01*
X77069000Y25997000D02*
X77069000Y31003000D01*
X77109000Y25879000D02*
X77109000Y31121000D01*
X77149000Y25767000D02*
X77149000Y31233000D01*
X77189000Y25659000D02*
X77189000Y31341000D01*
X77229000Y25557000D02*
X77229000Y31443000D01*
X77269000Y25458000D02*
X77269000Y31542000D01*
X77309000Y25362000D02*
X77309000Y31638000D01*
X77349000Y25270000D02*
X77349000Y31730000D01*
X77389000Y25181000D02*
X77389000Y31819000D01*
X77429000Y25095000D02*
X77429000Y31905000D01*
X77469001Y25011000D02*
X77469001Y31989000D01*
X77509000Y24930000D02*
X77509000Y32070000D01*
X77549000Y24851000D02*
X77549000Y32149000D01*
X77589000Y24774000D02*
X77589000Y32226000D01*
X77629000Y24698000D02*
X77629000Y32302000D01*
X77669000Y24625000D02*
X77669000Y32375000D01*
X77709000Y24554000D02*
X77709000Y32446000D01*
X77749000Y24484000D02*
X77749000Y32516000D01*
X77789000Y24416000D02*
X77789000Y32584000D01*
X77829000Y24349000D02*
X77829000Y32651000D01*
X77869000Y24283000D02*
X77869000Y32717000D01*
X77909000Y24219000D02*
X77909000Y32781000D01*
X77949000Y24157000D02*
X77949000Y32843000D01*
X77989000Y24095000D02*
X77989000Y32905000D01*
X78029000Y24035000D02*
X78029000Y32965000D01*
X78069000Y23976000D02*
X78069000Y33024000D01*
X78109000Y23918000D02*
X78109000Y33082000D01*
X78149000Y23861000D02*
X78149000Y33139000D01*
X78189000Y23805000D02*
X78189000Y33195000D01*
X78229000Y23750000D02*
X78229000Y33250000D01*
X78269000Y23696001D02*
X78269000Y33303999D01*
X78309000Y23643000D02*
X78309000Y33357000D01*
X78349000Y23591000D02*
X78349000Y33409000D01*
X78389000Y23540000D02*
X78389000Y33460000D01*
X78429001Y23489000D02*
X78429001Y33511000D01*
X78469000Y23440000D02*
X78469000Y33560000D01*
X78509000Y23391000D02*
X78509000Y33609000D01*
X78549000Y23343000D02*
X78549000Y33657000D01*
X78589000Y23295000D02*
X78589000Y33705000D01*
X78629000Y23249000D02*
X78629000Y33751000D01*
X78669000Y23203000D02*
X78669000Y33797000D01*
X78709000Y23157000D02*
X78709000Y33843000D01*
X78749000Y23113000D02*
X78749000Y33887000D01*
X78789000Y23069000D02*
X78789000Y33931000D01*
X78829000Y23026000D02*
X78829000Y33974000D01*
X78869000Y22982999D02*
X78869000Y34017001D01*
X78908999Y22941000D02*
X78908999Y34059000D01*
X78949000Y22900000D02*
X78949000Y34100000D01*
X78989000Y22859000D02*
X78989000Y34141000D01*
X79029000Y22819000D02*
X79029000Y34181000D01*
X79069000Y22779000D02*
X79069000Y34221000D01*
X79109000Y22740000D02*
X79109000Y34260000D01*
X79149000Y22701000D02*
X79149000Y34299000D01*
X79189000Y22663000D02*
X79189000Y34337000D01*
X79229000Y22625000D02*
X79229000Y34375000D01*
X79269000Y22588000D02*
X79269000Y34412000D01*
X79309000Y22551999D02*
X79309000Y34448001D01*
X79349000Y22516000D02*
X79349000Y34484000D01*
X79389000Y22480000D02*
X79389000Y34520000D01*
X79429000Y22445000D02*
X79429000Y34555000D01*
X79469000Y22410000D02*
X79469000Y34590000D01*
X79509000Y22376000D02*
X79509000Y34624000D01*
X79549000Y22342000D02*
X79549000Y34658000D01*
X79589000Y22308999D02*
X79589000Y34691001D01*
X79629000Y29880000D02*
X79629000Y34724000D01*
X79629000Y22276000D02*
X79629000Y27120000D01*
X79669000Y29879999D02*
X79669000Y34757000D01*
X79669000Y22243000D02*
X79669000Y27120001D01*
X79709000Y29880000D02*
X79709000Y34789000D01*
X79709000Y22211000D02*
X79709000Y27120000D01*
X79749000Y29880000D02*
X79749000Y34819999D01*
X79749000Y22180001D02*
X79749000Y27120000D01*
X79789000Y29880000D02*
X79789000Y34852000D01*
X79789000Y22148000D02*
X79789000Y27120000D01*
X79829000Y29879999D02*
X79829001Y34882000D01*
X79829001Y22118000D02*
X79829000Y27120001D01*
X79869000Y29880000D02*
X79869000Y34913000D01*
X79869000Y22087000D02*
X79869000Y27120000D01*
X79909000Y29880000D02*
X79909001Y34943000D01*
X79909001Y22057000D02*
X79909000Y27120000D01*
X79949000Y29879999D02*
X79949000Y34973000D01*
X79949000Y22027000D02*
X79949000Y27120001D01*
X79989000Y29880000D02*
X79989000Y35002000D01*
X79989000Y21998000D02*
X79989000Y27120000D01*
X80029000Y29880000D02*
X80029000Y35031000D01*
X80029000Y21969000D02*
X80029000Y27120000D01*
X80069000Y29880000D02*
X80069000Y35059000D01*
X80069000Y21941000D02*
X80069000Y27120000D01*
X80109000Y29879999D02*
X80109000Y35087999D01*
X80109000Y21912001D02*
X80109000Y27120001D01*
X80149000Y29880000D02*
X80149000Y35115000D01*
X80149000Y21885000D02*
X80149000Y27120000D01*
X80189000Y29880000D02*
X80189000Y35143000D01*
X80189000Y21857000D02*
X80189000Y27120000D01*
X80229000Y29880000D02*
X80229000Y35170000D01*
X80229000Y21830000D02*
X80229000Y27120000D01*
X80269000Y29879999D02*
X80269000Y35197000D01*
X80269000Y21803000D02*
X80269000Y27120001D01*
X80309000Y29880000D02*
X80308999Y35223000D01*
X80308999Y21777000D02*
X80309000Y27120000D01*
X80349000Y29880000D02*
X80349000Y35249000D01*
X80349000Y21751000D02*
X80349000Y27120000D01*
X80389000Y29879999D02*
X80388999Y35275000D01*
X80388999Y21725000D02*
X80389000Y27120001D01*
X80429000Y29880000D02*
X80429000Y35301000D01*
X80429000Y21699000D02*
X80429000Y27120000D01*
X80469000Y29880000D02*
X80469000Y35325999D01*
X80469000Y21674001D02*
X80469000Y27120000D01*
X80509000Y29880000D02*
X80509000Y35350000D01*
X80509000Y21650000D02*
X80509000Y27120000D01*
X80549000Y29879999D02*
X80549000Y35375000D01*
X80549000Y21625000D02*
X80549000Y27120001D01*
X80589000Y29880000D02*
X80589000Y35399000D01*
X80589000Y21601000D02*
X80589000Y27120000D01*
X80629000Y29880000D02*
X80629000Y35423000D01*
X80629000Y21577000D02*
X80629000Y27120000D01*
X80669000Y29880000D02*
X80669000Y35446000D01*
X80669000Y21554000D02*
X80669000Y27120000D01*
X80709000Y29879999D02*
X80709000Y35470000D01*
X80709000Y21530000D02*
X80709000Y27120001D01*
X80749000Y29880000D02*
X80749000Y35492000D01*
X80749000Y21508000D02*
X80749000Y27120000D01*
X80789000Y29880000D02*
X80789001Y35515000D01*
X80789001Y21485000D02*
X80789000Y27120000D01*
X80829000Y29879999D02*
X80828999Y35537000D01*
X80828999Y21463000D02*
X80829000Y27120001D01*
X80869000Y29880000D02*
X80869000Y35559000D01*
X80869000Y21441000D02*
X80869000Y27120000D01*
X80909000Y29880000D02*
X80909000Y35581001D01*
X80909000Y21418999D02*
X80909000Y27120000D01*
X80949000Y29880000D02*
X80949000Y35602000D01*
X80949000Y21398000D02*
X80949000Y27120000D01*
X80989000Y29879999D02*
X80989000Y35624000D01*
X80989000Y21376000D02*
X80989000Y27120001D01*
X81029000Y29880000D02*
X81029000Y35644000D01*
X81029000Y21356000D02*
X81029000Y27120000D01*
X81069000Y29880000D02*
X81069000Y35665001D01*
X81069000Y21334999D02*
X81069000Y27120000D01*
X81109000Y29880000D02*
X81109000Y35685000D01*
X81109000Y21315000D02*
X81109000Y27120000D01*
X81149000Y29879999D02*
X81149000Y35704999D01*
X81149000Y21295001D02*
X81149000Y27120001D01*
X81189000Y29880000D02*
X81189000Y35725000D01*
X81189000Y21275000D02*
X81189000Y27120000D01*
X81229000Y29880000D02*
X81229000Y35745000D01*
X81229000Y21255000D02*
X81229000Y27120000D01*
X81269000Y29879999D02*
X81269000Y35764000D01*
X81269000Y21236000D02*
X81269000Y27120001D01*
X81309000Y29879999D02*
X81309000Y35783000D01*
X81309000Y21217000D02*
X81309000Y27120001D01*
X81349000Y29880000D02*
X81349000Y35801000D01*
X81349000Y21199000D02*
X81349000Y27120000D01*
X81389000Y29880000D02*
X81389000Y35820000D01*
X81389000Y21180000D02*
X81389000Y27120000D01*
X81429000Y29879999D02*
X81429000Y35838001D01*
X81429000Y21161999D02*
X81429000Y27120001D01*
X81469000Y29880000D02*
X81469000Y35856000D01*
X81469000Y21144000D02*
X81469000Y27120000D01*
X81509000Y29880000D02*
X81509000Y35873000D01*
X81509000Y21127000D02*
X81509000Y27120000D01*
X81549000Y29880000D02*
X81549000Y35891000D01*
X81549000Y21109000D02*
X81549000Y27120000D01*
X81589000Y29879999D02*
X81589000Y35908000D01*
X81589000Y21092000D02*
X81589000Y27120001D01*
X81629000Y29880000D02*
X81629000Y35925000D01*
X81629000Y21075000D02*
X81629000Y27120000D01*
X81669000Y29880000D02*
X81669000Y35941000D01*
X81669000Y21059000D02*
X81669000Y27120000D01*
X81709000Y29880000D02*
X81709000Y35958000D01*
X81709000Y21042000D02*
X81709000Y27120000D01*
X81749000Y29879999D02*
X81749000Y35974000D01*
X81749000Y21026000D02*
X81749000Y27120001D01*
X81789000Y29880000D02*
X81789000Y35990000D01*
X81789000Y21010000D02*
X81789000Y27120000D01*
X81829000Y29880000D02*
X81829000Y36005000D01*
X81829000Y20995000D02*
X81829000Y27120000D01*
X81869000Y29879999D02*
X81869000Y36021000D01*
X81869000Y20979000D02*
X81869000Y27120001D01*
X81909000Y29880000D02*
X81909000Y36036000D01*
X81909000Y20964000D02*
X81909000Y27120000D01*
X81949000Y29880000D02*
X81949000Y36050000D01*
X81949000Y20950000D02*
X81949000Y27120000D01*
X81989000Y29880000D02*
X81989000Y36065000D01*
X81989000Y20935000D02*
X81989000Y27120000D01*
X82029000Y29879999D02*
X82029000Y36079999D01*
X82029000Y20920001D02*
X82029000Y27120001D01*
X82069000Y29880000D02*
X82069000Y36094000D01*
X82069000Y20906000D02*
X82069000Y27120000D01*
X82109000Y29880000D02*
X82109000Y36108000D01*
X82109000Y20892000D02*
X82109000Y27120000D01*
X82149000Y29880000D02*
X82149000Y36121000D01*
X82149000Y20879000D02*
X82149000Y27120000D01*
X82189000Y29879999D02*
X82189000Y36135000D01*
X82189000Y20865000D02*
X82189000Y27120001D01*
X82229000Y29880000D02*
X82229000Y36148000D01*
X82229000Y20852000D02*
X82229000Y27120000D01*
X82269000Y29880000D02*
X82269001Y36161000D01*
X82269001Y20839000D02*
X82269000Y27120000D01*
X82309000Y29879999D02*
X82308999Y36174000D01*
X82308999Y20826000D02*
X82309000Y27120001D01*
X82349000Y29880000D02*
X82349000Y36186000D01*
X82349000Y20814000D02*
X82349000Y27120000D01*
X82389000Y20800999D02*
X82389000Y36199001D01*
X82429000Y20789000D02*
X82429000Y36211000D01*
X82469000Y20777000D02*
X82469000Y36223000D01*
X82509000Y20766000D02*
X82509000Y36234000D01*
X82549000Y20753999D02*
X82549000Y36246001D01*
X82589000Y20743000D02*
X82589000Y36257000D01*
X82629001Y20732000D02*
X82629001Y36268000D01*
X82669000Y20721000D02*
X82669000Y36279000D01*
X82709000Y20711000D02*
X82709000Y36289000D01*
X82749000Y20701000D02*
X82749000Y36299000D01*
X82789000Y20691000D02*
X82789000Y36309000D01*
X82829000Y20681001D02*
X82829000Y36318999D01*
X82869000Y20671000D02*
X82869000Y36329000D01*
X82909000Y20662000D02*
X82909000Y36338000D01*
X82949000Y20652000D02*
X82949000Y36348000D01*
X82989001Y20643000D02*
X82989001Y36357000D01*
X83029000Y20634000D02*
X83029000Y36366000D01*
X83069000Y20626000D02*
X83069000Y36374000D01*
X83109000Y20617000D02*
X83109000Y36383000D01*
X83149000Y20609000D02*
X83149000Y36391000D01*
X83188999Y20601000D02*
X83188999Y36399000D01*
X83229000Y20594000D02*
X83229000Y36406000D01*
X83268999Y20586000D02*
X83268999Y36414000D01*
X83309000Y20579000D02*
X83309000Y36421000D01*
X83349000Y20571999D02*
X83349000Y36428001D01*
X83389000Y20565000D02*
X83389000Y36435000D01*
X83429000Y20557999D02*
X83429000Y36442001D01*
X83469000Y20551000D02*
X83469000Y36449000D01*
X83509000Y20545001D02*
X83509000Y36454999D01*
X83549000Y20539000D02*
X83549000Y36461000D01*
X83589000Y20533000D02*
X83589000Y36467000D01*
X83629000Y20527001D02*
X83629000Y36472999D01*
X83669000Y20522000D02*
X83669000Y36478000D01*
X83709000Y20517000D02*
X83709000Y36483000D01*
X83749000Y20512000D02*
X83749000Y36488000D01*
X83788999Y20507000D02*
X83788999Y36493000D01*
X83829000Y20502000D02*
X83829000Y36498000D01*
X83869000Y20498000D02*
X83869000Y36502000D01*
X83909000Y20493000D02*
X83909000Y36507000D01*
X83949000Y20489001D02*
X83949000Y36510999D01*
X83989000Y20485000D02*
X83989000Y36515000D01*
X84029000Y20482000D02*
X84029000Y36518000D01*
X84070000Y20477999D02*
X84070000Y36522001D01*
X84110000Y20475000D02*
X84110000Y36525000D01*
X84150000Y20472000D02*
X84150000Y36528000D01*
X84190000Y20469000D02*
X84190000Y36531000D01*
X84230000Y20466000D02*
X84230000Y36534000D01*
X84270000Y20464000D02*
X84270000Y36536000D01*
X84310000Y20461000D02*
X84310000Y36539000D01*
X84349999Y20459000D02*
X84349999Y36541000D01*
X84390000Y20458000D02*
X84390000Y36542000D01*
X84429999Y20456000D02*
X84429999Y36544000D01*
X84470000Y20454000D02*
X84470000Y36546000D01*
X84510000Y20453000D02*
X84510000Y36547000D01*
X84550000Y20452000D02*
X84550000Y36548000D01*
X84590000Y20451000D02*
X84590000Y36549000D01*
X84630000Y20450000D02*
X84630000Y36550000D01*
X84670000Y20449999D02*
X84670000Y36550001D01*
X84710000Y20450000D02*
X84710000Y36550000D01*
X84750000Y20449000D02*
X84750000Y36551000D01*
X92840002Y28500000D02*
G75*
G03X92840002Y28500000I-8090001J0D01*
G01*
X92840002Y10500000D02*
G75*
G03X92840002Y10500000I-8090001J0D01*
G01*
X84750000Y2449000D02*
X84750000Y18551000D01*
X84710000Y2450000D02*
X84710000Y18550000D01*
X84670000Y2449999D02*
X84670000Y18550001D01*
X84630000Y2450000D02*
X84630000Y18550000D01*
X84590000Y2451000D02*
X84590000Y18549000D01*
X84550000Y2452000D02*
X84550000Y18548000D01*
X84510000Y2453000D02*
X84510000Y18547000D01*
X84470000Y2454000D02*
X84470000Y18546000D01*
X84429999Y2456000D02*
X84429999Y18544000D01*
X84390000Y2458000D02*
X84390000Y18542000D01*
X84349999Y2459000D02*
X84349999Y18541000D01*
X84310000Y2461000D02*
X84310000Y18539000D01*
X84270000Y2464000D02*
X84270000Y18536000D01*
X84230000Y2466000D02*
X84230000Y18534000D01*
X84190000Y2469000D02*
X84190000Y18531000D01*
X84150000Y2472000D02*
X84150000Y18528000D01*
X84110000Y2475000D02*
X84110000Y18525000D01*
X84070000Y2477999D02*
X84070000Y18522001D01*
X84029000Y2482000D02*
X84029000Y18518000D01*
X83989000Y2485000D02*
X83989000Y18515000D01*
X83949000Y2489001D02*
X83949000Y18510999D01*
X83909000Y2493000D02*
X83909000Y18507000D01*
X83869000Y2498000D02*
X83869000Y18502000D01*
X83829000Y2502000D02*
X83829000Y18498000D01*
X83788999Y2507000D02*
X83788999Y18493000D01*
X83749000Y2512000D02*
X83749000Y18488000D01*
X83709000Y2517000D02*
X83709000Y18483000D01*
X83669000Y2522000D02*
X83669000Y18478000D01*
X83629000Y2527001D02*
X83629000Y18472999D01*
X83589000Y2533000D02*
X83589000Y18467000D01*
X83549000Y2539000D02*
X83549000Y18461000D01*
X83509000Y2545001D02*
X83509000Y18454999D01*
X83469000Y2551000D02*
X83469000Y18449000D01*
X83429000Y2557999D02*
X83429000Y18442001D01*
X83389000Y2565000D02*
X83389000Y18435000D01*
X83349000Y2571999D02*
X83349000Y18428001D01*
X83309000Y2579000D02*
X83309000Y18421000D01*
X83268999Y2586000D02*
X83268999Y18414000D01*
X83229000Y2594000D02*
X83229000Y18406000D01*
X83188999Y2601000D02*
X83188999Y18399000D01*
X83149000Y2609000D02*
X83149000Y18391000D01*
X83109000Y2617000D02*
X83109000Y18383000D01*
X83069000Y2626000D02*
X83069000Y18374000D01*
X83029000Y2634000D02*
X83029000Y18366000D01*
X82989001Y2643000D02*
X82989001Y18357000D01*
X82949000Y2652000D02*
X82949000Y18348000D01*
X82909000Y2662000D02*
X82909000Y18338000D01*
X82869000Y2671000D02*
X82869000Y18329000D01*
X82829000Y2681001D02*
X82829000Y18318999D01*
X82789000Y2691000D02*
X82789000Y18309000D01*
X82749000Y2701000D02*
X82749000Y18299000D01*
X82709000Y2711000D02*
X82709000Y18289000D01*
X82669000Y2721000D02*
X82669000Y18279000D01*
X82629001Y2732000D02*
X82629001Y18268000D01*
X82589000Y2743000D02*
X82589000Y18257000D01*
X82549000Y2753999D02*
X82549000Y18246001D01*
X82509000Y2766000D02*
X82509000Y18234000D01*
X82469000Y2777000D02*
X82469000Y18223000D01*
X82429000Y2789000D02*
X82429000Y18211000D01*
X82389000Y2800999D02*
X82389000Y18199001D01*
X82349000Y2814000D02*
X82349000Y9120000D01*
X82349000Y11880000D02*
X82349000Y18186000D01*
X82308999Y2826000D02*
X82309000Y9120001D01*
X82309000Y11879999D02*
X82308999Y18174000D01*
X82269001Y2839000D02*
X82269000Y9120000D01*
X82269000Y11880000D02*
X82269001Y18161000D01*
X82229000Y2852000D02*
X82229000Y9120000D01*
X82229000Y11880000D02*
X82229000Y18148000D01*
X82189000Y2865000D02*
X82189000Y9120001D01*
X82189000Y11879999D02*
X82189000Y18135000D01*
X82149000Y2879000D02*
X82149000Y9120000D01*
X82149000Y11880000D02*
X82149000Y18121000D01*
X82109000Y2892000D02*
X82109000Y9120000D01*
X82109000Y11880000D02*
X82109000Y18108000D01*
X82069000Y2906000D02*
X82069000Y9120000D01*
X82069000Y11880000D02*
X82069000Y18094000D01*
X82029000Y2920001D02*
X82029000Y9120001D01*
X82029000Y11879999D02*
X82029000Y18079999D01*
X81989000Y2935000D02*
X81989000Y9120000D01*
X81989000Y11880000D02*
X81989000Y18065000D01*
X81949000Y2950000D02*
X81949000Y9120000D01*
X81949000Y11880000D02*
X81949000Y18050000D01*
X81909000Y2964000D02*
X81909000Y9120000D01*
X81909000Y11880000D02*
X81909000Y18036000D01*
X81869000Y2979000D02*
X81869000Y9120001D01*
X81869000Y11879999D02*
X81869000Y18021000D01*
X81829000Y2995000D02*
X81829000Y9120000D01*
X81829000Y11880000D02*
X81829000Y18005000D01*
X81789000Y3010000D02*
X81789000Y9120000D01*
X81789000Y11880000D02*
X81789000Y17990000D01*
X81749000Y3026000D02*
X81749000Y9120001D01*
X81749000Y11879999D02*
X81749000Y17974000D01*
X81709000Y3042000D02*
X81709000Y9120000D01*
X81709000Y11880000D02*
X81709000Y17958000D01*
X81669000Y3059000D02*
X81669000Y9120000D01*
X81669000Y11880000D02*
X81669000Y17941000D01*
X81629000Y3075000D02*
X81629000Y9120000D01*
X81629000Y11880000D02*
X81629000Y17925000D01*
X81589000Y3092000D02*
X81589000Y9120001D01*
X81589000Y11879999D02*
X81589000Y17908000D01*
X81549000Y3109000D02*
X81549000Y9120000D01*
X81549000Y11880000D02*
X81549000Y17891000D01*
X81509000Y3127000D02*
X81509000Y9120000D01*
X81509000Y11880000D02*
X81509000Y17873000D01*
X81469000Y3144000D02*
X81469000Y9120000D01*
X81469000Y11880000D02*
X81469000Y17856000D01*
X81429000Y3161999D02*
X81429000Y9120001D01*
X81429000Y11879999D02*
X81429000Y17838001D01*
X81389000Y3180000D02*
X81389000Y9120000D01*
X81389000Y11880000D02*
X81389000Y17820000D01*
X81349000Y3199000D02*
X81349000Y9120000D01*
X81349000Y11880000D02*
X81349000Y17801000D01*
X81309000Y3217000D02*
X81309000Y9120001D01*
X81309000Y11879999D02*
X81309000Y17783000D01*
X81269000Y3236000D02*
X81269000Y9120001D01*
X81269000Y11879999D02*
X81269000Y17764000D01*
X81229000Y3255000D02*
X81229000Y9120000D01*
X81229000Y11880000D02*
X81229000Y17745000D01*
X81189000Y3275000D02*
X81189000Y9120000D01*
X81189000Y11880000D02*
X81189000Y17725000D01*
X81149000Y3295001D02*
X81149000Y9120001D01*
X81149000Y11879999D02*
X81149000Y17704999D01*
X81109000Y3315000D02*
X81109000Y9120000D01*
X81109000Y11880000D02*
X81109000Y17685000D01*
X81069000Y3334999D02*
X81069000Y9120000D01*
X81069000Y11880000D02*
X81069000Y17665001D01*
X81029000Y3356000D02*
X81029000Y9120000D01*
X81029000Y11880000D02*
X81029000Y17644000D01*
X80989000Y3376000D02*
X80989000Y9120001D01*
X80989000Y11879999D02*
X80989000Y17624000D01*
X80949000Y3398000D02*
X80949000Y9120000D01*
X80949000Y11880000D02*
X80949000Y17602000D01*
X80909000Y3418999D02*
X80909000Y9120000D01*
X80909000Y11880000D02*
X80909000Y17581001D01*
X80869000Y3441000D02*
X80869000Y9120000D01*
X80869000Y11880000D02*
X80869000Y17559000D01*
X80828999Y3463000D02*
X80829000Y9120001D01*
X80829000Y11879999D02*
X80828999Y17537000D01*
X80789001Y3485000D02*
X80789000Y9120000D01*
X80789000Y11880000D02*
X80789001Y17515000D01*
X80749000Y3508000D02*
X80749000Y9120000D01*
X80749000Y11880000D02*
X80749000Y17492000D01*
X80709000Y3530000D02*
X80709000Y9120001D01*
X80709000Y11879999D02*
X80709000Y17470000D01*
X80669000Y3554000D02*
X80669000Y9120000D01*
X80669000Y11880000D02*
X80669000Y17446000D01*
X80629000Y3577000D02*
X80629000Y9120000D01*
X80629000Y11880000D02*
X80629000Y17423000D01*
X80589000Y3601000D02*
X80589000Y9120000D01*
X80589000Y11880000D02*
X80589000Y17399000D01*
X80549000Y3625000D02*
X80549000Y9120001D01*
X80549000Y11879999D02*
X80549000Y17375000D01*
X80509000Y3650000D02*
X80509000Y9120000D01*
X80509000Y11880000D02*
X80509000Y17350000D01*
X80469000Y3674001D02*
X80469000Y9120000D01*
X80469000Y11880000D02*
X80469000Y17325999D01*
X80429000Y3699000D02*
X80429000Y9120000D01*
X80429000Y11880000D02*
X80429000Y17301000D01*
X80388999Y3725000D02*
X80389000Y9120001D01*
X80389000Y11879999D02*
X80388999Y17275000D01*
X80349000Y3751000D02*
X80349000Y9120000D01*
X80349000Y11880000D02*
X80349000Y17249000D01*
X80308999Y3777000D02*
X80309000Y9120000D01*
X80309000Y11880000D02*
X80308999Y17223000D01*
X80269000Y3803000D02*
X80269000Y9120001D01*
X80269000Y11879999D02*
X80269000Y17197000D01*
X80229000Y3830000D02*
X80229000Y9120000D01*
X80229000Y11880000D02*
X80229000Y17170000D01*
X80189000Y3857000D02*
X80189000Y9120000D01*
X80189000Y11880000D02*
X80189000Y17143000D01*
X80149000Y3885000D02*
X80149000Y9120000D01*
X80149000Y11880000D02*
X80149000Y17115000D01*
X80109000Y3912001D02*
X80109000Y9120001D01*
X80109000Y11879999D02*
X80109000Y17087999D01*
X80069000Y3941000D02*
X80069000Y9120000D01*
X80069000Y11880000D02*
X80069000Y17059000D01*
X80029000Y3969000D02*
X80029000Y9120000D01*
X80029000Y11880000D02*
X80029000Y17031000D01*
X79989000Y3998000D02*
X79989000Y9120000D01*
X79989000Y11880000D02*
X79989000Y17002000D01*
X79949000Y4027000D02*
X79949000Y9120001D01*
X79949000Y11879999D02*
X79949000Y16973000D01*
X79909001Y4057000D02*
X79909000Y9120000D01*
X79909000Y11880000D02*
X79909001Y16943000D01*
X79869000Y4087000D02*
X79869000Y9120000D01*
X79869000Y11880000D02*
X79869000Y16913000D01*
X79829001Y4118000D02*
X79829000Y9120001D01*
X79829000Y11879999D02*
X79829001Y16882000D01*
X79789000Y4148000D02*
X79789000Y9120000D01*
X79789000Y11880000D02*
X79789000Y16852000D01*
X79749000Y4180001D02*
X79749000Y9120000D01*
X79749000Y11880000D02*
X79749000Y16819999D01*
X79709000Y4211000D02*
X79709000Y9120000D01*
X79709000Y11880000D02*
X79709000Y16789000D01*
X79669000Y4243000D02*
X79669000Y9120001D01*
X79669000Y11879999D02*
X79669000Y16757000D01*
X79629000Y4276000D02*
X79629000Y9120000D01*
X79629000Y11880000D02*
X79629000Y16724000D01*
X79589000Y4308999D02*
X79589000Y16691001D01*
X79549000Y4342000D02*
X79549000Y16658000D01*
X79509000Y4376000D02*
X79509000Y16624000D01*
X79469000Y4410000D02*
X79469000Y16590000D01*
X79429000Y4445000D02*
X79429000Y16555000D01*
X79389000Y4480000D02*
X79389000Y16520000D01*
X79349000Y4516000D02*
X79349000Y16484000D01*
X79309000Y4551999D02*
X79309000Y16448001D01*
X79269000Y4588000D02*
X79269000Y16412000D01*
X79229000Y4625000D02*
X79229000Y16375000D01*
X79189000Y4663000D02*
X79189000Y16337000D01*
X79149000Y4701000D02*
X79149000Y16299000D01*
X79109000Y4740000D02*
X79109000Y16260000D01*
X79069000Y4779000D02*
X79069000Y16221000D01*
X79029000Y4819000D02*
X79029000Y16181000D01*
X78989000Y4859000D02*
X78989000Y16141000D01*
X78949000Y4900000D02*
X78949000Y16100000D01*
X78908999Y4941000D02*
X78908999Y16059000D01*
X78869000Y4982999D02*
X78869000Y16017001D01*
X78829000Y5026000D02*
X78829000Y15974000D01*
X78789000Y5069000D02*
X78789000Y15931000D01*
X78749000Y5113000D02*
X78749000Y15887000D01*
X78709000Y5157000D02*
X78709000Y15843000D01*
X78669000Y5203000D02*
X78669000Y15797000D01*
X78629000Y5249000D02*
X78629000Y15751000D01*
X78589000Y5295000D02*
X78589000Y15705000D01*
X78549000Y5343000D02*
X78549000Y15657000D01*
X78509000Y5391000D02*
X78509000Y15609000D01*
X78469000Y5440000D02*
X78469000Y15560000D01*
X78429001Y5489000D02*
X78429001Y15511000D01*
X78389000Y5540000D02*
X78389000Y15460000D01*
X78349000Y5591000D02*
X78349000Y15409000D01*
X78309000Y5643000D02*
X78309000Y15357000D01*
X78269000Y5696001D02*
X78269000Y15303999D01*
X78229000Y5750000D02*
X78229000Y15250000D01*
X78189000Y5805000D02*
X78189000Y15195000D01*
X78149000Y5861000D02*
X78149000Y15139000D01*
X78109000Y5918000D02*
X78109000Y15082000D01*
X78069000Y5976000D02*
X78069000Y15024000D01*
X78029000Y6035000D02*
X78029000Y14965000D01*
X77989000Y6095000D02*
X77989000Y14905000D01*
X77949000Y6157000D02*
X77949000Y14843000D01*
X77909000Y6219000D02*
X77909000Y14781000D01*
X77869000Y6283000D02*
X77869000Y14717000D01*
X77829000Y6349000D02*
X77829000Y14651000D01*
X77789000Y6416000D02*
X77789000Y14584000D01*
X77749000Y6484000D02*
X77749000Y14516000D01*
X77709000Y6554000D02*
X77709000Y14446000D01*
X77669000Y6625000D02*
X77669000Y14375000D01*
X77629000Y6698000D02*
X77629000Y14302000D01*
X77589000Y6774000D02*
X77589000Y14226000D01*
X77549000Y6851000D02*
X77549000Y14149000D01*
X77509000Y6930000D02*
X77509000Y14070000D01*
X77469001Y7011000D02*
X77469001Y13989000D01*
X77429000Y7095000D02*
X77429000Y13905000D01*
X77389000Y7181000D02*
X77389000Y13819000D01*
X77349000Y7270000D02*
X77349000Y13730000D01*
X77309000Y7362000D02*
X77309000Y13638000D01*
X77269000Y7458000D02*
X77269000Y13542000D01*
X77229000Y7557000D02*
X77229000Y13443000D01*
X77189000Y7659000D02*
X77189000Y13341000D01*
X77149000Y7767000D02*
X77149000Y13233000D01*
X77109000Y7879000D02*
X77109000Y13121000D01*
X77069000Y7997000D02*
X77069000Y13003000D01*
X77029000Y8121000D02*
X77029000Y12879000D01*
X76989000Y8252000D02*
X76989000Y12748000D01*
X76949001Y8393000D02*
X76949001Y12607000D01*
X76909000Y8544000D02*
X76909000Y12456000D01*
X76869000Y8708000D02*
X76869000Y12292000D01*
X76829000Y8890000D02*
X76829000Y12110000D01*
X76789000Y9094999D02*
X76789000Y11905001D01*
X76749000Y9336000D02*
X76749000Y11664000D01*
X76709000Y9641000D02*
X76709000Y11359000D01*
X76669000Y10137000D02*
X76669000Y10863000D01*
X91700000Y10500000D02*
X89899999Y10500000D01*
X90800000Y9599999D02*
X90800000Y11400001D01*
X40250000Y27430000D02*
X41250000Y27430000D01*
X41250000Y26070000D02*
X40250000Y26070000D01*
X46500000Y24320000D02*
X45500000Y24320000D01*
X45500000Y25680000D02*
X46500000Y25680000D01*
X44500000Y28180000D02*
X45500000Y28180000D01*
X45500000Y26820000D02*
X44500000Y26820000D01*
X47000000Y17430000D02*
X48000000Y17430000D01*
X48000000Y16070000D02*
X47000000Y16070000D01*
X47750000Y12320000D02*
X46750000Y12320000D01*
X46750000Y13680000D02*
X47750000Y13680000D01*
X37250000Y10820000D02*
X36250000Y10820000D01*
X36250000Y12180000D02*
X37250000Y12180000D01*
X41250000Y23820000D02*
X40250000Y23820000D01*
X40250000Y25180000D02*
X41250000Y25180000D01*
X33250000Y8820000D02*
X32250000Y8820000D01*
X32250000Y10180000D02*
X33250000Y10180000D01*
X32250000Y8180000D02*
X33250000Y8180000D01*
X33250000Y6820000D02*
X32250000Y6820000D01*
X33000000Y5680000D02*
X34000000Y5680000D01*
X34000000Y4320000D02*
X33000000Y4320000D01*
X6750000Y22930000D02*
X7750000Y22930000D01*
X7750000Y21570000D02*
X6750000Y21570000D01*
X7750000Y18820000D02*
X6750000Y18820000D01*
X6750000Y20180000D02*
X7750000Y20180000D01*
D13*
X40850000Y13600000D02*
X35650000Y13600000D01*
X35650000Y13600000D02*
X35650000Y22400000D01*
X35650000Y22400000D02*
X40850000Y22400000D01*
X40850000Y22400000D02*
X40850000Y13600000D01*
X40574264Y14500000D02*
G75*
G03X40574264Y14500000I-424264J0D01*
G01*
X40432843Y14500000D02*
G75*
G03X40432843Y14500000I-282843J0D01*
G01*
X72100000Y20000000D02*
X64900000Y20000000D01*
X64900000Y20000000D02*
X64900000Y27100000D01*
X64900000Y27100000D02*
X72100000Y27100000D01*
X72100000Y27100000D02*
X72100000Y20000000D01*
X53900000Y17400000D02*
X61100000Y17400000D01*
X61100000Y17400000D02*
X61100000Y10300000D01*
X61100000Y10300000D02*
X53900000Y10300000D01*
X53900000Y10300000D02*
X53900000Y17400000D01*
X64900000Y10300000D02*
X64900000Y17400000D01*
X72100000Y10300000D02*
X64900000Y10300000D01*
X72100000Y17400000D02*
X72100000Y10300000D01*
X64900000Y17400000D02*
X72100000Y17400000D01*
D15*
X13040000Y12540000D02*
X7960000Y12540000D01*
X7960000Y12540000D02*
X7960000Y7460000D01*
X7960000Y7460000D02*
X13040000Y7460000D01*
X13040000Y7460000D02*
X13040000Y12540000D01*
X10500000Y12540000D02*
X10500000Y7460000D01*
D16*
X56338857Y17834571D02*
X56338857Y16600857D01*
X56411428Y16455714D01*
X56484000Y16383142D01*
X56629142Y16310571D01*
X56919428Y16310571D01*
X57064571Y16383142D01*
X57137142Y16455714D01*
X57209714Y16600857D01*
X57209714Y17834571D01*
X57862857Y17689428D02*
X57935428Y17762000D01*
X58080571Y17834571D01*
X58443428Y17834571D01*
X58588571Y17762000D01*
X58661142Y17689428D01*
X58733714Y17544285D01*
X58733714Y17399142D01*
X58661142Y17181428D01*
X57790285Y16310571D01*
X58733714Y16310571D01*
D15*
X41833333Y30892857D02*
X41785714Y30845238D01*
X41642857Y30797619D01*
X41547619Y30797619D01*
X41404761Y30845238D01*
X41309523Y30940476D01*
X41261904Y31035714D01*
X41214285Y31226190D01*
X41214285Y31369047D01*
X41261904Y31559523D01*
X41309523Y31654761D01*
X41404761Y31750000D01*
X41547619Y31797619D01*
X41642857Y31797619D01*
X41785714Y31750000D01*
X41833333Y31702380D01*
X42785714Y30797619D02*
X42214285Y30797619D01*
X42500000Y30797619D02*
X42500000Y31797619D01*
X42404761Y31654761D01*
X42309523Y31559523D01*
X42214285Y31511904D01*
X37149047Y30078571D02*
X37910952Y30078571D01*
X37530000Y29697619D02*
X37530000Y30459523D01*
X49833333Y22642857D02*
X49785714Y22595238D01*
X49642857Y22547619D01*
X49547619Y22547619D01*
X49404761Y22595238D01*
X49309523Y22690476D01*
X49261904Y22785714D01*
X49214285Y22976190D01*
X49214285Y23119047D01*
X49261904Y23309523D01*
X49309523Y23404761D01*
X49404761Y23500000D01*
X49547619Y23547619D01*
X49642857Y23547619D01*
X49785714Y23500000D01*
X49833333Y23452380D01*
X50214285Y23452380D02*
X50261904Y23500000D01*
X50357142Y23547619D01*
X50595238Y23547619D01*
X50690476Y23500000D01*
X50738095Y23452380D01*
X50785714Y23357142D01*
X50785714Y23261904D01*
X50738095Y23119047D01*
X50166666Y22547619D01*
X50785714Y22547619D01*
X50333333Y20142857D02*
X50285714Y20095238D01*
X50142857Y20047619D01*
X50047619Y20047619D01*
X49904761Y20095238D01*
X49809523Y20190476D01*
X49761904Y20285714D01*
X49714285Y20476190D01*
X49714285Y20619047D01*
X49761904Y20809523D01*
X49809523Y20904761D01*
X49904761Y21000000D01*
X50047619Y21047619D01*
X50142857Y21047619D01*
X50285714Y21000000D01*
X50333333Y20952380D01*
X50666666Y21047619D02*
X51285714Y21047619D01*
X50952380Y20666666D01*
X51095238Y20666666D01*
X51190476Y20619047D01*
X51238095Y20571428D01*
X51285714Y20476190D01*
X51285714Y20238095D01*
X51238095Y20142857D01*
X51190476Y20095238D01*
X51095238Y20047619D01*
X50809523Y20047619D01*
X50714285Y20095238D01*
X50666666Y20142857D01*
X42357142Y10833333D02*
X42404761Y10785714D01*
X42452380Y10642857D01*
X42452380Y10547619D01*
X42404761Y10404761D01*
X42309523Y10309523D01*
X42214285Y10261904D01*
X42023809Y10214285D01*
X41880952Y10214285D01*
X41690476Y10261904D01*
X41595238Y10309523D01*
X41500000Y10404761D01*
X41452380Y10547619D01*
X41452380Y10642857D01*
X41500000Y10785714D01*
X41547619Y10833333D01*
X41785714Y11690476D02*
X42452380Y11690476D01*
X41404761Y11452380D02*
X42119047Y11214285D01*
X42119047Y11833333D01*
X52333333Y38142857D02*
X52285714Y38095238D01*
X52142857Y38047619D01*
X52047619Y38047619D01*
X51904761Y38095238D01*
X51809523Y38190476D01*
X51761904Y38285714D01*
X51714285Y38476190D01*
X51714285Y38619047D01*
X51761904Y38809523D01*
X51809523Y38904761D01*
X51904761Y39000000D01*
X52047619Y39047619D01*
X52142857Y39047619D01*
X52285714Y39000000D01*
X52333333Y38952380D01*
X53238095Y39047619D02*
X52761904Y39047619D01*
X52714285Y38571428D01*
X52761904Y38619047D01*
X52857142Y38666666D01*
X53095238Y38666666D01*
X53190476Y38619047D01*
X53238095Y38571428D01*
X53285714Y38476190D01*
X53285714Y38238095D01*
X53238095Y38142857D01*
X53190476Y38095238D01*
X53095238Y38047619D01*
X52857142Y38047619D01*
X52761904Y38095238D01*
X52714285Y38142857D01*
X59833333Y38142857D02*
X59785714Y38095238D01*
X59642857Y38047619D01*
X59547619Y38047619D01*
X59404761Y38095238D01*
X59309523Y38190476D01*
X59261904Y38285714D01*
X59214285Y38476190D01*
X59214285Y38619047D01*
X59261904Y38809523D01*
X59309523Y38904761D01*
X59404761Y39000000D01*
X59547619Y39047619D01*
X59642857Y39047619D01*
X59785714Y39000000D01*
X59833333Y38952380D01*
X60690476Y39047619D02*
X60500000Y39047619D01*
X60404761Y39000000D01*
X60357142Y38952380D01*
X60261904Y38809523D01*
X60214285Y38619047D01*
X60214285Y38238095D01*
X60261904Y38142857D01*
X60309523Y38095238D01*
X60404761Y38047619D01*
X60595238Y38047619D01*
X60690476Y38095238D01*
X60738095Y38142857D01*
X60785714Y38238095D01*
X60785714Y38476190D01*
X60738095Y38571428D01*
X60690476Y38619047D01*
X60595238Y38666666D01*
X60404761Y38666666D01*
X60309523Y38619047D01*
X60261904Y38571428D01*
X60214285Y38476190D01*
X53333333Y1142857D02*
X53285714Y1095238D01*
X53142857Y1047619D01*
X53047619Y1047619D01*
X52904761Y1095238D01*
X52809523Y1190476D01*
X52761904Y1285714D01*
X52714285Y1476190D01*
X52714285Y1619047D01*
X52761904Y1809523D01*
X52809523Y1904761D01*
X52904761Y2000000D01*
X53047619Y2047619D01*
X53142857Y2047619D01*
X53285714Y2000000D01*
X53333333Y1952380D01*
X53666666Y2047619D02*
X54333333Y2047619D01*
X53904761Y1047619D01*
X59833333Y1142857D02*
X59785714Y1095238D01*
X59642857Y1047619D01*
X59547619Y1047619D01*
X59404761Y1095238D01*
X59309523Y1190476D01*
X59261904Y1285714D01*
X59214285Y1476190D01*
X59214285Y1619047D01*
X59261904Y1809523D01*
X59309523Y1904761D01*
X59404761Y2000000D01*
X59547619Y2047619D01*
X59642857Y2047619D01*
X59785714Y2000000D01*
X59833333Y1952380D01*
X60404761Y1619047D02*
X60309523Y1666666D01*
X60261904Y1714285D01*
X60214285Y1809523D01*
X60214285Y1857142D01*
X60261904Y1952380D01*
X60309523Y2000000D01*
X60404761Y2047619D01*
X60595238Y2047619D01*
X60690476Y2000000D01*
X60738095Y1952380D01*
X60785714Y1857142D01*
X60785714Y1809523D01*
X60738095Y1714285D01*
X60690476Y1666666D01*
X60595238Y1619047D01*
X60404761Y1619047D01*
X60309523Y1571428D01*
X60261904Y1523809D01*
X60214285Y1428571D01*
X60214285Y1238095D01*
X60261904Y1142857D01*
X60309523Y1095238D01*
X60404761Y1047619D01*
X60595238Y1047619D01*
X60690476Y1095238D01*
X60738095Y1142857D01*
X60785714Y1238095D01*
X60785714Y1428571D01*
X60738095Y1523809D01*
X60690476Y1571428D01*
X60595238Y1619047D01*
X12607142Y28833333D02*
X12654761Y28785714D01*
X12702380Y28642857D01*
X12702380Y28547619D01*
X12654761Y28404761D01*
X12559523Y28309523D01*
X12464285Y28261904D01*
X12273809Y28214285D01*
X12130952Y28214285D01*
X11940476Y28261904D01*
X11845238Y28309523D01*
X11750000Y28404761D01*
X11702380Y28547619D01*
X11702380Y28642857D01*
X11750000Y28785714D01*
X11797619Y28833333D01*
X12702380Y29309523D02*
X12702380Y29500000D01*
X12654761Y29595238D01*
X12607142Y29642857D01*
X12464285Y29738095D01*
X12273809Y29785714D01*
X11892857Y29785714D01*
X11797619Y29738095D01*
X11750000Y29690476D01*
X11702380Y29595238D01*
X11702380Y29404761D01*
X11750000Y29309523D01*
X11797619Y29261904D01*
X11892857Y29214285D01*
X12130952Y29214285D01*
X12226190Y29261904D01*
X12273809Y29309523D01*
X12321428Y29404761D01*
X12321428Y29595238D01*
X12273809Y29690476D01*
X12226190Y29738095D01*
X12130952Y29785714D01*
X5971428Y33589047D02*
X5971428Y34350952D01*
X6352380Y33970000D02*
X5590476Y33970000D01*
X18107142Y21392857D02*
X18059523Y21345238D01*
X17916666Y21297619D01*
X17821428Y21297619D01*
X17678571Y21345238D01*
X17583333Y21440476D01*
X17535714Y21535714D01*
X17488095Y21726190D01*
X17488095Y21869047D01*
X17535714Y22059523D01*
X17583333Y22154761D01*
X17678571Y22250000D01*
X17821428Y22297619D01*
X17916666Y22297619D01*
X18059523Y22250000D01*
X18107142Y22202380D01*
X19059523Y21297619D02*
X18488095Y21297619D01*
X18773809Y21297619D02*
X18773809Y22297619D01*
X18678571Y22154761D01*
X18583333Y22059523D01*
X18488095Y22011904D01*
X19678571Y22297619D02*
X19773809Y22297619D01*
X19869047Y22250000D01*
X19916666Y22202380D01*
X19964285Y22107142D01*
X20011904Y21916666D01*
X20011904Y21678571D01*
X19964285Y21488095D01*
X19916666Y21392857D01*
X19869047Y21345238D01*
X19773809Y21297619D01*
X19678571Y21297619D01*
X19583333Y21345238D01*
X19535714Y21392857D01*
X19488095Y21488095D01*
X19440476Y21678571D01*
X19440476Y21916666D01*
X19488095Y22107142D01*
X19535714Y22202380D01*
X19583333Y22250000D01*
X19678571Y22297619D01*
X22839047Y22778571D02*
X23600952Y22778571D01*
X23220000Y22397619D02*
X23220000Y23159523D01*
X17107142Y28857142D02*
X17154761Y28809523D01*
X17202380Y28666666D01*
X17202380Y28571428D01*
X17154761Y28428571D01*
X17059523Y28333333D01*
X16964285Y28285714D01*
X16773809Y28238095D01*
X16630952Y28238095D01*
X16440476Y28285714D01*
X16345238Y28333333D01*
X16250000Y28428571D01*
X16202380Y28571428D01*
X16202380Y28666666D01*
X16250000Y28809523D01*
X16297619Y28857142D01*
X17202380Y29809523D02*
X17202380Y29238095D01*
X17202380Y29523809D02*
X16202380Y29523809D01*
X16345238Y29428571D01*
X16440476Y29333333D01*
X16488095Y29238095D01*
X17202380Y30761904D02*
X17202380Y30190476D01*
X17202380Y30476190D02*
X16202380Y30476190D01*
X16345238Y30380952D01*
X16440476Y30285714D01*
X16488095Y30190476D01*
X15721428Y33589047D02*
X15721428Y34350952D01*
X16102380Y33970000D02*
X15340476Y33970000D01*
X39607142Y12642857D02*
X39559523Y12595238D01*
X39416666Y12547619D01*
X39321428Y12547619D01*
X39178571Y12595238D01*
X39083333Y12690476D01*
X39035714Y12785714D01*
X38988095Y12976190D01*
X38988095Y13119047D01*
X39035714Y13309523D01*
X39083333Y13404761D01*
X39178571Y13500000D01*
X39321428Y13547619D01*
X39416666Y13547619D01*
X39559523Y13500000D01*
X39607142Y13452380D01*
X40559523Y12547619D02*
X39988095Y12547619D01*
X40273809Y12547619D02*
X40273809Y13547619D01*
X40178571Y13404761D01*
X40083333Y13309523D01*
X39988095Y13261904D01*
X40940476Y13452380D02*
X40988095Y13500000D01*
X41083333Y13547619D01*
X41321428Y13547619D01*
X41416666Y13500000D01*
X41464285Y13452380D01*
X41511904Y13357142D01*
X41511904Y13261904D01*
X41464285Y13119047D01*
X40892857Y12547619D01*
X41511904Y12547619D01*
X51761904Y36047619D02*
X51761904Y37047619D01*
X52000000Y37047619D01*
X52142857Y37000000D01*
X52238095Y36904761D01*
X52285714Y36809523D01*
X52333333Y36619047D01*
X52333333Y36476190D01*
X52285714Y36285714D01*
X52238095Y36190476D01*
X52142857Y36095238D01*
X52000000Y36047619D01*
X51761904Y36047619D01*
X53285714Y36047619D02*
X52714285Y36047619D01*
X53000000Y36047619D02*
X53000000Y37047619D01*
X52904761Y36904761D01*
X52809523Y36809523D01*
X52714285Y36761904D01*
X59261904Y36047619D02*
X59261904Y37047619D01*
X59500000Y37047619D01*
X59642857Y37000000D01*
X59738095Y36904761D01*
X59785714Y36809523D01*
X59833333Y36619047D01*
X59833333Y36476190D01*
X59785714Y36285714D01*
X59738095Y36190476D01*
X59642857Y36095238D01*
X59500000Y36047619D01*
X59261904Y36047619D01*
X60214285Y36952380D02*
X60261904Y37000000D01*
X60357142Y37047619D01*
X60595238Y37047619D01*
X60690476Y37000000D01*
X60738095Y36952380D01*
X60785714Y36857142D01*
X60785714Y36761904D01*
X60738095Y36619047D01*
X60166666Y36047619D01*
X60785714Y36047619D01*
X52761904Y3047619D02*
X52761904Y4047619D01*
X53000000Y4047619D01*
X53142857Y4000000D01*
X53238095Y3904761D01*
X53285714Y3809523D01*
X53333333Y3619047D01*
X53333333Y3476190D01*
X53285714Y3285714D01*
X53238095Y3190476D01*
X53142857Y3095238D01*
X53000000Y3047619D01*
X52761904Y3047619D01*
X53666666Y4047619D02*
X54285714Y4047619D01*
X53952380Y3666666D01*
X54095238Y3666666D01*
X54190476Y3619047D01*
X54238095Y3571428D01*
X54285714Y3476190D01*
X54285714Y3238095D01*
X54238095Y3142857D01*
X54190476Y3095238D01*
X54095238Y3047619D01*
X53809523Y3047619D01*
X53714285Y3095238D01*
X53666666Y3142857D01*
X59261904Y2797619D02*
X59261904Y3797619D01*
X59500000Y3797619D01*
X59642857Y3750000D01*
X59738095Y3654761D01*
X59785714Y3559523D01*
X59833333Y3369047D01*
X59833333Y3226190D01*
X59785714Y3035714D01*
X59738095Y2940476D01*
X59642857Y2845238D01*
X59500000Y2797619D01*
X59261904Y2797619D01*
X60690476Y3464285D02*
X60690476Y2797619D01*
X60452380Y3845238D02*
X60214285Y3130952D01*
X60833333Y3130952D01*
X44711904Y3447619D02*
X44711904Y4447619D01*
X44950000Y4447619D01*
X45092857Y4400000D01*
X45188095Y4304761D01*
X45235714Y4209523D01*
X45283333Y4019047D01*
X45283333Y3876190D01*
X45235714Y3685714D01*
X45188095Y3590476D01*
X45092857Y3495238D01*
X44950000Y3447619D01*
X44711904Y3447619D01*
X46188095Y4447619D02*
X45711904Y4447619D01*
X45664285Y3971428D01*
X45711904Y4019047D01*
X45807142Y4066666D01*
X46045238Y4066666D01*
X46140476Y4019047D01*
X46188095Y3971428D01*
X46235714Y3876190D01*
X46235714Y3638095D01*
X46188095Y3542857D01*
X46140476Y3495238D01*
X46045238Y3447619D01*
X45807142Y3447619D01*
X45711904Y3495238D01*
X45664285Y3542857D01*
X38107142Y1797619D02*
X37630952Y1797619D01*
X37630952Y2797619D01*
X38440476Y2321428D02*
X38773809Y2321428D01*
X38916666Y1797619D02*
X38440476Y1797619D01*
X38440476Y2797619D01*
X38916666Y2797619D01*
X39345238Y1797619D02*
X39345238Y2797619D01*
X39583333Y2797619D01*
X39726190Y2750000D01*
X39821428Y2654761D01*
X39869047Y2559523D01*
X39916666Y2369047D01*
X39916666Y2226190D01*
X39869047Y2035714D01*
X39821428Y1940476D01*
X39726190Y1845238D01*
X39583333Y1797619D01*
X39345238Y1797619D01*
X38333333Y27297619D02*
X38000000Y27773809D01*
X37761904Y27297619D02*
X37761904Y28297619D01*
X38142857Y28297619D01*
X38238095Y28250000D01*
X38285714Y28202380D01*
X38333333Y28107142D01*
X38333333Y27964285D01*
X38285714Y27869047D01*
X38238095Y27821428D01*
X38142857Y27773809D01*
X37761904Y27773809D01*
X39285714Y27297619D02*
X38714285Y27297619D01*
X39000000Y27297619D02*
X39000000Y28297619D01*
X38904761Y28154761D01*
X38809523Y28059523D01*
X38714285Y28011904D01*
X48333333Y24547619D02*
X48000000Y25023809D01*
X47761904Y24547619D02*
X47761904Y25547619D01*
X48142857Y25547619D01*
X48238095Y25500000D01*
X48285714Y25452380D01*
X48333333Y25357142D01*
X48333333Y25214285D01*
X48285714Y25119047D01*
X48238095Y25071428D01*
X48142857Y25023809D01*
X47761904Y25023809D01*
X48714285Y25452380D02*
X48761904Y25500000D01*
X48857142Y25547619D01*
X49095238Y25547619D01*
X49190476Y25500000D01*
X49238095Y25452380D01*
X49285714Y25357142D01*
X49285714Y25261904D01*
X49238095Y25119047D01*
X48666666Y24547619D01*
X49285714Y24547619D01*
X47333333Y27047619D02*
X47000000Y27523809D01*
X46761904Y27047619D02*
X46761904Y28047619D01*
X47142857Y28047619D01*
X47238095Y28000000D01*
X47285714Y27952380D01*
X47333333Y27857142D01*
X47333333Y27714285D01*
X47285714Y27619047D01*
X47238095Y27571428D01*
X47142857Y27523809D01*
X46761904Y27523809D01*
X47666666Y28047619D02*
X48285714Y28047619D01*
X47952380Y27666666D01*
X48095238Y27666666D01*
X48190476Y27619047D01*
X48238095Y27571428D01*
X48285714Y27476190D01*
X48285714Y27238095D01*
X48238095Y27142857D01*
X48190476Y27095238D01*
X48095238Y27047619D01*
X47809523Y27047619D01*
X47714285Y27095238D01*
X47666666Y27142857D01*
X49833333Y16297619D02*
X49500000Y16773809D01*
X49261904Y16297619D02*
X49261904Y17297619D01*
X49642857Y17297619D01*
X49738095Y17250000D01*
X49785714Y17202380D01*
X49833333Y17107142D01*
X49833333Y16964285D01*
X49785714Y16869047D01*
X49738095Y16821428D01*
X49642857Y16773809D01*
X49261904Y16773809D01*
X50690476Y16964285D02*
X50690476Y16297619D01*
X50452380Y17345238D02*
X50214285Y16630952D01*
X50833333Y16630952D01*
X49333333Y12547619D02*
X49000000Y13023809D01*
X48761904Y12547619D02*
X48761904Y13547619D01*
X49142857Y13547619D01*
X49238095Y13500000D01*
X49285714Y13452380D01*
X49333333Y13357142D01*
X49333333Y13214285D01*
X49285714Y13119047D01*
X49238095Y13071428D01*
X49142857Y13023809D01*
X48761904Y13023809D01*
X50238095Y13547619D02*
X49761904Y13547619D01*
X49714285Y13071428D01*
X49761904Y13119047D01*
X49857142Y13166666D01*
X50095238Y13166666D01*
X50190476Y13119047D01*
X50238095Y13071428D01*
X50285714Y12976190D01*
X50285714Y12738095D01*
X50238095Y12642857D01*
X50190476Y12595238D01*
X50095238Y12547619D01*
X49857142Y12547619D01*
X49761904Y12595238D01*
X49714285Y12642857D01*
X37333333Y9297619D02*
X37000000Y9773809D01*
X36761904Y9297619D02*
X36761904Y10297619D01*
X37142857Y10297619D01*
X37238095Y10250000D01*
X37285714Y10202380D01*
X37333333Y10107142D01*
X37333333Y9964285D01*
X37285714Y9869047D01*
X37238095Y9821428D01*
X37142857Y9773809D01*
X36761904Y9773809D01*
X38190476Y10297619D02*
X38000000Y10297619D01*
X37904761Y10250000D01*
X37857142Y10202380D01*
X37761904Y10059523D01*
X37714285Y9869047D01*
X37714285Y9488095D01*
X37761904Y9392857D01*
X37809523Y9345238D01*
X37904761Y9297619D01*
X38095238Y9297619D01*
X38190476Y9345238D01*
X38238095Y9392857D01*
X38285714Y9488095D01*
X38285714Y9726190D01*
X38238095Y9821428D01*
X38190476Y9869047D01*
X38095238Y9916666D01*
X37904761Y9916666D01*
X37809523Y9869047D01*
X37761904Y9821428D01*
X37714285Y9726190D01*
X38083333Y23797619D02*
X37750000Y24273809D01*
X37511904Y23797619D02*
X37511904Y24797619D01*
X37892857Y24797619D01*
X37988095Y24750000D01*
X38035714Y24702380D01*
X38083333Y24607142D01*
X38083333Y24464285D01*
X38035714Y24369047D01*
X37988095Y24321428D01*
X37892857Y24273809D01*
X37511904Y24273809D01*
X38416666Y24797619D02*
X39083333Y24797619D01*
X38654761Y23797619D01*
X34833333Y9047619D02*
X34500000Y9523809D01*
X34261904Y9047619D02*
X34261904Y10047619D01*
X34642857Y10047619D01*
X34738095Y10000000D01*
X34785714Y9952380D01*
X34833333Y9857142D01*
X34833333Y9714285D01*
X34785714Y9619047D01*
X34738095Y9571428D01*
X34642857Y9523809D01*
X34261904Y9523809D01*
X35404761Y9619047D02*
X35309523Y9666666D01*
X35261904Y9714285D01*
X35214285Y9809523D01*
X35214285Y9857142D01*
X35261904Y9952380D01*
X35309523Y10000000D01*
X35404761Y10047619D01*
X35595238Y10047619D01*
X35690476Y10000000D01*
X35738095Y9952380D01*
X35785714Y9857142D01*
X35785714Y9809523D01*
X35738095Y9714285D01*
X35690476Y9666666D01*
X35595238Y9619047D01*
X35404761Y9619047D01*
X35309523Y9571428D01*
X35261904Y9523809D01*
X35214285Y9428571D01*
X35214285Y9238095D01*
X35261904Y9142857D01*
X35309523Y9095238D01*
X35404761Y9047619D01*
X35595238Y9047619D01*
X35690476Y9095238D01*
X35738095Y9142857D01*
X35785714Y9238095D01*
X35785714Y9428571D01*
X35738095Y9523809D01*
X35690476Y9571428D01*
X35595238Y9619047D01*
X34833333Y7047619D02*
X34500000Y7523809D01*
X34261904Y7047619D02*
X34261904Y8047619D01*
X34642857Y8047619D01*
X34738095Y8000000D01*
X34785714Y7952380D01*
X34833333Y7857142D01*
X34833333Y7714285D01*
X34785714Y7619047D01*
X34738095Y7571428D01*
X34642857Y7523809D01*
X34261904Y7523809D01*
X35309523Y7047619D02*
X35500000Y7047619D01*
X35595238Y7095238D01*
X35642857Y7142857D01*
X35738095Y7285714D01*
X35785714Y7476190D01*
X35785714Y7857142D01*
X35738095Y7952380D01*
X35690476Y8000000D01*
X35595238Y8047619D01*
X35404761Y8047619D01*
X35309523Y8000000D01*
X35261904Y7952380D01*
X35214285Y7857142D01*
X35214285Y7619047D01*
X35261904Y7523809D01*
X35309523Y7476190D01*
X35404761Y7428571D01*
X35595238Y7428571D01*
X35690476Y7476190D01*
X35738095Y7523809D01*
X35785714Y7619047D01*
X32857142Y3097619D02*
X32523809Y3573809D01*
X32285714Y3097619D02*
X32285714Y4097619D01*
X32666666Y4097619D01*
X32761904Y4050000D01*
X32809523Y4002380D01*
X32857142Y3907142D01*
X32857142Y3764285D01*
X32809523Y3669047D01*
X32761904Y3621428D01*
X32666666Y3573809D01*
X32285714Y3573809D01*
X33809523Y3097619D02*
X33238095Y3097619D01*
X33523809Y3097619D02*
X33523809Y4097619D01*
X33428571Y3954761D01*
X33333333Y3859523D01*
X33238095Y3811904D01*
X34428571Y4097619D02*
X34523809Y4097619D01*
X34619047Y4050000D01*
X34666666Y4002380D01*
X34714285Y3907142D01*
X34761904Y3716666D01*
X34761904Y3478571D01*
X34714285Y3288095D01*
X34666666Y3192857D01*
X34619047Y3145238D01*
X34523809Y3097619D01*
X34428571Y3097619D01*
X34333333Y3145238D01*
X34285714Y3192857D01*
X34238095Y3288095D01*
X34190476Y3478571D01*
X34190476Y3716666D01*
X34238095Y3907142D01*
X34285714Y4002380D01*
X34333333Y4050000D01*
X34428571Y4097619D01*
X9607142Y21547619D02*
X9273809Y22023809D01*
X9035714Y21547619D02*
X9035714Y22547619D01*
X9416666Y22547619D01*
X9511904Y22500000D01*
X9559523Y22452380D01*
X9607142Y22357142D01*
X9607142Y22214285D01*
X9559523Y22119047D01*
X9511904Y22071428D01*
X9416666Y22023809D01*
X9035714Y22023809D01*
X10559523Y21547619D02*
X9988095Y21547619D01*
X10273809Y21547619D02*
X10273809Y22547619D01*
X10178571Y22404761D01*
X10083333Y22309523D01*
X9988095Y22261904D01*
X11511904Y21547619D02*
X10940476Y21547619D01*
X11226190Y21547619D02*
X11226190Y22547619D01*
X11130952Y22404761D01*
X11035714Y22309523D01*
X10940476Y22261904D01*
X9607142Y19047619D02*
X9273809Y19523809D01*
X9035714Y19047619D02*
X9035714Y20047619D01*
X9416666Y20047619D01*
X9511904Y20000000D01*
X9559523Y19952380D01*
X9607142Y19857142D01*
X9607142Y19714285D01*
X9559523Y19619047D01*
X9511904Y19571428D01*
X9416666Y19523809D01*
X9035714Y19523809D01*
X10559523Y19047619D02*
X9988095Y19047619D01*
X10273809Y19047619D02*
X10273809Y20047619D01*
X10178571Y19904761D01*
X10083333Y19809523D01*
X9988095Y19761904D01*
X10940476Y19952380D02*
X10988095Y20000000D01*
X11083333Y20047619D01*
X11321428Y20047619D01*
X11416666Y20000000D01*
X11464285Y19952380D01*
X11511904Y19857142D01*
X11511904Y19761904D01*
X11464285Y19619047D01*
X10892857Y19047619D01*
X11511904Y19047619D01*
D16*
X18423714Y13310571D02*
X17698000Y13310571D01*
X17698000Y14834571D01*
X18931714Y13310571D02*
X18931714Y14834571D01*
X19439714Y13746000D01*
X19947714Y14834571D01*
X19947714Y13310571D01*
X20528285Y14834571D02*
X21471714Y14834571D01*
X20963714Y14254000D01*
X21181428Y14254000D01*
X21326571Y14181428D01*
X21399142Y14108857D01*
X21471714Y13963714D01*
X21471714Y13600857D01*
X21399142Y13455714D01*
X21326571Y13383142D01*
X21181428Y13310571D01*
X20746000Y13310571D01*
X20600857Y13383142D01*
X20528285Y13455714D01*
X22923142Y13310571D02*
X22052285Y13310571D01*
X22487714Y13310571D02*
X22487714Y14834571D01*
X22342571Y14616857D01*
X22197428Y14471714D01*
X22052285Y14399142D01*
X23431142Y14834571D02*
X24447142Y14834571D01*
X23794000Y13310571D01*
D15*
D16*
X67338857Y18234571D02*
X67338857Y17000857D01*
X67411428Y16855714D01*
X67484000Y16783142D01*
X67629142Y16710571D01*
X67919428Y16710571D01*
X68064571Y16783142D01*
X68137142Y16855714D01*
X68209714Y17000857D01*
X68209714Y18234571D01*
X68790285Y18234571D02*
X69733714Y18234571D01*
X69225714Y17654000D01*
X69443428Y17654000D01*
X69588571Y17581428D01*
X69661142Y17508857D01*
X69733714Y17363714D01*
X69733714Y17000857D01*
X69661142Y16855714D01*
X69588571Y16783142D01*
X69443428Y16710571D01*
X69008000Y16710571D01*
X68862857Y16783142D01*
X68790285Y16855714D01*
X56338857Y20834571D02*
X56338857Y19600857D01*
X56411428Y19455714D01*
X56484000Y19383142D01*
X56629142Y19310571D01*
X56919428Y19310571D01*
X57064571Y19383142D01*
X57137142Y19455714D01*
X57209714Y19600857D01*
X57209714Y20834571D01*
X58588571Y20326571D02*
X58588571Y19310571D01*
X58225714Y20907142D02*
X57862857Y19818571D01*
X58806285Y19818571D01*
X67338857Y20834571D02*
X67338857Y19600857D01*
X67411428Y19455714D01*
X67484000Y19383142D01*
X67629142Y19310571D01*
X67919428Y19310571D01*
X68064571Y19383142D01*
X68137142Y19455714D01*
X68209714Y19600857D01*
X68209714Y20834571D01*
X69661142Y20834571D02*
X68935428Y20834571D01*
X68862857Y20108857D01*
X68935428Y20181428D01*
X69080571Y20254000D01*
X69443428Y20254000D01*
X69588571Y20181428D01*
X69661142Y20108857D01*
X69733714Y19963714D01*
X69733714Y19600857D01*
X69661142Y19455714D01*
X69588571Y19383142D01*
X69443428Y19310571D01*
X69080571Y19310571D01*
X68935428Y19383142D01*
X68862857Y19455714D01*
X75189428Y9718857D02*
X75189428Y8993142D01*
X73665428Y8993142D01*
X75189428Y11097714D02*
X74463714Y10589714D01*
X75189428Y10226857D02*
X73665428Y10226857D01*
X73665428Y10807428D01*
X73738000Y10952571D01*
X73810571Y11025142D01*
X73955714Y11097714D01*
X74173428Y11097714D01*
X74318571Y11025142D01*
X74391142Y10952571D01*
X74463714Y10807428D01*
X74463714Y10226857D01*
X73665428Y11605714D02*
X73665428Y12621714D01*
X75189428Y11968571D01*
X74318571Y13420000D02*
X74246000Y13274857D01*
X74173428Y13202285D01*
X74028285Y13129714D01*
X73955714Y13129714D01*
X73810571Y13202285D01*
X73738000Y13274857D01*
X73665428Y13420000D01*
X73665428Y13710285D01*
X73738000Y13855428D01*
X73810571Y13928000D01*
X73955714Y14000571D01*
X74028285Y14000571D01*
X74173428Y13928000D01*
X74246000Y13855428D01*
X74318571Y13710285D01*
X74318571Y13420000D01*
X74391142Y13274857D01*
X74463714Y13202285D01*
X74608857Y13129714D01*
X74899142Y13129714D01*
X75044285Y13202285D01*
X75116857Y13274857D01*
X75189428Y13420000D01*
X75189428Y13710285D01*
X75116857Y13855428D01*
X75044285Y13928000D01*
X74899142Y14000571D01*
X74608857Y14000571D01*
X74463714Y13928000D01*
X74391142Y13855428D01*
X74318571Y13710285D01*
X73665428Y14508571D02*
X73665428Y15452000D01*
X74246000Y14944000D01*
X74246000Y15161714D01*
X74318571Y15306857D01*
X74391142Y15379428D01*
X74536285Y15452000D01*
X74899142Y15452000D01*
X75044285Y15379428D01*
X75116857Y15306857D01*
X75189428Y15161714D01*
X75189428Y14726285D01*
X75116857Y14581142D01*
X75044285Y14508571D01*
X73665428Y15960000D02*
X73665428Y16903428D01*
X74246000Y16395428D01*
X74246000Y16613142D01*
X74318571Y16758285D01*
X74391142Y16830857D01*
X74536285Y16903428D01*
X74899142Y16903428D01*
X75044285Y16830857D01*
X75116857Y16758285D01*
X75189428Y16613142D01*
X75189428Y16177714D01*
X75116857Y16032571D01*
X75044285Y15960000D01*
X75189428Y18717714D02*
X73665428Y18717714D01*
X74391142Y18717714D02*
X74391142Y19588571D01*
X75189428Y19588571D02*
X73665428Y19588571D01*
X74391142Y21983428D02*
X74463714Y22201142D01*
X74536285Y22273714D01*
X74681428Y22346285D01*
X74899142Y22346285D01*
X75044285Y22273714D01*
X75116857Y22201142D01*
X75189428Y22056000D01*
X75189428Y21475428D01*
X73665428Y21475428D01*
X73665428Y21983428D01*
X73738000Y22128571D01*
X73810571Y22201142D01*
X73955714Y22273714D01*
X74100857Y22273714D01*
X74246000Y22201142D01*
X74318571Y22128571D01*
X74391142Y21983428D01*
X74391142Y21475428D01*
X75189428Y22999428D02*
X74173428Y22999428D01*
X74463714Y22999428D02*
X74318571Y23072000D01*
X74246000Y23144571D01*
X74173428Y23289714D01*
X74173428Y23434857D01*
X75189428Y23942857D02*
X74173428Y23942857D01*
X73665428Y23942857D02*
X73738000Y23870285D01*
X73810571Y23942857D01*
X73738000Y24015428D01*
X73665428Y23942857D01*
X73810571Y23942857D01*
X75189428Y25321714D02*
X73665428Y25321714D01*
X75116857Y25321714D02*
X75189428Y25176571D01*
X75189428Y24886285D01*
X75116857Y24741142D01*
X75044285Y24668571D01*
X74899142Y24596000D01*
X74463714Y24596000D01*
X74318571Y24668571D01*
X74246000Y24741142D01*
X74173428Y24886285D01*
X74173428Y25176571D01*
X74246000Y25321714D01*
X74173428Y26700571D02*
X75407142Y26700571D01*
X75552285Y26628000D01*
X75624857Y26555428D01*
X75697428Y26410285D01*
X75697428Y26192571D01*
X75624857Y26047428D01*
X75116857Y26700571D02*
X75189428Y26555428D01*
X75189428Y26265142D01*
X75116857Y26120000D01*
X75044285Y26047428D01*
X74899142Y25974857D01*
X74463714Y25974857D01*
X74318571Y26047428D01*
X74246000Y26120000D01*
X74173428Y26265142D01*
X74173428Y26555428D01*
X74246000Y26700571D01*
X75116857Y28006857D02*
X75189428Y27861714D01*
X75189428Y27571428D01*
X75116857Y27426285D01*
X74971714Y27353714D01*
X74391142Y27353714D01*
X74246000Y27426285D01*
X74173428Y27571428D01*
X74173428Y27861714D01*
X74246000Y28006857D01*
X74391142Y28079428D01*
X74536285Y28079428D01*
X74681428Y27353714D01*
D15*
M02*
