M48
;DRILL file {KiCad 5.0.0-rc2-dev-unknown-94c7809~62~ubuntu16.04.1} date Mon Mar 26 01:26:16 2018
;FORMAT={-:-/ absolute / inch / decimal}
FMAT,2
INCH,TZ
T1C0.0118
T2C0.0157
T3C0.0200
T4C0.0394
T5C0.0400
T6C0.0472
T7C0.0787
T8C0.1575
%
G90
G05
M72
T1
X1.4557Y0.8115
X1.4557Y0.7699
X1.4557Y0.7283
X1.4557Y0.6868
X1.4557Y0.6452
X1.4557Y0.6036
X1.4892Y0.8115
X1.4892Y0.7699
X1.4892Y0.7283
X1.4892Y0.6868
X1.4892Y0.6452
X1.4892Y0.6036
X1.5226Y0.8115
X1.5226Y0.7699
X1.5226Y0.7283
X1.5226Y0.6868
X1.5226Y0.6452
X1.5226Y0.6036
X1.5561Y0.8115
X1.5561Y0.7699
X1.5561Y0.7283
X1.5561Y0.6868
X1.5561Y0.6452
X1.5561Y0.6036
T2
X0.2165Y0.8268
X0.2854Y0.561
X0.3839Y0.8268
X0.3839Y0.6201
X0.4134Y0.8957
X0.4823Y1.1417
X0.502Y1.3484
X0.5217Y0.935
X0.5709Y1.1122
X0.5807Y0.3445
X0.6594Y1.2795
X0.748Y0.5709
X0.9547Y1.3583
X1.122Y1.1319
X1.2106Y0.374
X1.2106Y0.1969
X1.2283Y0.5118
X1.2357Y0.6181
X1.2598Y0.6594
X1.2696Y0.6976
X1.2795Y0.4429
X1.2853Y0.7337
X1.2868Y0.6279
X1.2894Y0.5709
X1.2992Y1.3583
X1.3116Y0.763
X1.3363Y0.5733
X1.378Y0.4429
X1.4764Y0.502
X1.6339Y1.122
X1.6535Y0.4528
X1.6634Y0.3248
X1.6929Y0.8563
X1.6929Y0.5217
X1.7061Y0.7175
X1.755Y0.8788
X1.7913Y1.2106
X1.8406Y1.0827
X1.8406Y1.0335
X1.8504Y0.4134
X1.8602Y0.6004
X1.8799Y0.8563
X1.9291Y1.0236
X1.939Y0.561
X1.9685Y0.7972
X2.0472Y0.4134
X2.0472Y0.2953
X2.0669Y1.063
X2.1063Y1.3189
X2.1063Y1.2795
X2.1063Y1.2402
X2.1063Y1.2008
X2.1063Y1.1614
X2.1457Y1.3189
X2.1457Y1.2795
X2.1457Y1.2402
X2.185Y1.3189
X2.185Y1.2795
X2.2244Y1.3189
X2.2244Y1.2795
X2.2638Y1.3189
X2.2638Y1.2795
X2.2638Y1.2402
X2.2638Y1.2008
X2.2638Y1.1614
X2.3498Y1.374
X2.5787Y1.3189
X2.5787Y1.2795
X2.6181Y1.3189
X2.6181Y1.2795
X2.6181Y1.2402
X2.6575Y1.3189
X2.6575Y1.2795
X2.6575Y1.2402
X2.6969Y1.3189
X2.6969Y1.2795
X2.6969Y1.2402
X2.7559Y0.1575
X2.7756Y1.3976
T3
X2.5984Y0.6417
X2.5984Y0.5748
X2.5984Y0.5079
X2.5984Y0.4528
X2.6654Y0.6417
X2.6654Y0.5748
X2.6654Y0.5079
X2.6654Y0.4528
X2.7323Y0.6417
X2.7323Y0.5748
X2.7323Y0.5079
X2.7323Y0.4528
X2.7953Y0.6417
X2.7953Y0.5748
X2.7953Y0.5079
X2.7953Y0.4528
X2.1654Y0.6417
X2.1654Y0.5748
X2.1654Y0.5079
X2.1654Y0.4528
X2.2323Y0.6417
X2.2323Y0.5748
X2.2323Y0.5079
X2.2323Y0.4528
X2.2992Y0.6417
X2.2992Y0.5748
X2.2992Y0.5079
X2.2992Y0.4528
X2.3622Y0.6417
X2.3622Y0.5748
X2.3622Y0.5079
X2.3622Y0.4528
X2.5984Y1.0197
X2.5984Y0.9646
X2.5984Y0.8976
X2.5984Y0.8307
X2.6614Y1.0197
X2.6614Y0.9646
X2.6614Y0.8976
X2.6614Y0.8307
X2.7283Y1.0197
X2.7283Y0.9646
X2.7283Y0.8976
X2.7283Y0.8307
X2.7953Y1.0197
X2.7953Y0.9646
X2.7953Y0.8976
X2.7953Y0.8307
X2.1654Y1.0039
X2.1654Y0.9488
X2.1654Y0.8819
X2.1654Y0.815
X2.2283Y1.0039
X2.2283Y0.9488
X2.2283Y0.8819
X2.2283Y0.815
X2.2953Y1.0039
X2.2953Y0.9488
X2.2953Y0.8819
X2.2953Y0.815
X2.3622Y1.0039
X2.3622Y0.9488
X2.3622Y0.8819
X2.3622Y0.815
T4
X0.3618Y0.128
X0.4618Y0.128
X0.5618Y0.128
X0.6618Y0.128
X0.735Y1.4469
X0.835Y1.4469
X0.935Y1.4469
X1.035Y1.4469
X2.7051Y1.5157
X2.8051Y1.5157
X2.9051Y1.5157
X3.0051Y1.5157
X1.8504Y0.0795
X3.7386Y1.1177
X3.7386Y1.0177
X3.7386Y0.9177
X3.7386Y0.8177
X3.7386Y0.7177
X3.7386Y0.6177
X3.7386Y0.5177
X3.7386Y0.4177
X1.1402Y1.4469
X1.2402Y1.4469
X1.3402Y1.4469
X1.4402Y1.4469
X0.8039Y0.128
X0.9039Y0.128
X1.0039Y0.128
X1.1039Y0.128
T5
X0.1189Y0.8799
X0.1189Y0.7799
X0.1189Y0.6799
X0.1189Y0.5799
X0.1189Y0.4799
X0.1189Y0.3799
T6
X2.8445Y0.0992
X3.189Y1.122
X3.4843Y1.122
X3.189Y0.4134
X3.4843Y0.4134
X0.3224Y1.4476
X0.4224Y1.4476
X0.5224Y1.4476
X0.6224Y1.4476
T7
X3.8386Y1.0677
X3.8386Y0.8677
X3.8386Y0.6677
X3.8386Y0.4677
T8
X3.7992Y0.1378
X0.1476Y0.1378
X3.7992Y1.4173
X0.1476Y1.4173
T0
M30
